SplineFontDB: 3.0
FontName: GM
FullName: GM
FamilyName: GM
Weight: Regular
Copyright: 
Version: 0.1
ItalicAngle: 0
UnderlinePosition: -200
UnderlineWidth: 40
Ascent: 782
Descent: 218
InvalidEm: 0
sfntRevision: 0x0000199a
LayerCount: 2
Layer: 0 0 "Back" 1
Layer: 1 0 "Fore" 0
XUID: [1021 70 263418660 6713]
StyleMap: 0x0040
FSType: 8
OS2Version: 4
OS2_WeightWidthSlopeOnly: 0
OS2_UseTypoMetrics: 1
CreationTime: 1409921248
ModificationTime: 1522782972
PfmFamily: 17
TTFWeight: 400
TTFWidth: 5
LineGap: 200
VLineGap: 0
Panose: 2 0 5 3 0 0 0 0 0 0
OS2TypoAscent: 782
OS2TypoAOffset: 0
OS2TypoDescent: -218
OS2TypoDOffset: 0
OS2TypoLinegap: 200
OS2WinAscent: 2274
OS2WinAOffset: 0
OS2WinDescent: 1774
OS2WinDOffset: 0
HheadAscent: 782
HheadAOffset: 0
HheadDescent: -218
HheadDOffset: 0
OS2SubXSize: 650
OS2SubYSize: 699
OS2SubXOff: 0
OS2SubYOff: 140
OS2SupXSize: 650
OS2SupYSize: 699
OS2SupXOff: 0
OS2SupYOff: 479
OS2StrikeYSize: 49
OS2StrikeYPos: 258
OS2CapHeight: 662
OS2XHeight: 450
OS2Vendor: 'PfEd'
OS2CodePages: 60000193.0dd40000
OS2UnicodeRanges: a10000ef.4201f9ee.02000000.00000000
Lookup: 3 0 0 "'aalt' Access All Alternates in Mathematical Alphanumeric Symbols lookup 0" { "'aalt' Access All Alternates in Mathematical Alphanumeric Symbols lookup 0 subtable"  } ['aalt' ('math' <'dflt' > ) ]
Lookup: 1 0 0 "'dtls' Dotless Forms in Mathematical Alphanumeric Symbols lookup 1" { "'dtls' Dotless Forms in Mathematical Alphanumeric Symbols lookup 1 subtable"  } ['dtls' ('math' <'dflt' > ) ]
Lookup: 3 0 0 "'ssty' Script Style in Mathematical Alphanumeric Symbols lookup 2" { "'ssty' Script Style in Mathematical Alphanumeric Symbols lookup 2 subtable"  } ['ssty' ('math' <'dflt' > ) ]
Lookup: 258 0 0 "mkn" { "mkn-1"  } []
MarkAttachClasses: 1
DEI: 91125
LangName: 1033 "" "" "" "FontForge : GM : 27-3-2018" "" "Version 1.543" "" "Please refer to the Copyright section for the font trademark attribution notices." "" "" "" "" "" "" "" "" "TeX Gyre Termes Math" "Regular"

StartChar: exclam
Encoding: 33 33 2
Width: 250
GlyphClass: 2
Flags: MW
HStem: -14 120<108.5 141.5>
VStem: 65 120<29.5 62.5> 79 92<562.5 608.5>
LayerCount: 2
Fore
SplineSet
123 205 m 0xa0
 113 205 108 215 105 244 c 0
 93 358 79 531 79 594 c 0
 79 623 99 649 126 649 c 0
 153 649 171 623 171 594 c 0
 171 531 153 357 141 244 c 0
 139 222 133 205 123 205 c 0xa0
125 -14 m 0xc0
 92 -14 65 13 65 46 c 0
 65 79 92 106 125 106 c 0
 158 106 185 79 185 46 c 0
 185 13 158 -14 125 -14 c 0xc0
EndSplineSet
EndChar

StartChar: quotedbl
Encoding: 34 34 3
Width: 330
GlyphClass: 2
Flags: MW
HStem: 444 232<69.5 129 116 204.5>
VStem: 66 72 196 72
LayerCount: 2
Fore
SplineSet
72 444 m 0
 67 444 65 458 65 467 c 0
 66 488 66 506 66 524 c 0
 66 560 62 619 62 620 c 0
 62 634 73 648 81 655 c 0
 97 668 108 676 124 676 c 0
 134 676 138 661 138 644 c 0
 138 592 106 505 91 469 c 0
 86 457 77 444 72 444 c 0
202 444 m 0
 197 444 195 458 195 467 c 0
 196 488 196 506 196 524 c 0
 196 560 192 619 192 620 c 0
 192 634 203 648 211 655 c 0
 227 668 238 676 254 676 c 0
 264 676 268 661 268 644 c 0
 268 592 236 505 221 469 c 0
 216 457 207 444 202 444 c 0
EndSplineSet
EndChar

StartChar: numbersign
Encoding: 35 35 4
Width: 468
GlyphClass: 2
Flags: MW
ItalicCorrection: 24
HStem: 110 61.5 118 60 124.5 61.5 308 61.5 316 60 322.5 61.5
VStem: 17 407<118.5 376.5>
LayerCount: 2
Fore
SplineSet
60 -79 m 0x4a
 54 -79 50 -73 50 -67 c 2
 50 -64 l 1
 94 113 l 1
 31 110 l 2
 24 110 17 115 17 122 c 0
 17 132 20 169 41 170 c 2
 108 173 l 1
 142 311 l 1
 78 308 l 2
 71 308 64 313 64 320 c 0
 64 330 67 367 88 368 c 2
 157 371 l 1x92
 199 542 l 2
 202 556 218 559 232 559 c 0
 237 559 240 553 240 547 c 0
 240 545 239 544 239 542 c 2
 198 373 l 1
 311 379 l 1x4a
 354 553 l 2
 357 567 373 570 387 570 c 0
 392 570 395 564 395 558 c 0
 395 556 394 555 394 553 c 2
 352 381 l 1
 411 384 l 2
 418 384 424 380 424 373 c 0
 424 363 415 325 393 324 c 2
 337 321 l 1
 303 183 l 1
 364 186 l 2
 371 186 377 181 377 174 c 0
 377 164 368 127 346 126 c 2
 288 123 l 1x26
 245 -53 l 2
 242 -66 228 -68 215 -68 c 0
 209 -68 205 -62 205 -56 c 2
 205 -53 l 1
 248 121 l 1
 134 115 l 1
 90 -64 l 2
 87 -77 73 -79 60 -79 c 0x4a
149 175 m 1
 263 181 l 1
 296 319 l 1
 183 313 l 1
 149 175 l 1
EndSplineSet
EndChar

StartChar: dollar
Encoding: 36 36 5
Width: 441
GlyphClass: 2
Flags: MW
HStem: 16 37<211.5 219> 595 37<227 235>
VStem: 56 78<478.5 509> 160.5 40 242 49 319 79<143.5 188.5>
LayerCount: 2
Fore
SplineSet
171 -82 m 0
 163 -82 154 -75 156 -62 c 2
 165 9 l 2
 166 15 161 18 158 18 c 0
 121 24 88 40 61 61 c 0
 57 66 51 72 49 79 c 0
 42 104 42 149 40 174 c 0
 40 182 48 186 58 186 c 0
 65 186 72 184 73 176 c 0
 91 110 124 75 161 60 c 0
 165 58 170 58 170 62 c 2
 197 291 l 2
 198 296 197 301 185 308 c 0
 120 346 56 390 56 466 c 0
 56 552 115 625 232 632 c 0
 238 632 242 635 242 638 c 2
 249 695 l 2
 251 708 265 712 278 712 c 0
 285 712 291 704 291 697 c 2
 284 637 l 2
 284 634 285 631 290 630 c 0
 317 625 338 616 353 610 c 0
 363 607 370 597 373 588 c 0
 380 562 392 527 392 499 c 0
 392 491 385 489 378 489 c 0
 366 489 354 494 351 501 c 0
 332 546 310 575 279 588 c 0
 277 588 275 585 275 583 c 2
 251 385 l 2
 250 377 249 377 263 367 c 0
 329 329 398 284 398 194 c 0
 398 93 326 23 214 16 c 0
 209 16 206 14 205 9 c 2
 196 -67 l 2
 195 -78 182 -82 171 -82 c 0
203 404 m 0
 211 400 212 403 212 405 c 2
 234 587 l 2
 234 592 232 595 227 595 c 0
 175 591 134 567 134 497 c 0
 134 460 162 432 203 404 c 0
219 53 m 0
 278 57 319 95 319 158 c 0
 319 219 290 245 243 274 c 0
 239 276 236 273 236 269 c 2
 211 63 l 2
 211 55 213 53 219 53 c 0
EndSplineSet
EndChar

StartChar: percent
Encoding: 37 37 6
Width: 650
GlyphClass: 2
Flags: MW
HStem: -17 22<467.5 536 467.5 538> 263 22<117.5 186 117.5 188> 310 25<468 532.5> 590 25<118 182.5> 645 20G<532.5 544.5>
VStem: 15 60<413.5 480 413.5 482.5> 225 60<404 470.5> 365 60<133.5 200 133.5 202.5> 575 60<124 190.5>
LayerCount: 2
Fore
SplineSet
502 648 m 2
 511 662 524 665 541 665 c 0
 548 665 555 658 555 652 c 0
 555 651 555 649 554 648 c 2
 116 -47 l 2
 108 -60 95 -62 80 -62 c 0
 72 -62 63 -56 63 -50 c 0
 63 -49 63 -48 64 -47 c 2
 502 648 l 2
142 263 m 0
 58 263 15 354 15 438 c 0
 15 527 71 615 160 615 c 0
 241 615 285 530 285 449 c 0
 285 358 234 263 142 263 c 0
153 285 m 0
 219 285 225 371 225 437 c 0
 225 504 216 590 149 590 c 0
 87 590 75 511 75 449 c 0
 75 378 82 285 153 285 c 0
492 -17 m 0
 408 -17 365 74 365 158 c 0
 365 247 421 335 510 335 c 0
 591 335 635 250 635 169 c 0
 635 78 584 -17 492 -17 c 0
503 5 m 0
 569 5 575 91 575 157 c 0
 575 224 566 310 499 310 c 0
 437 310 425 231 425 169 c 0
 425 98 432 5 503 5 c 0
EndSplineSet
EndChar

StartChar: ampersand
Encoding: 38 38 7
Width: 756
GlyphClass: 2
Flags: MW
HStem: -15 55<582.5 613.5> -15 65<201.5 258.5> 382 20G 392 20G<712 725.5> 573 26<259 302>
VStem: 38 77<129.5 180> 145 58<489 519> 347 64<477 503 477 505>
LayerCount: 2
Fore
SplineSet
212 -15 m 0x5d
 109 -15 38 45 38 127 c 0x5d
 38 233 109 298 205 342 c 2
 225 351 l 1
 210 367 l 2
 191 389 145 425 145 484 c 0
 145 554 215 599 284 599 c 0
 370 599 411 529 411 477 c 0
 412 426 372 389 306 365 c 2
 292 360 l 1
 305 346 l 2
 356 291 395 259 435 201 c 2
 447 183 l 1
 465 202 l 2
 513 253 575 337 575 352 c 0
 575 360 564 377 547 380 c 0
 544 381 535 388 535 391 c 0
 535 401 553 402 557 402 c 0x6f
 563 402 613 397 628 397 c 0
 658 397 700 412 724 412 c 0
 727 412 736 407 736 403 c 0
 736 395 720 385 711 384 c 0
 680 382 654 367 638 353 c 0
 625 342 459 165 459 165 c 1
 476 141 l 2
 518 80 557 40 608 40 c 0
 636 40 662 44 686 58 c 0
 691 61 697 63 703 63 c 0x9d
 712 63 715 60 715 51 c 0
 715 34 641 -15 586 -15 c 0
 511 -15 483 21 432 101 c 2
 419 122 l 1
 413 116 l 2
 350 48 305 -15 212 -15 c 0x5d
279 376 m 1x5f
 292 382 l 2
 329 399 347 442 347 482 c 0
 347 528 325 573 279 573 c 0
 239 573 203 545 203 509 c 0
 203 469 211 448 263 393 c 2
 279 376 l 1x5f
238 50 m 0
 304 50 349 79 398 131 c 2
 407 140 l 1
 395 159 l 2
 362 210 309 259 252 321 c 2
 240 334 l 1
 219 326 l 2
 126 290 115 219 115 160 c 0x5d
 115 99 165 50 238 50 c 0
EndSplineSet
EndChar

StartChar: quotesingle
Encoding: 39 39 8
Width: 200
GlyphClass: 2
Flags: MW
HStem: 444 232<69.5 129>
VStem: 66 72
LayerCount: 2
Fore
SplineSet
72 444 m 0
 67 444 65 458 65 467 c 0
 66 488 66 506 66 524 c 0
 66 560 62 619 62 620 c 0
 62 634 73 648 81 655 c 0
 97 668 108 676 124 676 c 0
 134 676 138 661 138 644 c 0
 138 592 106 505 91 469 c 0
 86 457 77 444 72 444 c 0
EndSplineSet
EndChar

StartChar: parenleft
Encoding: 40 40 9
Width: 315
GlyphClass: 2
Flags: MW
GlyphVariantsVertical: parenleft parenleft.v1 parenleft.v2 parenleft.v3 parenleft.v4 parenleft.v5 parenleft.v6
GlyphCompositionVertical: 3  uni239D%0,0,198,1202 uni239C%1,396,396,396 uni239B%0,198,0,1202
VStem: 40 83<197.5 355.5>
LayerCount: 2
Fore
SplineSet
237 -212.5 m 0
 231 -212.5 225 -210.5 220 -205.5 c 0
 149 -134.5 40 100.5 40 270.5 c 0
 40 440.5 145 624.5 216 695.5 c 0
 222 701.5 233 706.5 243 706.5 c 0
 250 706.5 265 699.5 265 690.5 c 0
 265 688.5 254 673.5 252 671.5 c 0
 191 600.5 123 452.5 123 282.5 c 0
 123 112.5 188 -100.5 249 -171.5 c 0
 250 -173.5 264 -188.5 264 -190.5 c 0
 264 -204.5 250 -212.5 237 -212.5 c 0
EndSplineSet
EndChar

StartChar: parenright
Encoding: 41 41 10
Width: 315
GlyphClass: 2
Flags: MW
GlyphVariantsVertical: parenright parenright.v1 parenright.v2 parenright.v3 parenright.v4 parenright.v5 parenright.v6
GlyphCompositionVertical: 3  uni23A0%0,0,198,1202 uni239F%1,396,396,396 uni239E%0,198,0,1202
VStem: 192 83<197.5 355.5 185.5 367.5>
LayerCount: 2
Fore
SplineSet
78 -212.5 m 0
 65 -212.5 51 -204.5 51 -190.5 c 0
 51 -188.5 65 -173.5 66 -171.5 c 0
 127 -100.5 192 112.5 192 282.5 c 0
 192 452.5 124 600.5 63 671.5 c 0
 61 673.5 50 688.5 50 690.5 c 0
 50 699.5 65 706.5 72 706.5 c 0
 82 706.5 93 701.5 99 695.5 c 0
 170 624.5 275 440.5 275 270.5 c 0
 275 100.5 166 -134.5 95 -205.5 c 0
 90 -210.5 84 -212.5 78 -212.5 c 0
EndSplineSet
EndChar

StartChar: asterisk
Encoding: 42 42 11
Width: 340
GlyphClass: 2
Flags: MW
TopAccentHorizontal: 221
HStem: 372 298<151 190>
VStem: 140 61
LayerCount: 2
Fore
SplineSet
184 372 m 0
 175 372 168 381 167 390 c 2
 154 482 l 1
 131 466 105 450 75 432 c 0
 72 429 68 428 64 428 c 0
 56 428 46 432 46 442 c 0
 46 448 50 454 55 459 c 2
 128 517 l 1
 102 529 77 541 46 559 c 0
 39 562 34 570 34 577 c 0
 34 591 51 593 59 590 c 0
 91 576 120 566 146 555 c 1
 143 583 141 613 140 648 c 0
 140 659 145 670 157 670 c 0
 166 670 173 661 174 652 c 2
 187 560 l 1
 210 576 236 592 266 610 c 0
 269 613 273 614 277 614 c 0
 285 614 295 610 295 600 c 0
 295 594 291 588 286 583 c 2
 213 525 l 1
 239 513 264 501 295 483 c 0
 302 480 307 472 307 465 c 0
 307 451 290 449 282 452 c 0
 250 466 221 476 195 487 c 1
 198 459 200 429 201 394 c 0
 201 383 196 372 184 372 c 0
EndSplineSet
EndChar

StartChar: plus
Encoding: 43 43 12
Width: 600
GlyphClass: 2
Flags: MW
HStem: -8 21G<279 286.5> 222 50<60.5 263 74 263 263 266 332.5 334 334 519>
VStem: 270 60<6 16 16 217 217 218 280 451 451 462>
LayerCount: 2
Fore
SplineSet
282 -8 m 0
 276 -8 270 -1 270 6 c 2
 270 217 l 2
 270 220 269 222 266 222 c 2
 64 222 l 2
 57 222 50 228 50 234 c 0
 50 243 56 272 74 272 c 2
 263 272 l 2
 269 272 270 274 270 280 c 2
 270 451 l 2
 270 473 310 482 316 482 c 0
 323 482 330 476 330 469 c 2
 330 278 l 2
 330 273 330 272 332 272 c 2
 537 272 l 2
 544 272 550 268 550 262 c 0
 550 245 538 222 519 222 c 2
 334 222 l 2
 331 222 330 221 330 218 c 2
 330 16 l 2
 330 -5 291 -8 282 -8 c 0
EndSplineSet
EndChar

StartChar: comma
Encoding: 44 44 13
Width: 230
GlyphClass: 2
Flags: MW
HStem: -147 264<32 123>
VStem: 130 52<-30.5 -7>
LayerCount: 2
Fore
SplineSet
38 -147 m 0
 26 -147 20 -142 20 -136 c 0
 20 -131 25 -126 34 -124 c 0
 77 -115 130 -85 130 -15 c 0
 130 1 113 27 91 29 c 0
 62 32 44 49 44 71 c 0
 44 98 70 117 99 117 c 0
 147 117 182 76 182 20 c 0
 182 -81 89 -147 38 -147 c 0
EndSplineSet
EndChar

StartChar: hyphen
Encoding: 45 45 14
Width: 274
GlyphClass: 2
Flags: MW
HStem: 170 60
VStem: 29 216<174 251>
LayerCount: 2
Fore
SplineSet
35 170 m 0
 30 170 29 172 29 176 c 0
 29 198 35 229 45 230 c 0
 109 239 173 248 237 255 c 0
 241 255 245 253 245 249 c 0
 245 224 240 197 224 195 c 0
 164 186 103 176 35 170 c 0
EndSplineSet
EndChar

StartChar: period
Encoding: 46 46 15
Width: 230
GlyphClass: 2
Flags: MW
HStem: -14 110<100 130>
VStem: 60 110<26 56>
LayerCount: 2
Fore
SplineSet
115 -14 m 0
 85 -14 60 11 60 41 c 0
 60 71 85 96 115 96 c 0
 145 96 170 71 170 41 c 0
 170 11 145 -14 115 -14 c 0
EndSplineSet
EndChar

StartChar: slash
Encoding: 47 47 16
Width: 399
GlyphClass: 2
Flags: MW
GlyphVariantsVertical: slash slash.v1 slash.v2 slash.v3 slash.v4 slash.v5 slash.v6
HStem: -62 727<30.5 363.5>
VStem: 19.97 351.51
LayerCount: 2
Fore
SplineSet
37 -62 m 0
 24 -62 17 -55 21 -47 c 2
 318 648 l 2
 325 663 340 665 357 665 c 0
 370 665 374 657 370 648 c 2
 73 -47 l 2
 67 -61 52 -62 37 -62 c 0
EndSplineSet
EndChar

StartChar: zero
Encoding: 48 48 17
Width: 480
GlyphClass: 2
Flags: MW
ItalicCorrection: 4
TopAccentHorizontal: 236
HStem: -14 26<217 302 217 319> 602 28<196 281>
VStem: 45 83<245 378> 373 82<241 373>
LayerCount: 2
Fore
SplineSet
245 -14 m 0
 109 -14 45 154 45 302 c 0
 45 454 107 630 255 630 c 0
 391 630 455 461 455 316 c 0
 455 166 393 -14 245 -14 c 0
262 12 m 0
 342 12 373 148 373 298 c 0
 373 448 326 602 236 602 c 0
 156 602 128 470 128 320 c 0
 128 170 172 12 262 12 c 0
EndSplineSet
EndChar

StartChar: one
Encoding: 49 49 18
Width: 480
GlyphClass: 2
Flags: MW
TopAccentHorizontal: 256
HStem: -3 21G<102 134 375.5 408>
VStem: 217 78<109 491 491 510>
LayerCount: 2
Fore
SplineSet
107 -3 m 0
 97 -3 92 3 92 9 c 0
 92 14 99 20 107 22 c 0
 183 41 217 50 217 109 c 2
 217 491 l 2
 217 529 176 536 133 539 c 0
 120 540 107 545 107 556 c 0
 107 565 118 572 132 574 c 0
 192 583 237 591 282 636 c 0
 283 637 285 637 287 637 c 0
 293 637 300 633 299 628 c 0
 296 608 295 585 295 557 c 2
 295 97 l 2
 295 46 319 41 401 21 c 0
 409 19 418 14 418 8 c 0
 418 2 412 -3 404 -3 c 0
 347 -3 310 2 257 2 c 0
 203 2 161 -3 107 -3 c 0
EndSplineSet
EndChar

StartChar: two
Encoding: 50 50 19
Width: 480
GlyphClass: 2
Flags: MW
ItalicCorrection: 3
TopAccentHorizontal: 237
HStem: -2 66 566 64<194.5 248.5>
VStem: 327 84<438 487.5>
LayerCount: 2
Fore
SplineSet
419 -3 m 0
 399 -3 334 3 284 3 c 0
 234 3 72 -2 52 -2 c 0
 47 -2 32 9 32 15 c 0
 32 21 34 22 40 28 c 2
 211 205 l 2
 278 274 327 364 327 452 c 0
 327 523 277 566 220 566 c 0
 165 566 116 533 88 485 c 0
 84 477 77 471 71 471 c 0
 66 471 56 483 56 501 c 0
 56 532 138 630 251 630 c 0
 351 630 411 562 411 465 c 0
 411 411 380 341 338 290 c 0
 293 236 128 76 128 71 c 0
 128 66 134 65 142 64 c 0
 164 62 193 61 230 61 c 0
 268 61 308 62 344 64 c 0
 401 67 414 71 439 111 c 0
 444 119 453 134 464 134 c 0
 470 134 471 127 471 122 c 0
 471 112 451 71 441 21 c 0
 437 0 426 -3 419 -3 c 0
EndSplineSet
EndChar

StartChar: three
Encoding: 51 51 20
Width: 480
GlyphClass: 2
Flags: MW
TopAccentHorizontal: 244
HStem: -38 38<189.5 229> 304 56<230.5 329.5> 570 60<193 245>
VStem: 312 79<492 493.5> 354 85<128 184.5>
LayerCount: 2
Fore
SplineSet
161 -38 m 0xe8
 114 -38 50 -11 50 5 c 0
 50 19 79 51 94 51 c 0
 109 51 120 41 133 31 c 0
 150 16 171 0 208 0 c 0
 281 0 354 63 354 146 c 0xe8
 354 223 315 304 238 304 c 0
 223 304 196 302 173 289 c 0
 166 285 154 291 156 298 c 0
 161 315 173 326 186 332 c 0
 209 343 312 395 312 466 c 0
 312 521 272 570 218 570 c 0
 115 570 99 481 84 481 c 0
 79 481 68 490 68 500 c 0
 68 535 125 630 261 630 c 0
 327 630 391 584 391 516 c 0xf0
 391 468 364 411 286 366 c 0
 282 364 282 360 287 360 c 0
 372 360 439 288 439 203 c 0
 439 53 297 -38 161 -38 c 0xe8
EndSplineSet
EndChar

StartChar: four
Encoding: 52 52 21
Width: 480
GlyphClass: 2
Flags: MW
TopAccentHorizontal: 344
HStem: -3 234<206.5 237 102 442> 182 49<231 272.5> 186 43<406 420> 628 14<372 372>
VStem: 287 80<80 236 173 236 239 365>
LayerCount: 2
Fore
SplineSet
210 -3 m 0x98
 203 -3 192 1 192 10 c 0
 192 17 202 21 210 22 c 0
 272 30 287 48 287 80 c 2x98
 287 173 l 2
 287 179 273 182 272 182 c 0
 190 182 134 176 29 175 c 0
 24 175 19 181 19 185 c 0
 19 186 19 187 20 188 c 0
 45 219 46 217 59 235 c 2
 323 614 l 2
 331 626 343 642 353 642 c 2
 374 642 l 2
 380 642 372 628 372 628 c 1
 102 240 l 2
 100 237 98 231 102 231 c 2
 275 231 l 2
 280 231 287 235 287 239 c 2x58
 287 394 l 2
 287 408 288 412 296 416 c 0
 316 427 343 429 352 429 c 0
 367 429 367 407 367 365 c 2
 367 236 l 2
 367 233 369 230 372 230 c 0
 387 229 400 229 412 229 c 0x98
 431 229 449 230 471 231 c 0
 477 231 482 227 482 223 c 0
 482 207 465 185 461 185 c 0
 446 185 428 186 412 186 c 0
 400 186 389 185 381 184 c 0
 376 183 368 179 368 178 c 2x38
 368 84 l 2
 368 45 381 36 435 22 c 0
 443 20 453 14 453 8 c 0
 453 2 446 -3 438 -3 c 0
 381 -3 372 2 325 2 c 0
 274 2 264 -3 210 -3 c 0x98
EndSplineSet
EndChar

StartChar: five
Encoding: 53 53 22
Width: 480
GlyphClass: 2
Flags: MW
TopAccentHorizontal: 427
HStem: -38 31<102 144.5>
VStem: 77 37 341 79<156.5 217.5>
LayerCount: 2
Fore
SplineSet
109 -38 m 0
 94 -38 72 -35 72 -26 c 0
 72 -16 96 -7 108 -7 c 0
 266 -7 341 93 341 179 c 0
 341 256 278 305 101 351 c 1
 83 366 77 379 77 397 c 0
 77 433 111 512 125 556 c 0
 132 576 145 587 166 592 c 0
 227 608 295 620 373 627 c 0
 383 628 389 619 384 610 c 2
 367 577 l 2
 358 557 347 547 330 545 c 0
 278 539 188 532 158 527 c 0
 144 525 115 464 114 448 c 0
 113 439 115 432 127 429 c 0
 202 407 263 386 309 362 c 0
 383 323 420 274 420 193 c 0
 420 120 372 53 298 10 c 0
 245 -20 180 -38 109 -38 c 0
EndSplineSet
EndChar

StartChar: six
Encoding: 54 54 23
Width: 480
GlyphClass: 2
Flags: MW
TopAccentHorizontal: 402
HStem: -16 38 260 53<307.5 314.5>
VStem: 47 86<195 247 195 267.5> 379 78<127.5 172.5>
LayerCount: 2
Fore
SplineSet
252 -16 m 0
 149 -16 47 53 47 193 c 0
 47 342 130 439 168 477 c 0
 218 528 312 608 435 641 c 0
 447 644 455 638 453 634 c 0
 447 622 434 617 427 614 c 0
 337 575 276 529 225 456 c 0
 192 408 133 299 133 195 c 0
 135 84 210 23 276 22 c 0
 330 21 379 59 379 142 c 0
 379 203 341 260 288 260 c 0
 253 260 231 257 208 245 c 0
 196 239 194 248 201 256 c 0
 211 267 217 272 228 280 c 0
 243 291 289 313 326 313 c 0
 395 313 457 262 457 190 c 0
 457 65 349 -16 252 -16 c 0
EndSplineSet
EndChar

StartChar: seven
Encoding: 55 55 24
Width: 480
GlyphClass: 2
Flags: MW
TopAccentHorizontal: 263
HStem: 551 65<225.5 298 225.5 400>
VStem: 36 449<491.5 610.5>
LayerCount: 2
Fore
SplineSet
127 -32 m 0
 112 -32 106 -21 106 -6 c 0
 106 -2 118 19 127 35 c 2
 410 541 l 2
 412 545 415 550 400 551 c 2
 144 551 l 2
 112 551 89 542 67 505 c 0
 63 498 53 480 43 480 c 0
 37 480 36 489 36 494 c 0
 36 501 39 511 40 516 c 0
 47 545 53 590 56 615 c 0
 57 624 63 626 66 626 c 0
 69 626 108 617 150 617 c 0
 180 617 202 616 249 616 c 0
 347 616 460 618 479 621 c 0
 482 621 485 613 485 608 c 0
 485 592 457 555 447 538 c 2
 146 -5 l 2
 140 -16 131 -32 127 -32 c 0
EndSplineSet
EndChar

StartChar: eight
Encoding: 56 56 25
Width: 480
GlyphClass: 2
Flags: MW
TopAccentHorizontal: 249
HStem: -14 29<221 285.5 221 291> 606 24<234 286>
VStem: 65 80<122 185> 80 77<470.5 528> 203.87 98.13 344 77<472.5 531> 359 80<112 155>
LayerCount: 2
Fore
SplineSet
242 -14 m 0xe4
 150 -14 65 49 65 141 c 0xe4
 65 229 148 274 199 302 c 0
 208 307 204 308 196 315 c 0
 136 366 80 404 80 489 c 0
 80 567 173 630 262 630 c 0
 342 630 421 577 421 496 c 0
 421 448 391 420 368 400 c 0xdc
 349 384 338 375 315 358 c 0
 298 346 299 344 310 337 c 0
 385 285 439 241 439 164 c 0xea
 439 60 340 -14 242 -14 c 0xe4
288 358 m 0
 334 396 344 442 344 503 c 0
 344 559 315 606 257 606 c 0
 211 606 157 563 157 509 c 0xd4
 157 432 204 418 274 361 c 0
 278 358 284 355 288 358 c 0
256 15 m 0xe2
 315 15 359 65 359 124 c 0
 359 186 299 240 241 280 c 0
 233 286 227 290 221 290 c 0
 218 290 214 288 209 284 c 0
 166 249 145 221 145 157 c 0
 145 87 186 15 256 15 c 0xe2
EndSplineSet
EndChar

StartChar: nine
Encoding: 57 57 26
Width: 480
GlyphClass: 2
Flags: MW
TopAccentHorizontal: 241
HStem: -31 18<63.5 97 63.5 102> 304 53<216.5 223.5> 593 36<210.5 274.5>
VStem: 65 75<451.5 475.5> 378 85<340.5 437>
LayerCount: 2
Fore
SplineSet
67 -31 m 0
 56 -31 53 -27 53 -23 c 0
 53 -16 60 -13 67 -13 c 0
 127 -13 225 52 289 134 c 0
 353 217 378 292 378 389 c 0
 378 485 311 593 238 593 c 0
 173 593 140 531 140 482 c 0
 140 421 190 357 243 357 c 0
 284 357 298 371 323 383 c 0
 328 385 332 376 330 372 c 0
 323 359 308 345 297 337 c 0
 282 326 242 304 205 304 c 0
 136 304 65 358 65 430 c 0
 65 521 150 629 271 629 c 0
 368 629 463 515 463 400 c 0
 463 275 410 186 319 87 c 0
 246 7 137 -31 67 -31 c 0
EndSplineSet
EndChar

StartChar: colon
Encoding: 58 58 27
Width: 248
GlyphClass: 2
Flags: MW
HStem: -14 110<110 140> 262 110<110 140>
VStem: 70 110<26 56 302 332>
LayerCount: 2
Fore
SplineSet
125 262 m 0
 95 262 70 287 70 317 c 0
 70 347 95 372 125 372 c 0
 155 372 180 347 180 317 c 0
 180 287 155 262 125 262 c 0
125 -14 m 0
 95 -14 70 11 70 41 c 0
 70 71 95 96 125 96 c 0
 155 96 180 71 180 41 c 0
 180 11 155 -14 125 -14 c 0
EndSplineSet
EndChar

StartChar: semicolon
Encoding: 59 59 28
Width: 228
GlyphClass: 2
Flags: MW
HStem: 263 110<90 120>
VStem: 50 110<303 333> 130 52<-30.5 -7>
LayerCount: 2
Fore
SplineSet
105 263 m 0xc0
 75 263 50 288 50 318 c 0
 50 348 75 373 105 373 c 0
 135 373 160 348 160 318 c 0
 160 288 135 263 105 263 c 0xc0
38 -147 m 0
 26 -147 20 -142 20 -136 c 0
 20 -131 25 -126 34 -124 c 0
 77 -115 130 -85 130 -15 c 0
 130 1 113 27 91 29 c 0
 62 32 44 49 44 71 c 0
 44 98 70 117 99 117 c 0
 147 117 182 76 182 20 c 0xa0
 182 -81 89 -147 38 -147 c 0
EndSplineSet
EndChar

StartChar: less
Encoding: 60 60 29
Width: 560
GlyphClass: 2
Flags: MW
HStem: -2 21G<487 487>
VStem: 53 454<0.5 226.5>
LayerCount: 2
Fore
SplineSet
487 -2 m 2
 94 195 l 2
 77 203 53 216 53 222 c 0
 53 231 66 258 86 268 c 2
 489 466 l 2
 492 468 496 469 497 469 c 0
 503 469 506 465 506 459 c 0
 506 447 495 418 475 408 c 2
 132 234 l 2
 129 233 130 230 133 229 c 2
 483 55 l 2
 502 46 507 16 507 7 c 0
 507 -6 494 -5 487 -2 c 2
EndSplineSet
EndChar

StartChar: equal
Encoding: 61 61 30
Width: 566
GlyphClass: 2
Flags: MW
GlyphCompositionHorizontal: 3  equal.lft%0,0,83,167 equal.ex%1,166,166,166 equal.rt%0,83,0,167
HStem: 143 50<60.5 502 74 484> 314 50<60.5 502 74 484>
LayerCount: 2
Fore
SplineSet
64 314 m 2
 57 314 50 320 50 326 c 0
 50 335 56 364 74 364 c 2
 502 364 l 2
 508 364 516 359 516 353 c 0
 516 339 500 314 484 314 c 2
 64 314 l 2
64 143 m 2
 57 143 50 149 50 155 c 0
 50 164 56 193 74 193 c 2
 502 193 l 2
 508 193 516 188 516 182 c 0
 516 164 500 143 484 143 c 2
 64 143 l 2
EndSplineSet
EndChar

StartChar: greater
Encoding: 62 62 31
Width: 560
GlyphClass: 2
Flags: MW
HStem: -4 21G<60 63.5>
VStem: 53 454<238.5 464.5>
LayerCount: 2
Fore
SplineSet
73 467 m 2
 466 270 l 2
 483 262 507 249 507 243 c 0
 507 234 494 207 474 197 c 2
 71 -1 l 2
 68 -3 64 -4 63 -4 c 0
 57 -4 54 0 54 6 c 0
 54 18 65 47 85 57 c 2
 428 231 l 2
 431 232 430 235 427 236 c 2
 77 410 l 2
 58 419 53 449 53 458 c 0
 53 471 66 470 73 467 c 2
EndSplineSet
EndChar

StartChar: question
Encoding: 63 63 32
Width: 376
GlyphClass: 2
Flags: MW
HStem: -14 120<133.5 166.5> 569 92<101.5 117> 573 88<101.5 159>
VStem: 90 120<29.5 62.5> 260 51<393.5 491>
LayerCount: 2
Fore
SplineSet
136 181 m 0xd8
 129 181 118 194 114 210 c 0
 108 231 98 252 98 297 c 0
 98 331 136 355 199 387 c 0
 227 401 260 429 260 458 c 0
 260 524 227 572 159 573 c 0xb8
 150 573 143 572 136 571 c 0
 129 570 122 569 112 569 c 0
 91 569 70 598 70 625 c 0
 70 644 93 661 110 661 c 0
 143 661 185 644 218 611 c 0
 274 555 311 469 311 418 c 0
 311 369 289 345 269 334 c 0
 225 310 215 304 183 283 c 0
 155 265 152 236 151 204 c 0
 151 194 146 181 136 181 c 0xd8
150 -14 m 0
 117 -14 90 13 90 46 c 0
 90 79 117 106 150 106 c 0
 183 106 210 79 210 46 c 0
 210 13 183 -14 150 -14 c 0
EndSplineSet
EndChar

StartChar: at
Encoding: 64 64 33
Width: 749
GlyphClass: 2
Flags: MW
HStem: -131 40<313.5 425.5 313.5 436> 47 34<339 353.5> 47 37<511 545.5> 325 30<364.5 414.5> 467 40<318.5 463.5>
VStem: 50 47<111.5 275.5 111.5 288> 204 71<139 216.5> 652 47<178.5 289.5>
LayerCount: 2
Fore
SplineSet
382 -131 m 0xbf
 204 -131 50 -3 50 181 c 0
 50 395 223 507 414 507 c 0
 563 507 699 384 699 235 c 0
 699 118 599 47 492 47 c 0xbf
 451 47 448 84 438 84 c 0
 428 84 385 47 322 47 c 0xdf
 256 47 204 86 204 156 c 0
 204 277 305 355 415 355 c 0
 435 355 468 351 480 347 c 0
 495 342 499 341 503 341 c 0
 513 341 518 360 528 360 c 0
 532 360 549 356 546 352 c 0
 537 328 527 288 524 272 c 2
 503 140 l 2
 502 131 500 122 500 113 c 0
 500 98 504 84 518 84 c 0
 588 84 652 137 652 220 c 0
 652 359 533 467 394 467 c 0
 236 467 97 360 97 191 c 0
 97 32 234 -91 393 -91 c 0
 458 -91 550 -56 600 -14 c 0
 606 -9 613 -4 618 -4 c 0
 627 -4 632 -8 632 -17 c 0
 632 -41 490 -131 382 -131 c 0xbf
358 81 m 0xdf
 382 81 398 89 418 103 c 0
 430 111 439 121 445 152 c 2
 464 255 l 2
 465 259 465 263 465 267 c 0
 465 304 436 325 393 325 c 0
 336 325 275 273 275 175 c 0
 275 103 320 81 358 81 c 0xdf
EndSplineSet
EndChar

StartChar: A
Encoding: 65 65 34
Width: 692
GlyphClass: 2
Flags: MW
ItalicCorrection: 12
TopAccentHorizontal: 348
HStem: -5 21G<18.5 43.5 654 676.5> -1 21G<229 246.5> 0 21G<415.5 436> 249 33<231 416 261 416 416 421 261 423>
VStem: -2 699<4 9.5 1 12.5>
LayerCount: 2
Fore
SplineSet
27 -5 m 0x98
 10 -5 -2 0 -2 8 c 0
 -2 17 9 24 31 31 c 0
 65 41 95 58 117 108 c 0
 192 279 236 393 304 578 c 0
 311 597 316 615 318 636 c 1
 330 640 342 643 354 651 c 0
 366 659 369 679 373 685 c 0
 374 686 377 686 378 684 c 0
 381 678 382 670 385 662 c 0
 449 459 530 223 563 128 c 0
 591 48 624 35 664 28 c 0
 687 24 697 14 697 5 c 0
 697 -3 685 -5 668 -5 c 0x98
 640 -5 574 1 529 1 c 0
 490 1 448 0 424 0 c 0
 407 0 395 4 395 12 c 0
 395 21 410 28 428 31 c 0
 472 38 489 54 489 76 c 0x38
 489 105 465 188 450 238 c 0
 447 248 441 249 423 249 c 2
 234 249 l 2
 228 249 222 245 217 231 c 0
 208 205 176 100 176 87 c 0
 176 58 202 38 234 30 c 0
 257 24 267 19 267 10 c 0
 267 2 255 -1 238 -1 c 0x58
 220 -1 184 1 147 1 c 0
 103 1 60 -5 27 -5 c 0x98
261 282 m 2x38
 416 282 l 2
 426 282 430 282 430 287 c 0
 430 289 429 293 428 297 c 2
 350 541 l 2
 346 553 344 559 341 559 c 0
 339 559 337 553 333 542 c 2
 242 297 l 2
 241 294 240 291 240 289 c 0
 240 282 248 282 261 282 c 2x38
EndSplineSet
EndChar

StartChar: B
Encoding: 66 66 35
Width: 587
GlyphClass: 2
Flags: MW
TopAccentHorizontal: 283
HStem: -4 41<264 311> 0 37 343 28<246 272 246 295> 627 30<246.5 335.5> 633 20G<50.5 86>
VStem: 130 78<99 108 108 307 390.5 408 408 549 549 573> 420 86<485.5 523.5> 453 94<146 227.5>
LayerCount: 2
Fore
SplineSet
48 -5 m 0xb5
 31 -5 19 -2 19 6 c 0
 19 15 29 20 52 24 c 0
 102 33 130 51 130 99 c 2
 130 549 l 2
 130 597 112 618 63 622 c 0
 40 624 30 633 30 642 c 0
 30 650 42 653 59 653 c 0xad
 113 653 122 652 163 652 c 0
 201 652 216 657 274 657 c 0
 430 657 506 617 506 508 c 0
 506 463 487 427 472 412 c 0xb6
 451 391 438 382 405 369 c 0
 400 367 399 361 405 359 c 0
 465 339 547 310 547 194 c 0
 547 84 484 51 443 30 c 0
 401 9 349 -4 273 -4 c 0xb5
 255 -4 218 0 178 0 c 0x75
 126 0 106 -5 48 -5 c 0xb5
254 371 m 0
 290 371 334 377 375 400 c 0
 389 408 420 437 420 495 c 0xb6
 420 552 397 627 274 627 c 0
 219 627 208 612 208 582 c 2
 208 408 l 2
 208 373 238 371 254 371 c 0
287 37 m 0
 375 37 453 103 453 189 c 0
 453 266 406 303 379 318 c 0
 361 328 325 343 265 343 c 0
 222 343 208 320 208 307 c 2
 208 108 l 2
 208 52 236 37 287 37 c 0
EndSplineSet
EndChar

StartChar: C
Encoding: 67 67 36
Width: 710
GlyphClass: 2
Flags: MW
TopAccentHorizontal: 404
HStem: -15 31<339 439.5> 632 31<337 442.5>
VStem: 46 101<265.5 420>
LayerCount: 2
Fore
SplineSet
407 -15 m 0
 220 -15 46 119 46 323 c 0
 46 517 227 663 432 663 c 0
 509 663 542 654 610 637 c 0
 630 632 637 621 639 603 c 0
 642 572 646 540 648 488 c 0
 649 473 620 464 614 487 c 0
 601 538 587 574 552 598 c 0
 519 620 470 632 415 632 c 0
 259 632 147 494 147 347 c 0
 147 184 256 16 422 16 c 0
 518 16 577 62 621 141 c 0
 630 158 655 159 655 138 c 0
 655 122 640 70 628 41 c 0
 618 22 617 21 596 14 c 0
 547 -6 472 -15 407 -15 c 0
EndSplineSet
EndChar

StartChar: D
Encoding: 68 68 37
Width: 754
GlyphClass: 2
Flags: MW
TopAccentHorizontal: 318
HStem: -7 35<361 437 321.5 466.5> 0 21G<143 202.5> 628 25 628 31<326.5 413.5>
VStem: 129 80<99 121 121 549 549 567> 624 95<246 421>
LayerCount: 2
Fore
SplineSet
371 -7 m 0x9c
 351 -7 242 0 163 0 c 0x5c
 123 0 111 -5 58 -5 c 0
 41 -5 29 -2 29 8 c 0
 29 19 39 20 62 24 c 0
 112 33 129 51 129 99 c 2
 129 549 l 2
 129 597 112 613 62 622 c 0
 39 626 29 629 29 640 c 0
 29 649 41 653 58 653 c 0xac
 109 653 121 651 169 651 c 0
 212 651 313 659 340 659 c 0
 611 659 719 517 719 342 c 0
 719 150 562 -7 371 -7 c 0x9c
359 28 m 0
 515 28 624 151 624 325 c 0
 624 517 482 628 345 628 c 0
 258 628 209 627 209 567 c 2
 209 121 l 2
 209 40 284 28 359 28 c 0
EndSplineSet
EndChar

StartChar: E
Encoding: 69 69 38
Width: 564
GlyphClass: 2
Flags: MW
ItalicCorrection: 14
TopAccentHorizontal: 288
HStem: -5 40 320 32<246.5 258 258 341 341 351> 618 32<254.5 260 260 272 215 391> 618 35
VStem: 144 80<99 102 102 294 368 374 374 549 549 573>
LayerCount: 2
Fore
SplineSet
66 -5 m 0xe8
 49 -5 37 -2 37 6 c 0
 37 15 47 20 70 24 c 0
 120 33 144 51 144 99 c 2
 144 549 l 2
 144 597 127 613 77 622 c 0
 54 626 44 633 44 642 c 0
 44 650 56 653 73 653 c 0xd8
 148 653 180 650 250 650 c 0
 294 650 345 651 387 651 c 2xe8
 472 653 l 2
 479 653 489 651 490 644 c 0xd8
 497 606 505 568 505 541 c 0
 505 529 497 526 491 526 c 0
 484 526 482 529 480 536 c 0
 473 558 467 581 458 591 c 0
 439 612 416 618 391 618 c 2
 260 618 l 2
 249 618 224 605 224 586 c 2
 224 374 l 2
 224 362 232 352 242 352 c 2
 341 352 l 2
 380 352 389 364 399 401 c 0
 403 416 409 423 417 423 c 0
 422 423 430 417 430 407 c 0
 430 398 427 353 427 337 c 0
 427 317 429 268 429 260 c 0
 429 251 428 243 420 243 c 0
 410 243 402 254 397 275 c 0
 389 306 377 320 351 320 c 2
 258 320 l 2
 235 320 224 317 224 294 c 2
 224 102 l 2
 224 51 245 35 290 35 c 2
 364 35 l 2
 407 35 434 39 455 52 c 0
 476 66 491 89 512 129 c 0
 516 137 521 143 528 142 c 0
 535 141 539 136 539 128 c 0
 539 110 520 39 508 12 c 0
 504 3 502 -5 494 -5 c 0
 366 -5 281 1 181 1 c 0
 136 1 120 -5 66 -5 c 0xe8
EndSplineSet
EndChar

StartChar: F
Encoding: 70 70 39
Width: 512
GlyphClass: 2
Flags: MW
ItalicCorrection: 18
TopAccentHorizontal: 258
HStem: -5 21G<50.5 86 256 291.5> 319 31 391 20G<412.5 417.5> 617 33<237 244 244 363 363 371> 617 36 640 20G<450 465.5>
VStem: 130 80<261.5 300.5 366.5 372 261.5 522>
LayerCount: 2
Fore
SplineSet
59 -5 m 0xf2
 42 -5 30 -2 30 6 c 0
 30 15 40 20 63 24 c 0
 113 33 130 51 130 100 c 2
 130 522 l 2
 130 582 119 613 69 622 c 0
 46 626 36 633 36 642 c 0
 36 650 48 653 65 653 c 0xea
 138 653 168 650 237 650 c 2
 363 650 l 2xf2
 406 650 438 660 462 660 c 0
 469 660 479 658 480 651 c 0xe6
 483 628 485 564 485 550 c 0
 485 538 482 529 476 529 c 0
 469 529 463 534 461 541 c 0
 455 563 447 580 438 590 c 0
 419 611 396 617 371 617 c 2
 244 617 l 2
 213 617 211 593 210 567 c 0
 209 542 209 502 209 467 c 0
 209 433 209 396 210 372 c 0
 210 361 211 350 220 350 c 0
 262 350 312 353 336 353 c 0
 365 353 387 371 397 394 c 0
 399 399 410 411 415 411 c 0
 420 411 429 404 428 395 c 0
 426 372 425 356 425 340 c 0
 425 320 426 301 428 272 c 0
 428 263 427 255 419 255 c 0
 406 255 398 271 396 278 c 0
 386 309 365 318 349 318 c 0
 332 318 315 319 299 319 c 0
 276 319 255 319 234 317 c 0
 221 316 210 309 210 292 c 0
 210 231 210 167 213 101 c 0
 215 58 229 33 279 24 c 0
 302 20 312 15 312 6 c 0
 312 -2 300 -5 283 -5 c 0
 229 -5 223 2 185 2 c 0
 136 2 113 -5 59 -5 c 0xf2
EndSplineSet
EndChar

StartChar: G
Encoding: 71 71 40
Width: 729
GlyphClass: 2
Flags: MW
ItalicCorrection: 15
TopAccentHorizontal: 389
HStem: -14 37<339.5 444.5 339.5 455.5> 256 34<454.5 467> 625 38<326.5 436 313.5 451.5>
VStem: 45 99<229 403 229 410> 560 65
LayerCount: 2
Fore
SplineSet
392 -14 m 0
 207 -14 45 126 45 311 c 0
 45 509 214 663 413 663 c 0
 459 663 586 643 613 630 c 0
 619 627 621 625 622 618 c 0
 627 579 632 538 632 512 c 0
 632 502 625 492 617 492 c 0
 603 492 598 507 594 519 c 0
 586 540 579 553 563 572 c 0
 550 588 499 625 404 625 c 0
 249 625 144 482 144 324 c 0
 144 134 273 23 406 23 c 0
 483 23 516 48 528 60 c 0
 543 75 558 102 558 137 c 0
 558 154 560 177 560 195 c 0
 560 209 559 220 555 225 c 0
 538 247 477 256 457 256 c 0
 452 256 437 263 437 273 c 0
 437 283 452 290 457 290 c 0
 506 290 528 286 583 286 c 0
 618 286 636 290 672 290 c 0
 677 290 693 287 693 274 c 0
 693 265 677 257 672 256 c 0
 643 248 634 234 630 207 c 0
 626 178 625 157 625 132 c 2
 625 105 l 2
 625 98 628 95 631 89 c 0
 635 82 644 77 644 72 c 0
 644 67 644 55 630 53 c 0
 610 50 519 -14 392 -14 c 0
EndSplineSet
EndChar

StartChar: H
Encoding: 72 72 41
Width: 810
GlyphClass: 2
Flags: MW
ItalicCorrection: 8
TopAccentHorizontal: 404
HStem: -5 21G<57.5 93 266 301.5 521.5 557 714 749.5> 307 38<212.5 595 224 595 595 597> 633 20G<63 100 255 292 523 559 712 748.5>
VStem: 130 80<99 106 106 296 350 354 354 551> 602 80<97 100 100 292 292 295.5 357 552>
LayerCount: 2
Fore
SplineSet
66 -5 m 0
 49 -5 37 0 37 8 c 0
 37 17 46 20 69 24 c 0
 119 33 130 51 130 99 c 2
 130 551 l 2
 130 597 127 613 77 622 c 0
 54 626 44 631 44 640 c 0
 44 648 53 653 73 653 c 0
 127 653 136 650 176 650 c 0
 217 650 228 653 282 653 c 0
 302 653 311 648 311 640 c 0
 311 631 301 626 278 622 c 0
 228 613 210 590 210 551 c 2
 210 354 l 2
 210 346 218 345 224 345 c 2
 595 345 l 2
 600 345 602 348 602 357 c 2
 602 552 l 2
 602 588 586 613 536 622 c 0
 513 626 503 631 503 640 c 0
 503 648 514 653 532 653 c 0
 586 653 603 650 648 650 c 0
 684 650 685 653 739 653 c 0
 758 653 768 648 768 640 c 0
 768 631 758 626 735 622 c 0
 685 613 682 590 682 552 c 2
 682 100 l 2
 682 51 688 33 738 24 c 0
 761 20 770 17 770 8 c 0
 770 0 758 -5 741 -5 c 0
 687 -5 678 0 637 0 c 0
 595 0 584 -5 530 -5 c 0
 513 -5 501 0 501 8 c 0
 501 17 510 20 533 24 c 0
 575 32 602 54 602 97 c 2
 602 292 l 2
 602 299 603 307 597 307 c 2
 215 307 l 2
 210 307 210 304 210 296 c 2
 210 106 l 2
 210 64 244 32 290 24 c 0
 313 20 322 17 322 8 c 0
 322 0 310 -5 293 -5 c 0
 239 -5 222 0 176 0 c 0
 133 0 120 -5 66 -5 c 0
EndSplineSet
EndChar

StartChar: I
Encoding: 73 73 42
Width: 340
GlyphClass: 2
Flags: MW
ItalicCorrection: 10
TopAccentHorizontal: 176
HStem: -5 21G<39.5 75 266 301.5> 633 20G<50.5 86 258 293.5>
VStem: 130 80<98 550>
LayerCount: 2
Fore
SplineSet
48 -5 m 0
 31 -5 19 -2 19 6 c 0
 19 15 29 20 52 24 c 0
 102 33 130 51 130 98 c 2
 130 550 l 2
 130 597 113 613 63 622 c 0
 40 626 30 633 30 642 c 0
 30 650 42 653 59 653 c 0
 113 653 130 650 176 650 c 0
 219 650 231 653 285 653 c 0
 302 653 314 650 314 642 c 0
 314 633 304 626 281 622 c 0
 231 613 210 597 210 550 c 2
 210 98 l 2
 210 51 239 33 289 24 c 0
 312 20 322 15 322 6 c 0
 322 -2 310 -5 293 -5 c 0
 239 -5 222 0 176 0 c 0
 126 0 102 -5 48 -5 c 0
EndSplineSet
EndChar

StartChar: J
Encoding: 74 74 43
Width: 340
GlyphClass: 2
Flags: MW
ItalicCorrection: 9
TopAccentHorizontal: 178
HStem: -200 41<0 87.5> 633 20G<51.5 87 244 279.5>
VStem: 130 80<5 47 47 551>
LayerCount: 2
Fore
SplineSet
34 -200 m 0
 -34 -200 -69 -182 -69 -151 c 0
 -69 -128 -45 -104 -30 -104 c 0
 -13 -104 3 -111 17 -129 c 0
 34 -151 47 -159 64 -159 c 0
 111 -159 130 -98 130 -1 c 2
 130 551 l 2
 130 597 112 613 64 622 c 0
 42 626 31 633 31 642 c 0
 31 650 43 653 60 653 c 0
 114 653 131 650 177 650 c 0
 214 650 217 653 271 653 c 0
 288 653 300 650 300 642 c 0
 300 633 290 626 267 622 c 0
 217 613 210 597 210 551 c 2
 210 47 l 2
 210 -37 163 -108 131 -146 c 0
 104 -178 73 -200 34 -200 c 0
EndSplineSet
EndChar

StartChar: K
Encoding: 75 75 44
Width: 681
GlyphClass: 2
Flags: MW
ItalicCorrection: 29
TopAccentHorizontal: 360
HStem: -5 21G<51.5 87 257 292.5 629.5 667.5> 0 21G<507.5 547.5> 323 22<213.5 217.5> 631 20G<150 191 437 491 491 519.5> 633 20G<51.5 87 242 277.5> 635 20G<646.5 659.5>
VStem: 131 80<270.5 305.5 361.5 364 364 551>
LayerCount: 2
Fore
SplineSet
60 -5 m 0xa6
 43 -5 31 -2 31 6 c 0
 31 15 41 20 64 24 c 0
 114 33 131 51 131 101 c 2
 131 551 l 2
 131 597 114 613 64 622 c 0
 41 626 31 633 31 642 c 0
 31 650 43 653 60 653 c 0
 114 653 128 651 172 651 c 0
 210 651 215 653 269 653 c 0
 286 653 298 650 298 642 c 0
 298 633 288 626 265 622 c 0xaa
 215 613 211 590 211 551 c 2
 211 364 l 2
 211 359 211 345 216 345 c 0
 223 345 236 355 243 363 c 2
 443 567 l 2
 453 577 458 588 458 597 c 0
 458 608 451 617 439 620 c 0
 416 626 408 631 408 640 c 0
 408 648 420 651 437 651 c 2
 491 651 l 2x72
 548 651 640 655 653 655 c 0
 666 655 675 651 675 644 c 0
 675 635 665 628 642 624 c 0
 592 615 536 597 490 558 c 0
 418 497 368 448 298 371 c 0
 293 366 296 360 303 353 c 2
 545 95 l 2
 588 47 598 36 655 24 c 0
 678 19 688 15 688 6 c 0
 688 -2 676 -5 659 -5 c 0xa6
 600 -5 575 0 520 0 c 0
 495 0 484 -1 439 -1 c 0
 422 -1 410 2 410 10 c 0
 410 19 418 23 437 27 c 0
 457 32 465 39 465 47 c 0
 465 55 458 63 450 72 c 2x66
 238 306 l 2
 230 314 220 323 215 323 c 0
 210 323 211 309 211 302 c 0
 211 239 213 190 216 110 c 0
 218 67 230 33 280 24 c 0
 303 20 313 15 313 6 c 0
 313 -2 301 -5 284 -5 c 0
 230 -5 224 2 186 2 c 0
 137 2 114 -5 60 -5 c 0xa6
EndSplineSet
EndChar

StartChar: L
Encoding: 76 76 45
Width: 584
GlyphClass: 2
Flags: MW
ItalicCorrection: 15
TopAccentHorizontal: 175
HStem: -5 40 633 20G<56.5 92 276 311.5>
VStem: 130 80<96 560 560 567>
LayerCount: 2
Fore
SplineSet
55 -5 m 2
 37 -5 27 0 27 7 c 0
 27 19 45 23 49 24 c 0
 101 34 130 52 130 96 c 2
 130 560 l 2
 130 608 119 613 69 622 c 0
 46 626 36 633 36 642 c 0
 36 650 48 653 65 653 c 0
 119 653 133 650 177 650 c 0
 226 650 249 653 303 653 c 0
 320 653 332 650 332 642 c 0
 332 633 322 626 299 622 c 0
 249 613 210 606 210 567 c 2
 210 96 l 2
 210 55 221 35 287 35 c 2
 411 35 l 2
 447 35 476 49 489 61 c 0
 515 84 524 96 541 132 c 0
 544 140 554 162 563 162 c 0
 571 162 575 152 575 144 c 0
 575 142 574 140 574 139 c 0
 560 87 551 54 547 12 c 0
 546 3 543 -5 533 -5 c 0
 399 -5 290 0 190 0 c 0
 140 0 55 -5 55 -5 c 2
EndSplineSet
EndChar

StartChar: M
Encoding: 77 77 46
Width: 901
GlyphClass: 2
Flags: MW
TopAccentHorizontal: 442
HStem: -10.5 21G -5 21G<39.5 75 206 241.5 411 411 605.5 641 809 844.5> 476.25 178.75 635 20G<66 89> 636 20G<811.5 826>
VStem: 155 41 393 18<4.29497e+009 4.29497e+009> 669 66
LayerCount: 2
Fore
SplineSet
48 -5 m 0x4d
 31 -5 19 -2 19 6 c 0
 19 15 29 20 52 24 c 0
 85 30 107 55 114 102 c 0
 138 282 155 444 155 528 c 0
 155 538 155 551 154 561 c 0
 153 572 152 583 139 594 c 0
 115 614 94 618 64 624 c 0
 51 627 42 635 42 644 c 0
 42 654 56 655 76 655 c 0
 102 655 200 647 226 647 c 0
 235 647 242 641 245 631 c 0x55
 252 607 257 579 267 554 c 2
 425 153 l 2
 429 143 443 140 448 150 c 2
 645 560 l 1
 651 582 659 614 663 635 c 0
 665 643 668 648 673 648 c 2
 709 648 l 2
 749 648 800 656 823 656 c 0
 829 656 844 655 844 646 c 0
 844 637 838 633 818 625 c 0
 800 618 777 610 759 602 c 0
 745 596 735 583 735 568 c 0
 735 382 749 246 757 95 c 0
 759 54 782 33 832 24 c 0
 855 20 865 15 865 6 c 0
 865 -2 853 -5 836 -5 c 0
 782 -5 765 0 719 0 c 0
 678 0 668 -5 614 -5 c 0
 597 -5 585 -2 585 6 c 0
 585 15 595 21 618 24 c 0x4d
 657 29 669 49 669 96 c 0
 669 240 663 329 657 464 c 0
 655 478 648 477 641 464 c 2
 411 -5 l 2
 408 -12 396 -13 393 -4 c 0
 341 152 284 296 209 471 c 0
 206 478 197 478 196 471 c 0xa7
 177 330 164 238 164 102 c 0
 164 66 188 32 229 24 c 0
 252 20 262 15 262 6 c 0
 262 -2 250 -5 233 -5 c 0
 179 -5 176 0 139 0 c 0
 103 0 102 -5 48 -5 c 0x4d
EndSplineSet
EndChar

StartChar: N
Encoding: 78 78 47
Width: 792
GlyphClass: 2
Flags: MW
ItalicCorrection: 13
TopAccentHorizontal: 397
HStem: -5 21G<53.5 89 220 255.5> 630 20G<581 638 638 662> 633 20G<153 195 722.5 761.5> 638 20G<31.5 35>
VStem: 142 42<479 483 479 542.5> 643 41
LayerCount: 2
Fore
SplineSet
668 -17 m 0x9c
 656 -17 614 2 582 46 c 0
 564 71 237 456 214 484 c 0
 204 496 198 500 193 500 c 0
 186 500 184 487 184 479 c 0
 182 380 179 227 179 104 c 0
 179 68 193 33 243 24 c 0
 266 20 276 15 276 6 c 0
 276 -2 264 -5 247 -5 c 0
 193 -5 190 0 153 0 c 0
 117 0 116 -5 62 -5 c 0
 45 -5 33 -2 33 6 c 0
 33 15 43 19 66 25 c 0
 104 35 120 66 124 107 c 0
 132 182 142 342 142 507 c 0
 142 578 102 601 43 620 c 0
 37 622 12 632 12 644 c 0
 12 656 28 658 35 658 c 0x9c
 113 656 117 653 189 653 c 0
 201 653 206 645 213 636 c 0xac
 232 609 586 180 606 156 c 0
 611 150 623 136 631 136 c 0
 636 136 640 142 641 157 c 0
 642 195 643 381 643 564 c 0
 642 590 607 615 585 619 c 0
 562 623 540 630 540 639 c 0
 540 647 564 650 581 650 c 2
 638 650 l 2xcc
 686 650 692 653 753 653 c 0
 770 653 782 650 782 642 c 0
 782 633 772 626 749 622 c 0
 699 613 688 601 686 568 c 0xac
 685 550 684 263 684 105 c 0
 684 57 689 21 689 8 c 0
 689 -13 678 -17 668 -17 c 0x9c
EndSplineSet
EndChar

StartChar: O
Encoding: 79 79 48
Width: 763
GlyphClass: 2
Flags: MW
TopAccentHorizontal: 382
HStem: -14 40<308.5 468.5 308.5 488> 622 42<294.5 453.5>
VStem: 45 96<272 405> 622 96<245 378.5>
LayerCount: 2
Fore
SplineSet
377 -14 m 0
 201 -14 45 118 45 315 c 0
 45 495 164 664 386 664 c 0
 562 664 718 532 718 335 c 0
 718 155 599 -14 377 -14 c 0
392 26 m 0
 545 26 622 129 622 286 c 0
 622 471 537 622 370 622 c 0
 219 622 141 521 141 365 c 0
 141 179 225 26 392 26 c 0
EndSplineSet
EndChar

StartChar: P
Encoding: 80 80 49
Width: 552
GlyphClass: 2
Flags: MW
ItalicCorrection: 14
TopAccentHorizontal: 276
HStem: -5 21G<44.5 80 254 289.5> 254 31<306.5 360 306.5 379.5> 630 28<260 322.5> 633 20G<56.5 92>
VStem: 130 80<100 111 111 522 522 552> 441 86<418.5 526>
LayerCount: 2
Fore
SplineSet
53 -5 m 0xec
 36 -5 24 -2 24 6 c 0
 24 15 34 20 57 24 c 0
 107 33 130 51 130 100 c 2
 130 522 l 2
 130 582 119 613 69 622 c 0
 46 626 36 633 36 642 c 0
 36 650 48 653 65 653 c 0xdc
 119 653 122 652 163 652 c 0
 203 652 246 658 274 658 c 0
 426 658 527 592 527 480 c 0
 527 357 456 254 303 254 c 0
 274 254 258 265 258 273 c 0
 258 278 267 287 274 287 c 0
 280 287 293 285 320 285 c 0
 400 285 441 355 441 473 c 0
 441 579 371 630 274 630 c 0
 236 630 210 618 210 588 c 2
 210 111 l 2
 210 63 227 33 277 24 c 0
 300 20 310 15 310 6 c 0
 310 -2 298 -5 281 -5 c 0
 227 -5 221 2 183 2 c 0
 132 2 107 -5 53 -5 c 0xec
EndSplineSet
EndChar

StartChar: Q
Encoding: 81 81 50
Width: 763
GlyphClass: 2
Flags: MW
ItalicCorrection: 7
TopAccentHorizontal: 372
HStem: -248 56<754 762.5> 622 42<294.5 453.5>
VStem: 45 96<272 405> 622 96<259 378.5>
LayerCount: 2
Fore
SplineSet
744 -248 m 0
 648 -248 587 -219 523 -173 c 0
 471 -136 430 -108 365 -54 c 0
 318 -15 278 -3 250 10 c 0
 141 61 45 151 45 315 c 0
 45 495 164 664 386 664 c 0
 562 664 718 532 718 335 c 0
 718 183 634 40 475 -2 c 0
 468 -4 467 -7 467 -9 c 0
 467 -12 468 -15 471 -18 c 0
 510 -60 548 -93 598 -129 c 0
 665 -177 715 -192 793 -192 c 0
 817 -192 840 -189 849 -185 c 0
 855 -183 862 -181 868 -181 c 0
 874 -181 879 -183 879 -189 c 0
 879 -201 876 -206 861 -215 c 0
 823 -238 781 -248 744 -248 c 0
392 26 m 0
 545 26 622 129 622 286 c 0
 622 471 537 622 370 622 c 0
 219 622 141 521 141 365 c 0
 141 179 225 26 392 26 c 0
EndSplineSet
EndChar

StartChar: R
Encoding: 82 82 51
Width: 713
GlyphClass: 2
Flags: MW
ItalicCorrection: 20
TopAccentHorizontal: 237
HStem: -21 46<608.5 708> -5 21G<44.5 80 254 289.5> 306 23 627 30<249 329> 633 20G<56.5 92>
VStem: 130 80<100 110 110 286 347.5 404> 413 90<448 517.5>
LayerCount: 2
Fore
SplineSet
637 -21 m 0xb6
 580 -21 534 -10 499 33 c 0xb6
 450 93 416 134 347 246 c 0
 336 264 324 275 304 285 c 0
 275 299 243 304 225 306 c 0
 214 307 210 298 210 286 c 2
 210 110 l 2
 210 67 227 33 277 24 c 0
 300 20 310 15 310 6 c 0
 310 -2 298 -5 281 -5 c 0
 227 -5 221 2 183 2 c 0
 132 2 107 -5 53 -5 c 0
 36 -5 24 -2 24 6 c 0
 24 15 34 20 57 24 c 0
 107 33 130 51 130 100 c 2
 130 526 l 2
 130 602 126 616 69 622 c 0
 46 624 36 633 36 642 c 0
 36 650 48 653 65 653 c 0x6e
 119 653 122 652 163 652 c 0
 201 652 220 657 278 657 c 0
 424 657 503 602 503 493 c 0
 503 403 440 353 385 325 c 0
 380 323 381 318 385 312 c 0
 447 218 494 143 588 58 c 0
 623 27 656 25 703 25 c 0
 713 25 718 22 718 14 c 0
 718 -15 662 -21 637 -21 c 0xb6
263 329 m 0x76
 355 329 413 400 413 477 c 0
 413 558 392 627 266 627 c 0
 223 627 215 603 212 534 c 0
 211 500 210 444 210 364 c 0
 210 331 230 329 263 329 c 0x76
EndSplineSet
EndChar

StartChar: S
Encoding: 83 83 52
Width: 465
GlyphClass: 2
Flags: MW
TopAccentHorizontal: 245
HStem: -16 33<189.5 252.5 189.5 269.5> 630 34<222 280.5>
VStem: 60 77<486 532.5> 338 84<120.5 180>
LayerCount: 2
Fore
SplineSet
204 -16 m 0
 148 -16 100 1 63 32 c 0
 58 37 52 44 50 52 c 0
 43 79 42 129 40 157 c 0
 40 166 49 171 60 171 c 0
 67 171 74 168 76 160 c 0
 102 57 161 17 218 17 c 0
 287 17 338 65 338 139 c 0
 338 221 296 247 225 291 c 0
 147 340 60 385 60 482 c 0
 60 583 128 664 269 664 c 0
 317 664 352 651 374 642 c 0
 384 638 392 627 395 617 c 0
 403 589 415 550 415 518 c 0
 415 510 408 507 400 507 c 0
 388 507 375 513 372 521 c 0
 344 591 309 630 252 630 c 0
 192 630 137 600 137 516 c 0
 137 456 202 416 277 370 c 0
 347 327 422 280 422 180 c 0
 422 61 335 -16 204 -16 c 0
EndSplineSet
EndChar

StartChar: T
Encoding: 84 84 53
Width: 670
GlyphClass: 2
Flags: MW
ItalicCorrection: 10
TopAccentHorizontal: 348
HStem: -5 21G<205.5 241 432 467.5> 610 32<141 527 175 204 403.5 426 426 527> 674 20G<77.5 82.5>
VStem: 296 80<102 490 490 495>
LayerCount: 2
Fore
SplineSet
214 -5 m 0
 197 -5 185 -2 185 6 c 0
 185 15 195 20 218 24 c 0
 268 33 296 54 296 102 c 2
 296 490 l 2
 296 581 291 603 275 606 c 0
 256 610 238 610 204 610 c 2
 157 610 l 2
 125 610 89 597 75 571 c 0
 69 560 49 533 34 533 c 0
 29 533 27 539 27 546 c 0
 27 552 29 560 32 566 c 0
 51 604 57 629 63 671 c 0
 66 693 75 694 80 694 c 0
 85 694 99 673 105 662 c 0
 113 648 147 642 175 642 c 2
 527 642 l 2
 573 642 600 647 622 657 c 0
 638 665 645 677 661 677 c 0
 665 677 668 664 668 654 c 0
 668 647 665 632 664 626 c 0
 658 589 654 593 654 567 c 2
 654 555 l 2
 654 543 648 523 638 523 c 0
 628 523 624 538 619 564 c 0
 614 592 591 610 527 610 c 2
 426 610 l 2
 381 610 376 605 376 495 c 2
 376 102 l 2
 376 54 405 33 455 24 c 0
 478 20 488 15 488 6 c 0
 488 -2 476 -5 459 -5 c 0
 405 -5 388 0 342 0 c 0
 292 0 268 -5 214 -5 c 0
EndSplineSet
EndChar

StartChar: U
Encoding: 85 85 54
Width: 738
GlyphClass: 2
Flags: MW
ItalicCorrection: 11
TopAccentHorizontal: 376
HStem: -14 50<332 445.5> 633 20G<44.5 68 687.5 707.5>
VStem: 103 80<240 268 268 547 547 549>
LayerCount: 2
Fore
SplineSet
372 -14 m 0
 193 -14 103 87 103 240 c 2
 103 547 l 2
 103 595 79 614 57 620 c 0
 34 626 24 633 24 642 c 0
 24 650 36 653 53 653 c 0
 83 653 112 650 149 650 c 0
 180 650 208 652 229 652 c 0
 246 652 258 649 258 641 c 0
 258 632 247 628 225 621 c 0
 209 616 183 589 183 549 c 2
 183 268 l 2
 183 108 271 36 393 36 c 0
 530 36 592 140 592 296 c 0
 592 340 590 434 588 511 c 0
 587 562 575 612 547 620 c 0
 533 624 514 631 514 640 c 0
 514 648 526 651 543 651 c 0
 573 651 589 650 618 650 c 0
 650 650 676 653 699 653 c 0
 716 653 728 650 728 642 c 0
 728 633 718 627 695 622 c 0
 660 615 647 587 645 547 c 0
 638 432 638 342 635 250 c 0
 630 95 519 -14 372 -14 c 0
EndSplineSet
EndChar

StartChar: V
Encoding: 86 86 55
Width: 672
GlyphClass: 2
Flags: MW
ItalicCorrection: 3
TopAccentHorizontal: 339
HStem: -12 21G<316 320> 633 20G<20.5 44.5 636 657.5>
VStem: 0 678<637.5 646>
LayerCount: 2
Fore
SplineSet
318 -12 m 0
 314 -12 309 -10 307 -5 c 0
 301 9 292 38 286 56 c 2
 103 547 l 2
 89 584 67 610 33 620 c 0
 11 627 0 633 0 642 c 0
 0 650 12 653 29 653 c 0
 60 653 105 650 151 650 c 0
 191 650 233 652 253 652 c 0
 270 652 282 649 282 641 c 0
 282 632 272 623 249 621 c 0
 211 617 184 605 184 582 c 0
 184 559 192 542 195 533 c 2
 339 153 l 2
 341 148 346 145 350 154 c 2
 487 514 l 2
 514 585 483 614 440 620 c 0
 420 623 407 631 407 640 c 0
 407 648 419 651 436 651 c 0
 462 651 497 650 535 650 c 0
 574 650 623 653 649 653 c 0
 666 653 678 650 678 642 c 0
 678 633 668 627 645 622 c 0
 596 611 562 571 547 535 c 2
 359 79 l 2
 355 69 339 19 328 -5 c 0
 326 -9 322 -12 318 -12 c 0
EndSplineSet
EndChar

StartChar: W
Encoding: 87 87 56
Width: 916
GlyphClass: 2
Flags: MW
ItalicCorrection: 16
TopAccentHorizontal: 465
HStem: -12 21G<619.5 625.5> 545 107<195 219.5> 633 20G<20.5 44.5 285.5 309.5 650 670.5 888.5 909.5>
VStem: 0 930<637.5 646>
LayerCount: 2
Fore
SplineSet
335 -16 m 0xb0
 332 -16 326 -1 321 12 c 2
 105 554 l 2
 89 588 67 610 33 620 c 0
 11 627 0 633 0 642 c 0
 0 650 12 653 29 653 c 0
 60 653 84 650 118 650 c 0
 155 650 191 652 211 652 c 0
 228 652 240 649 240 641 c 0
 240 632 230 627 207 621 c 0xb0
 191 617 187 603 187 588 c 0
 187 567 195 545 195 545 c 1xd0
 256 389 292 303 359 152 c 0
 366 137 370 140 374 151 c 2
 452 344 l 2
 456 354 458 361 458 367 c 0
 458 375 455 383 450 396 c 2
 393 538 l 2
 376 581 332 610 298 620 c 0
 276 627 265 633 265 642 c 0
 265 650 277 653 294 653 c 0
 325 653 352 650 388 650 c 0
 418 650 445 652 465 652 c 0
 482 652 494 649 494 641 c 0
 494 624 453 622 453 599 c 0
 453 596 454 594 455 591 c 0
 459 579 491 497 500 478 c 0
 507 462 510 460 518 478 c 0
 534 514 553 574 558 591 c 0
 559 594 559 596 559 598 c 0
 559 622 522 624 522 641 c 0
 522 649 534 652 551 652 c 0
 580 652 584 650 603 650 c 0
 626 650 638 653 662 653 c 0
 679 653 691 650 691 642 c 0
 691 633 681 627 658 622 c 0
 615 612 607 602 590 574 c 0
 579 555 553 494 537 451 c 0
 533 441 528 420 531 413 c 2
 634 148 l 2
 637 141 641 145 645 154 c 0
 678 242 722 388 767 541 c 0
 771 553 773 566 773 577 c 0
 773 597 765 614 743 620 c 0
 729 624 710 631 710 640 c 0
 710 648 722 651 739 651 c 0
 765 651 785 650 811 650 c 0
 844 650 876 653 901 653 c 0
 918 653 930 650 930 642 c 0
 930 633 920 627 897 622 c 0
 848 611 826 563 815 534 c 2
 638 11 l 2
 636 5 629 -12 622 -12 c 0
 617 -12 609 -2 605 7 c 0
 552 126 529 199 482 316 c 0
 478 325 476 323 471 310 c 0
 423 197 399 133 357 15 c 0
 352 1 343 -16 335 -16 c 0xb0
EndSplineSet
EndChar

StartChar: X
Encoding: 88 88 57
Width: 707
GlyphClass: 2
Flags: MW
ItalicCorrection: 10
TopAccentHorizontal: 347
HStem: -5 21G<15.5 40.5 656 678.5> -1 21G<230 247.5> 0 21G<415.5 436> 273.13 111.87 631 20G<463.5 484> 632 20G<280 297.5> 635 20G<38.5 63.5> 636 20G<653.5 675.5>
VStem: 311.45 89.25
LayerCount: 2
Fore
SplineSet
24 -5 m 0x9180
 7 -5 -5 -2 -5 6 c 0
 -5 15 6 21 28 28 c 0
 62 38 129 72 171 124 c 2
 296 280 l 2
 310 299 320 314 301 341 c 2
 167 529 l 2
 117 599 85 612 51 622 c 0
 29 629 18 635 18 644 c 0
 18 652 30 655 47 655 c 0x9280
 80 655 140 650 190 650 c 0
 230 650 271 652 289 652 c 0
 306 652 318 649 318 641 c 0
 318 632 308 628 285 621 c 0
 252 611 234 606 234 590 c 0x3480
 234 578 244 560 267 528 c 2
 358 400 l 2
 372 379 377 382 388 397 c 2
 495 538 l 2
 511 558 521 576 521 589 c 0
 521 604 508 614 476 620 c 0
 462 623 443 631 443 640 c 0
 443 648 455 651 472 651 c 0x3880
 496 651 523 650 553 650 c 0
 592 650 640 656 667 656 c 0
 684 656 696 653 696 645 c 0
 696 636 686 631 663 625 c 0
 625 615 577 562 533 510 c 2
 418 374 l 2
 400 353 397 349 404 334 c 2
 559 111 l 2
 589 67 628 36 666 26 c 0
 689 20 699 15 699 6 c 0
 699 -2 687 -5 670 -5 c 0x9180
 642 -5 574 1 527 1 c 0
 486 1 448 0 424 0 c 0
 407 0 395 3 395 11 c 0
 395 20 414 27 428 31 c 0
 448 37 472 53 472 78 c 0x3180
 472 88 469 99 460 111 c 2
 356 262 l 2
 346 276 341 276 334 267 c 2
 199 93 l 2
 193 85 190 77 190 70 c 0
 190 51 208 36 235 30 c 0
 258 24 268 19 268 10 c 0
 268 2 256 -1 239 -1 c 0x5180
 221 -1 186 1 150 1 c 0
 105 1 57 -5 24 -5 c 0x9180
EndSplineSet
EndChar

StartChar: Y
Encoding: 89 89 58
Width: 578
GlyphClass: 2
Flags: MW
ItalicCorrection: 9
TopAccentHorizontal: 310
HStem: -5 21G<173.5 209 400 435.5> 633 20G<20.5 44 580.5 600.5>
VStem: 264 80<108 256 256 260>
LayerCount: 2
Fore
SplineSet
182 -5 m 0
 165 -5 153 -2 153 6 c 0
 153 15 163 20 186 24 c 0
 236 33 264 60 264 108 c 2
 264 256 l 2
 264 283 244 321 239 330 c 2
 122 522 l 2
 107 546 67 610 33 620 c 0
 11 627 0 633 0 642 c 0
 0 650 12 653 29 653 c 0
 59 653 100 650 146 650 c 0
 177 650 205 652 226 652 c 0
 243 652 255 649 255 641 c 0
 255 632 244 626 222 621 c 0
 203 616 190 611 190 596 c 0
 190 588 194 576 203 560 c 2
 295 390 l 2
 309 364 317 352 323 352 c 0
 331 352 338 362 356 390 c 0
 386 437 406 474 440 534 c 0
 453 556 458 573 458 585 c 0
 458 610 436 617 417 620 c 0
 403 622 384 631 384 640 c 0
 384 648 396 651 413 651 c 0
 443 651 459 650 488 650 c 0
 529 650 569 653 592 653 c 0
 609 653 621 650 621 642 c 0
 621 633 596 625 568 617 c 0
 533 607 516 581 480 526 c 0
 426 443 415 425 369 350 c 0
 343 307 344 299 344 260 c 2
 344 108 l 2
 344 63 373 33 423 24 c 0
 446 20 456 15 456 6 c 0
 456 -2 444 -5 427 -5 c 0
 373 -5 356 0 310 0 c 0
 260 0 236 -5 182 -5 c 0
EndSplineSet
EndChar

StartChar: Z
Encoding: 90 90 59
Width: 603
GlyphClass: 2
Flags: MW
ItalicCorrection: 14
TopAccentHorizontal: 308
HStem: -5 46 -2 43 609 37
VStem: 28 560<11 162.5>
LayerCount: 2
Fore
SplineSet
533 -5 m 0xb0
 419 -5 320 -2 231 -2 c 0x70
 191 -2 150 -3 112 -3 c 2
 35 -3 l 2
 29 -3 28 11 28 11 c 1
 28 21 63 73 86 104 c 0
 222 290 306 401 434 593 c 0
 436 596 438 598 438 601 c 0
 438 605 434 608 419 609 c 0
 383 610 326 611 273 611 c 0
 234 611 196 611 171 609 c 0
 139 606 91 584 73 535 c 0
 68 523 60 503 45 503 c 0
 39 503 36 508 36 514 c 0
 36 522 40 533 43 541 c 0
 50 562 67 617 70 659 c 0
 71 674 80 676 85 676 c 0
 90 676 105 667 116 662 c 0
 129 656 168 646 202 646 c 2
 328 646 l 2
 411 646 485 647 559 649 c 0
 565 649 574 636 570 631 c 2
 509 550 l 2
 371 364 295 262 171 70 c 0
 169 67 168 62 168 58 c 0
 168 50 172 42 179 41 c 0
 208 38 248 36 292 36 c 0
 337 36 386 38 433 41 c 0
 492 46 531 81 557 150 c 0
 560 158 569 171 579 171 c 0
 585 171 588 167 588 158 c 0
 588 147 562 36 551 12 c 0
 547 4 543 -5 533 -5 c 0xb0
EndSplineSet
EndChar

StartChar: bracketleft
Encoding: 91 91 60
Width: 331
GlyphClass: 2
Flags: MW
GlyphVariantsVertical: bracketleft bracketleft.v1 bracketleft.v2 bracketleft.v3 bracketleft.v4 bracketleft.v5 bracketleft.v6
GlyphCompositionVertical: 3  uni23A3%0,0,405,1216 uni23A2%1,810,810,810 uni23A1%0,405,0,1216
HStem: -203 33<141 285> 670 28<285 297.5>
VStem: 110 73<-133 -124 -124 639>
LayerCount: 2
Fore
SplineSet
141 -203 m 2
 118 -203 110 -202 110 -178 c 2
 110 665 l 2
 110 699 116 699 148 699 c 2
 293 698 l 2
 302 698 311 695 311 685 c 0
 311 675 298 671 285 670 c 2
 206 664 l 2
 197 663 183 650 183 639 c 2
 183 -124 l 2
 183 -142 194 -155 206 -157 c 2
 285 -170 l 2
 298 -172 311 -176 311 -188 c 0
 311 -200 297 -203 285 -203 c 2
 141 -203 l 2
EndSplineSet
EndChar

StartChar: backslash
Encoding: 92 92 61
Width: 399
GlyphClass: 2
Flags: MW
GlyphVariantsVertical: backslash backslash.v1 backslash.v2 backslash.v3 backslash.v4 backslash.v5 backslash.v6
HStem: -62 727<35.5 368.5>
VStem: 27.51 351.5
LayerCount: 2
Fore
SplineSet
362 -62 m 0
 347 -62 332 -61 326 -47 c 2
 29 648 l 2
 25 657 29 665 42 665 c 0
 59 665 74 663 81 648 c 2
 378 -47 l 2
 382 -55 375 -62 362 -62 c 0
EndSplineSet
EndChar

StartChar: bracketright
Encoding: 93 93 62
Width: 331
GlyphClass: 2
Flags: MW
GlyphVariantsVertical: bracketright bracketright.v1 bracketright.v2 bracketright.v3 bracketright.v4 bracketright.v5 bracketright.v6
GlyphCompositionVertical: 3  uni23A6%0,0,405,1216 uni23A5%1,810,810,810 uni23A4%0,405,0,1216
HStem: -203 33<40 46 46 190> 670 28<33.5 46>
VStem: 148 73<-124 639 639 644.5>
LayerCount: 2
Fore
SplineSet
190 -203 m 2
 46 -203 l 2
 34 -203 20 -200 20 -188 c 0
 20 -176 33 -172 46 -170 c 2
 125 -157 l 2
 137 -155 148 -142 148 -124 c 2
 148 639 l 2
 148 650 134 663 125 664 c 2
 46 670 l 2
 33 671 20 675 20 685 c 0
 20 695 29 698 38 698 c 2
 183 699 l 2
 215 699 221 699 221 665 c 2
 221 -178 l 2
 221 -202 213 -203 190 -203 c 2
EndSplineSet
EndChar

StartChar: asciicircum
Encoding: 94 94 63
Width: 500
GlyphClass: 2
Flags: MW
ItalicCorrection: 5
HStem: 284 319<54.5 251 248 447.5>
VStem: 48 403.43
LayerCount: 2
Fore
SplineSet
57 284 m 0
 52 284 48 289 48 295 c 0
 48 298 49 302 51 305 c 2
 248 603 l 1
 251 603 l 1
 449 305 l 2
 454 297 452 284 443 284 c 0
 428 284 408 293 402 302 c 2
 254 514 l 2
 249 520 248 520 244 514 c 2
 98 303 l 2
 90 291 69 284 57 284 c 0
EndSplineSet
EndChar

StartChar: underscore
Encoding: 95 95 64
Width: 500
GlyphClass: 2
Flags: MW
ItalicCorrection: 28
HStem: -182 50<10.5 487 24 469>
VStem: 0 501<-173 -140>
LayerCount: 2
Fore
SplineSet
487 -132 m 2
 493 -132 501 -137 501 -143 c 0
 501 -157 485 -182 469 -182 c 2
 14 -182 l 2
 7 -182 0 -176 0 -170 c 0
 0 -161 6 -132 24 -132 c 2
 487 -132 l 2
EndSplineSet
EndChar

StartChar: grave
Encoding: 96 96 65
Width: 200
GlyphClass: 2
Flags: MW
TopAccentHorizontal: 128
HStem: 457 192<58.5 173.5>
VStem: 22 157<462.5 635>
LayerCount: 2
Fore
SplineSet
171 457 m 0
 164 457 154 464 140 478 c 0
 114 504 56 572 32 607 c 0
 26 616 22 620 22 628 c 0
 22 642 46 649 71 649 c 0
 81 649 92 641 98 631 c 0
 114 604 161 521 175 484 c 0
 178 476 179 470 179 466 c 0
 179 459 176 457 171 457 c 0
EndSplineSet
EndChar

StartChar: a
Encoding: 97 97 66
Width: 399
GlyphClass: 2
Flags: MW
ItalicCorrection: 26
TopAccentHorizontal: 218
HStem: -14 48<99 177> -14 52 365 49<171 253>
VStem: 37 78<69.5 93> 40 76<271.5 324> 239 69.5
LayerCount: 2
Fore
SplineSet
117 -14 m 0xb4
 81 -14 37 35 37 72 c 0
 37 114 59 135 108 155 c 2xb4
 210 197 l 2
 236 208 237 210 238 237 c 2
 240 301 l 2
 241 336 219 365 181 365 c 0
 161 365 139 358 126 347 c 0
 118 341 116 330 116 318 c 2
 117 300 l 2
 117 290 71 265 51 265 c 0
 44 265 40 269 40 274 c 0
 40 295 55 321 80 343 c 0
 125 384 189 414 229 414 c 0
 277 414 312 376 311 325 c 2
 306 85 l 2
 305 57 320 38 342 38 c 0
 359 38 370 41 379 49 c 0
 383 53 385 54 387 54 c 0
 393 54 398 49 398 43 c 0x6c
 398 37 393 27 387 21 c 0
 366 0 339 -14 318 -14 c 0
 287 -14 263 3 245 38 c 1
 242 38 l 1
 198 2 160 -14 117 -14 c 0xb4
164 34 m 0
 190 34 208 43 223 58 c 0
 230 65 235 74 236 99 c 2
 238 148 l 2
 239 163 237 169 229 169 c 0
 226 169 220 168 209 164 c 0
 138 138 115 110 115 87 c 0
 115 52 140 34 164 34 c 0
EndSplineSet
EndChar

StartChar: b
Encoding: 98 98 67
Width: 515
GlyphClass: 2
Flags: MW
TopAccentHorizontal: 114
HStem: -14 31<247 320 247 324.5> -3 20 372 42<278 314.5> 685 20G<141 143.5>
VStem: 75 70<97 132 132 326 375 388 388 566 566 583.5> 405 75<148.5 233.5>
LayerCount: 2
Fore
SplineSet
259 -14 m 0xbc
 230 -14 199 -8 173 -1 c 0
 144 7 120 15 113 15 c 0xbc
 105 15 97 8 91 2 c 0
 88 -1 85 -3 82 -3 c 0
 76 -3 68 2 68 9 c 0
 68 21 75 56 75 81 c 2x7c
 75 566 l 2
 75 601 56 627 29 639 c 0
 23 642 16 646 16 654 c 0
 16 661 23 663 28 664 c 0
 54 669 120 696 133 702 c 0
 137 704 140 705 142 705 c 0
 145 705 148 702 148 698 c 0
 148 693 145 649 145 593 c 2
 145 388 l 2
 145 362 147 356 154 355 c 1
 195 389 256 414 300 414 c 0
 401 414 480 328 480 217 c 0
 480 80 390 -14 259 -14 c 0xbc
282 17 m 0
 358 17 405 94 405 195 c 0
 405 272 362 372 267 372 c 0
 214 372 174 353 145 326 c 1
 145 132 l 2
 145 62 212 17 282 17 c 0
EndSplineSet
EndChar

StartChar: c
Encoding: 99 99 68
Width: 407
GlyphClass: 2
Flags: MW
TopAccentHorizontal: 204
HStem: -15 60<213.5 243.5> 377 37<187.5 226>
VStem: 35 69<165 245>
LayerCount: 2
Fore
SplineSet
213 -15 m 0
 112 -15 35 69 35 180 c 0
 35 310 129 414 246 414 c 0
 289 414 328 402 360 379 c 0
 368 373 372 367 372 360 c 0
 372 343 346 319 329 319 c 0
 322 319 316 324 308 330 c 0
 279 352 238 377 214 377 c 0
 149 377 104 310 104 212 c 0
 104 118 171 45 256 45 c 0
 295 45 319 56 351 88 c 0
 354 91 358 93 361 93 c 0
 367 93 372 87 372 79 c 0
 372 71 367 61 357 48 c 0
 325 7 274 -15 213 -15 c 0
EndSplineSet
EndChar

StartChar: d
Encoding: 100 100 69
Width: 506
GlyphClass: 2
Flags: MW
ItalicCorrection: 19
TopAccentHorizontal: 382
HStem: -14 52<234 253> 21 24 379 35<206 266> 380 20G<343.5 346.5> 684 20G<420.5 424>
VStem: 35 71<139.5 248> 352 70<267 294 424 562>
LayerCount: 2
Fore
SplineSet
357 -19 m 0x5e
 354 -19 346 -12 346 -9 c 0x6e
 346 4 351 34 351 51 c 2
 351 57 l 1
 331 26 286 -14 220 -14 c 0
 106 -14 35 89 35 190 c 0
 35 306 120 414 260 414 c 0xae
 287 414 317 408 332 403 c 0
 338 401 342 400 345 400 c 0
 348 400 352 406 352 424 c 2
 352 566 l 2
 352 620 334 633 302 639 c 0
 296 640 293 646 293 652 c 0
 293 657 295 662 301 664 c 0
 360 679 390 693 409 701 c 0
 414 703 419 704 422 704 c 0
 426 704 428 702 429 698 c 0
 429 686 422 652 422 562 c 2
 422 110 l 2
 422 64 428 45 443 45 c 0
 450 45 469 46 486 48 c 0
 499 49 504 47 504 39 c 0
 504 30 497 21 490 21 c 0
 453 16 420 7 373 -13 c 0
 362 -19 361 -19 357 -19 c 0x5e
256 38 m 0xae
 291 38 326 58 351 87 c 1
 352 267 l 2
 352 321 303 379 229 379 c 0
 183 379 106 346 106 213 c 0
 106 62 212 38 256 38 c 0xae
EndSplineSet
EndChar

StartChar: e
Encoding: 101 101 70
Width: 390
GlyphClass: 2
Flags: MW
ItalicCorrection: 8
TopAccentHorizontal: 198
HStem: -15 61<205.5 239.5> 257 31<109.5 212 121 212 212 228 121 330> 385 29<185 231.5>
VStem: 30 64<172 234.5 172 260.5> 294 66<308 325 277.5 334>
LayerCount: 2
Fore
SplineSet
213 -15 m 0
 103 -15 30 72 30 203 c 0
 30 318 118 414 223 414 c 0
 303 414 360 362 360 288 c 0
 360 267 351 257 330 257 c 2
 119 257 l 2
 100 257 94 249 94 220 c 0
 94 124 163 46 248 46 c 0
 288 46 321 62 346 91 c 0
 351 98 353 99 357 99 c 0
 362 99 365 95 365 89 c 0
 365 76 359 62 347 47 c 0
 317 8 266 -15 213 -15 c 0
121 288 m 2
 212 288 l 2
 244 288 264 289 286 293 c 0
 292 294 294 301 294 315 c 0
 294 353 255 385 208 385 c 0
 162 385 109 338 109 298 c 0
 109 291 113 288 121 288 c 2
EndSplineSet
EndChar

StartChar: f
Encoding: 102 102 71
Width: 318
GlyphClass: 2
Flags: MW
ItalicCorrection: 78
TopAccentHorizontal: 222
HStem: -3 21G<37.5 64 209 235.5> 352 48<171 179 179 294> 386 20G<90 90> 665 41<266.5 290>
VStem: 90 70<68 339 406 410 410 498>
LayerCount: 2
Fore
SplineSet
44 -3 m 0xd8
 31 -3 24 0 24 8 c 0
 24 18 33 21 47 24 c 0
 78 31 90 41 90 68 c 2
 90 350 l 1
 77 350 59 350 38 352 c 0
 34 353 24 363 24 370 c 0
 24 373 29 375 31 376 c 2xd8
 90 406 l 1xb8
 90 637 223 706 310 706 c 0
 384 706 420 681 420 646 c 0
 420 619 404 606 386 606 c 0
 374 606 365 617 352 629 c 0
 335 646 312 665 268 665 c 0
 205 665 160 611 160 498 c 2
 160 410 l 2
 160 402 165 400 171 400 c 2
 296 400 l 2
 303 400 309 395 309 389 c 0
 309 380 307 368 303 360 c 0
 301 355 297 352 294 352 c 2
 179 352 l 2
 163 352 160 347 160 339 c 2
 160 68 l 2
 160 41 172 30 226 24 c 0
 240 22 249 18 249 8 c 0
 249 0 242 -3 229 -3 c 0
 189 -3 162 2 127 2 c 0
 92 2 84 -3 44 -3 c 0xd8
EndSplineSet
EndChar

StartChar: g
Encoding: 103 103 72
Width: 435
GlyphClass: 2
Flags: MW
TopAccentHorizontal: 206
HStem: -290 40<174.5 229 174.5 249> 106 35<192 232 181 244> 349 36<363 396 363 423> 386 30<176.5 224.5>
VStem: 11 75<-181.5 -152.5> 39 72<235 300.5 235 304.5> 40 66<25 80> 295 65<244 304 244 304> 357 61<-128.5 -87>
LayerCount: 2
Fore
SplineSet
428 388 m 0xe5
 435 388 441 382 441 373 c 0
 441 368 437 360 431 354 c 0
 428 351 425 349 423 349 c 2
 396 349 l 2
 378 349 368 346 366 341 c 0
 363 332 360 313 360 295 c 0
 360 193 287 106 201 106 c 0
 183 106 165 109 148 116 c 1
 124 104 106 86 106 74 c 0xe3
 106 46 151 29 236 24 c 0
 359 17 418 -16 418 -77 c 0
 418 -180 303 -290 195 -290 c 0
 81 -290 11 -244 11 -170 c 0
 11 -135 21 -113 44 -95 c 0xd880
 63 -79 96 -54 128 -28 c 1
 64 -16 40 6 40 44 c 0
 40 57 47 68 63 81 c 0xd3
 102 110 111 117 119 129 c 1
 73 156 39 205 39 258 c 0
 39 351 122 416 213 416 c 0xd5
 252 416 278 403 306 395 c 0
 338 386 353 385 373 385 c 0
 389 385 418 388 428 388 c 0xe5
207 141 m 0xd5
 257 141 295 199 295 275 c 0
 295 333 249 386 200 386 c 0
 153 386 111 331 111 270 c 0
 111 200 155 141 207 141 c 0xd5
357 -109 m 0xd880
 357 -65 313 -44 207 -37 c 0
 191 -36 177 -35 164 -33 c 1
 106 -72 86 -104 86 -155 c 0
 86 -208 140 -250 209 -250 c 0
 249 -250 280 -241 304 -223 c 0
 337 -198 357 -155 357 -109 c 0xd880
EndSplineSet
EndChar

StartChar: h
Encoding: 104 104 73
Width: 515
GlyphClass: 2
Flags: MW
ItalicCorrection: 15
TopAccentHorizontal: 122
HStem: -3 21G<33 59 176 203.5 309 336 452 479> 362 52<282.5 286.5> 685 20G<156 159>
VStem: 85 70<65 268 377.5 388 388 562> 358 70<68 272 272 278>
LayerCount: 2
Fore
SplineSet
39 -3 m 0
 27 -3 19 0 19 8 c 0
 19 16 25 19 42 24 c 0
 62 30 84 38 85 65 c 2
 85 566 l 2
 85 602 75 632 41 638 c 0
 35 639 32 644 32 652 c 0
 32 658 34 662 40 664 c 0
 68 673 118 689 151 703 c 0
 153 704 155 705 157 705 c 0
 161 705 164 702 164 698 c 0
 164 686 155 669 155 562 c 2
 155 388 l 2
 155 367 157 360 162 351 c 1
 193 374 251 414 314 414 c 0
 379 414 428 356 428 278 c 2
 428 68 l 2
 428 41 449 30 469 24 c 0
 483 20 492 16 492 8 c 0
 492 0 486 -3 472 -3 c 0
 432 -3 429 2 394 2 c 0
 359 2 356 -3 316 -3 c 0
 302 -3 296 0 296 8 c 0
 296 17 304 19 319 24 c 0
 339 31 358 41 358 68 c 2
 358 272 l 2
 358 322 308 362 265 362 c 0
 240 362 201 355 182 340 c 0
 161 323 155 309 155 268 c 2
 155 65 l 2
 156 38 174 30 194 24 c 0
 208 20 216 16 216 8 c 0
 216 0 211 -3 196 -3 c 0
 156 -3 155 2 120 2 c 0
 85 2 79 -3 39 -3 c 0
EndSplineSet
EndChar

StartChar: i
Encoding: 105 105 74
Width: 245
GlyphClass: 2
Flags: MW
ItalicCorrection: 3
TopAccentHorizontal: 125
HStem: -3 21G<38 63.5 187 212.5> 516 101<110 138.5>
VStem: 74 101<552 580.5> 90 70<62 279 279 294>
LayerCount: 2
Fore
SplineSet
124 516 m 0xe0
 96 516 74 538 74 566 c 0
 74 595 96 617 124 617 c 0
 153 617 175 595 175 566 c 0
 175 538 153 516 124 516 c 0xe0
44 -3 m 0
 32 -3 24 0 24 8 c 0
 24 18 36 21 47 24 c 0
 75 31 90 38 90 62 c 2
 90 279 l 2
 90 315 79 347 45 352 c 0
 38 353 35 357 35 365 c 0
 35 372 38 376 44 377 c 0
 97 389 132 413 149 427 c 0
 154 431 159 434 163 434 c 0
 167 434 169 432 169 429 c 0
 169 413 160 339 160 294 c 2
 160 62 l 2
 160 39 176 31 203 24 c 0
 214 21 226 18 226 8 c 0
 226 0 219 -3 206 -3 c 0
 168 -3 160 2 125 2 c 0xd0
 90 2 83 -3 44 -3 c 0
EndSplineSet
Substitution2: "'dtls' Dotless Forms in Mathematical Alphanumeric Symbols lookup 1 subtable" dotlessi
EndChar

StartChar: j
Encoding: 106 106 75
Width: 226
GlyphClass: 2
Flags: MW
TopAccentHorizontal: 116
HStem: -287 21G<-2.5 21> 516 101<102 130.5>
VStem: 66 101<552 580.5> 89 70<69 91 91 275>
LayerCount: 2
Fore
SplineSet
116 516 m 0xe0
 88 516 66 538 66 566 c 0
 66 595 88 617 116 617 c 0
 145 617 167 595 167 566 c 0
 167 538 145 516 116 516 c 0xe0
1 -287 m 0
 -6 -287 -20 -284 -20 -277 c 0
 -20 -269 -11 -261 -9 -260 c 0
 15 -254 38 -237 57 -197 c 0
 86 -136 89 0 89 69 c 2
 89 279 l 2
 89 315 77 345 43 352 c 0
 38 353 35 359 35 365 c 0
 35 370 38 376 42 377 c 0
 92 389 127 415 146 427 c 0
 153 431 157 434 159 434 c 0
 163 434 166 432 166 429 c 0
 162 388 159 320 159 275 c 2
 159 91 l 2
 159 29 158 -72 129 -152 c 0xd0
 104 -220 41 -287 1 -287 c 0
EndSplineSet
Substitution2: "'dtls' Dotless Forms in Mathematical Alphanumeric Symbols lookup 1 subtable" dotlessj
EndChar

StartChar: k
Encoding: 107 107 76
Width: 469
GlyphClass: 2
Flags: MW
ItalicCorrection: 33
TopAccentHorizontal: 121
HStem: -3 21G<34.5 61.5 170.5 192.5 433 465> 0 21G<265 306> 199 26<158.5 170> 380 20G<295 344 344 359.5> 392 20G<425.5 439.5> 685 20G<156.5 160>
VStem: 85 70<199 201.5 231 234 234 562>
LayerCount: 2
Fore
SplineSet
42 -3 m 0xae
 27 -3 19 0 19 8 c 0
 19 18 31 20 42 24 c 0
 62 30 85 38 85 65 c 2
 85 566 l 2
 85 613 73 631 40 639 c 0
 34 640 31 646 31 652 c 0
 31 658 34 663 39 664 c 0
 90 676 119 689 149 702 c 0
 153 704 155 705 158 705 c 0
 162 705 164 702 164 696 c 0
 164 682 155 647 155 562 c 2
 155 234 l 2
 155 228 157 225 160 225 c 0
 168 225 181 232 196 245 c 0
 250 292 289 333 302 348 c 0
 309 356 311 360 311 363 c 0
 311 370 297 375 285 378 c 0
 276 380 273 382 273 388 c 0
 273 395 281 400 295 400 c 2
 344 400 l 2xb6
 375 400 416 412 435 412 c 0
 444 412 449 408 449 402 c 0
 449 394 438 388 424 384 c 0
 399 377 376 364 358 353 c 0
 345 345 278 289 230 247 c 0
 226 243 224 240 224 237 c 0
 224 235 225 232 227 230 c 0
 278 166 353 91 374 72 c 0
 396 51 429 33 449 26 c 0
 463 21 479 18 479 8 c 0
 479 -1 471 -3 459 -3 c 0xae
 407 -3 340 0 272 0 c 0
 258 0 254 4 254 9 c 0
 254 17 262 22 271 25 c 0
 286 30 298 36 298 48 c 0
 298 52 295 57 291 62 c 2x6e
 170 199 l 2
 166 204 164 206 160 206 c 0
 157 206 155 204 155 199 c 0
 154 180 154 158 154 135 c 0
 154 112 154 88 155 65 c 0
 155 38 170 30 190 24 c 0
 201 20 213 18 213 8 c 0
 213 -2 195 -3 190 -3 c 0
 151 -3 155 2 120 2 c 0
 85 2 81 -3 42 -3 c 0xae
EndSplineSet
EndChar

StartChar: l
Encoding: 108 108 77
Width: 240
GlyphClass: 2
Flags: MW
ItalicCorrection: 7
TopAccentHorizontal: 120
HStem: -3 21G<35.5 58.5 181.5 204.5> 685 20G<156 158.5>
VStem: 85 70<62 562>
LayerCount: 2
Fore
SplineSet
39 -3 m 0
 32 -3 19 -2 19 6 c 0
 19 16 31 20 42 24 c 0
 62 30 85 35 85 62 c 2
 85 566 l 2
 85 605 72 632 39 639 c 0
 34 640 31 646 31 652 c 0
 31 658 34 663 38 664 c 0
 89 676 119 691 151 703 c 0
 153 704 155 705 157 705 c 0
 160 705 162 701 162 698 c 0
 162 686 155 652 155 562 c 2
 155 62 l 2
 155 35 178 30 198 24 c 0
 209 20 221 16 221 6 c 0
 221 -2 208 -3 201 -3 c 0
 162 -3 155 2 120 2 c 0
 85 2 78 -3 39 -3 c 0
EndSplineSet
EndChar

StartChar: m
Encoding: 109 109 78
Width: 778
GlyphClass: 2
Flags: MW
ItalicCorrection: 25
TopAccentHorizontal: 390
HStem: -3 21G<38.5 64 186 212 301.5 327 452 478.5 567 593 715 742.5> 367 47<284.5 295.5 556.5 560.5>
VStem: 90 70<62 268> 354 70<62 268> 619 70<62 272 272 275>
LayerCount: 2
Fore
SplineSet
44 -3 m 0
 33 -3 24 -1 24 8 c 0
 24 17 34 20 47 24 c 0
 66 30 90 35 90 62 c 2
 90 277 l 2
 90 313 86 343 52 349 c 0
 46 350 43 354 43 362 c 0
 43 370 46 373 51 374 c 0
 105 387 117 403 153 426 c 0
 155 427 158 430 162 430 c 0
 165 430 168 427 168 423 c 0
 168 414 163 378 163 359 c 0
 163 353 164 348 165 347 c 2
 167 347 l 1
 197 376 246 414 323 414 c 0
 371 414 402 396 423 345 c 1
 426 345 l 1
 469 383 524 414 589 414 c 0
 654 414 689 345 689 275 c 2
 689 62 l 2
 689 35 712 30 732 24 c 0
 745 20 755 17 755 8 c 0
 755 0 750 -3 735 -3 c 0
 695 -3 691 2 656 2 c 0
 621 2 613 -3 573 -3 c 0
 561 -3 553 0 553 8 c 0
 553 18 563 21 576 24 c 0
 597 29 619 35 619 62 c 2
 619 272 l 2
 619 320 582 367 539 367 c 0
 505 367 477 360 452 340 c 0
 434 326 424 303 424 268 c 2
 424 62 l 2
 424 35 449 29 469 24 c 0
 482 21 492 17 492 8 c 0
 492 0 485 -3 472 -3 c 0
 432 -3 425 2 390 2 c 0
 355 2 347 -3 307 -3 c 0
 296 -3 287 0 287 8 c 0
 287 18 299 20 310 24 c 0
 330 30 354 35 354 62 c 2
 354 272 l 2
 354 320 317 367 274 367 c 0
 240 367 212 360 187 340 c 0
 168 326 160 302 160 268 c 2
 160 62 l 2
 160 35 183 30 203 24 c 0
 214 20 226 18 226 8 c 0
 226 0 218 -3 206 -3 c 0
 166 -3 160 2 125 2 c 0
 90 2 84 -3 44 -3 c 0
EndSplineSet
EndChar

StartChar: n
Encoding: 110 110 79
Width: 528
GlyphClass: 2
Flags: MW
ItalicCorrection: 13
TopAccentHorizontal: 264
HStem: -3 21G<38 64 186 212.5 319.5 343 465 489> 366 48<255 358.5>
VStem: 90 70<62 277 277 295> 369 70<62 272 272 275>
LayerCount: 2
Fore
SplineSet
44 -3 m 0
 32 -3 24 0 24 8 c 0
 24 18 32 20 47 24 c 0
 67 29 90 35 90 62 c 2
 90 277 l 2
 90 313 87 340 53 349 c 0
 47 351 43 354 43 362 c 0
 43 369 46 373 52 374 c 0
 98 386 124 404 152 425 c 0
 156 428 159 430 163 430 c 0
 166 430 168 427 168 423 c 0
 168 414 163 378 163 359 c 0
 163 353 164 348 165 347 c 0
 212 392 263 414 326 414 c 0
 391 414 439 353 439 275 c 2
 439 62 l 2
 439 35 462 30 482 24 c 0
 493 20 505 16 505 6 c 0
 505 -2 493 -3 485 -3 c 0
 445 -3 440 2 405 2 c 0
 370 2 363 -3 323 -3 c 0
 316 -3 303 -2 303 6 c 0
 303 16 315 20 326 24 c 0
 346 30 369 35 369 62 c 2
 369 272 l 2
 369 330 333 365 279 366 c 0
 231 366 196 349 168 326 c 0
 163 321 160 311 160 303 c 2
 160 62 l 2
 160 35 183 29 203 24 c 0
 219 20 226 16 226 8 c 0
 226 0 219 -3 206 -3 c 0
 166 -3 160 2 125 2 c 0
 90 2 84 -3 44 -3 c 0
EndSplineSet
EndChar

StartChar: o
Encoding: 111 111 80
Width: 495
GlyphClass: 2
Flags: MW
TopAccentHorizontal: 248
HStem: -14 30<215 277.5 215 309> 383 31<219 279.5>
VStem: 35 82<160.5 234 160.5 242.5> 378 82<169.5 236.5>
LayerCount: 2
Fore
SplineSet
234 -14 m 0
 122 -14 35 70 35 187 c 0
 35 298 131 414 254 414 c 0
 370 414 460 321 460 213 c 0
 460 96 384 -14 234 -14 c 0
255 16 m 0
 300 16 338 32 358 71 c 0
 374 102 378 150 378 189 c 0
 378 284 322 383 237 383 c 0
 201 383 173 374 149 343 c 0
 122 309 117 258 117 210 c 0
 117 111 175 16 255 16 c 0
EndSplineSet
EndChar

StartChar: p
Encoding: 112 112 81
Width: 519
GlyphClass: 2
Flags: MW
TopAccentHorizontal: 252
HStem: -285 21G<36.5 59.5 194.5 218> -14 31<247 293.5 247 322> 369 45<288.5 289.5>
VStem: 85 70<-220 -33 125.5 178> 404 80<165.5 270>
LayerCount: 2
Fore
SplineSet
40 -285 m 0
 33 -285 19 -284 19 -276 c 0
 19 -266 31 -262 42 -258 c 0
 62 -252 85 -247 85 -220 c 2
 85 287 l 2
 85 302 72 353 39 360 c 0
 34 361 31 367 31 373 c 0
 31 379 34 384 38 385 c 0
 89 397 122 412 154 425 c 0
 155 425 155 426 156 426 c 0
 159 426 162 421 162 417 c 0
 162 405 157 373 157 357 c 0
 157 353 157 349 158 348 c 1
 177 367 257 414 320 414 c 0
 423 414 484 319 484 225 c 0
 484 106 385 -14 259 -14 c 0
 231 -14 179 0 159 18 c 0
 156 18 155 -27 155 -33 c 2
 155 -220 l 2
 155 -247 193 -252 213 -258 c 0
 224 -262 236 -266 236 -276 c 0
 236 -284 222 -285 214 -285 c 0
 175 -285 155 -280 120 -280 c 0
 85 -280 79 -285 40 -285 c 0
274 17 m 0
 313 17 404 59 404 193 c 0
 404 347 311 369 268 369 c 0
 220 369 158 331 158 317 c 0
 158 259 155 190 155 166 c 0
 155 85 220 17 274 17 c 0
EndSplineSet
EndChar

StartChar: q
Encoding: 113 113 82
Width: 522
GlyphClass: 2
Flags: MW
ItalicCorrection: 16
TopAccentHorizontal: 278
HStem: -285 21G<327.5 351 482 506> -14 53<242 261.5> 382 32<221 290>
VStem: 35 82<138.5 248.5> 377 70<-220 13 13 24.5>
LayerCount: 2
Fore
SplineSet
331 -285 m 0
 324 -285 311 -284 311 -276 c 0
 311 -266 323 -262 334 -258 c 0
 354 -252 377 -247 377 -220 c 2
 377 13 l 2
 377 36 375 43 371 43 c 0
 368 43 365 44 362 41 c 0
 345 26 288 -14 235 -14 c 0
 131 -14 35 54 35 178 c 0
 35 319 135 414 282 414 c 0
 350 414 405 392 410 392 c 0
 424 392 429 402 436 417 c 0
 437 418 440 421 443 421 c 0
 449 421 459 416 459 411 c 0
 459 398 447 352 447 295 c 2
 447 -220 l 2
 447 -247 479 -252 499 -258 c 0
 510 -262 522 -266 522 -276 c 0
 522 -284 510 -285 502 -285 c 0
 462 -285 448 -280 412 -280 c 0
 377 -280 371 -285 331 -285 c 0
272 39 m 0
 316 39 361 61 378 80 c 1
 378 116 378 250 377 275 c 0
 375 335 323 382 257 382 c 0
 185 382 117 320 117 205 c 0
 117 72 212 39 272 39 c 0
EndSplineSet
EndChar

StartChar: r
Encoding: 114 114 83
Width: 334
GlyphClass: 2
Flags: MW
ItalicCorrection: 30
TopAccentHorizontal: 179
HStem: -3 21G<42 69 197 224> 330 84<286 295 261.5 300> 348 66<214 295> 394 20G<261.5 295>
VStem: 90 71<62 264>
LayerCount: 2
Fore
SplineSet
49 -3 m 0x98
 35 -3 29 0 29 8 c 0
 29 18 37 20 52 24 c 0
 77 30 90 43 90 62 c 2
 90 277 l 2
 90 313 82 342 49 349 c 0
 44 350 39 356 39 362 c 0
 39 368 44 373 48 374 c 0
 83 385 126 410 147 423 c 0
 155 428 159 430 162 430 c 0
 165 430 167 427 167 423 c 0
 167 416 166 380 164 348 c 0
 164 347 165 346 166 346 c 0
 198 385 242 414 281 414 c 0
 309 414 329 400 329 382 c 0
 329 362 310 330 290 330 c 0xc8
 282 330 272 334 262 339 c 0
 251 343 240 348 230 348 c 0
 198 348 161 331 161 264 c 2xa8
 161 62 l 2
 161 44 181 34 214 24 c 0
 228 20 237 17 237 8 c 0
 237 0 231 -3 217 -3 c 0
 177 -3 165 2 130 2 c 0
 95 2 89 -3 49 -3 c 0x98
EndSplineSet
EndChar

StartChar: s
Encoding: 115 115 84
Width: 323
GlyphClass: 2
Flags: MW
TopAccentHorizontal: 160
HStem: -14 27<133.5 172.5 133.5 187.5> 386 28<154.5 190>
VStem: 47 60<311.5 331> 223 68<72 99>
LayerCount: 2
Fore
SplineSet
144 -14 m 0
 103 -14 65 -1 40 22 c 1
 33 36 30 79 29 102 c 0
 29 108 35 111 42 111 c 0
 47 111 53 109 54 104 c 0
 71 38 114 13 153 13 c 0
 192 13 223 42 223 81 c 0
 223 117 202 138 142 175 c 0
 74 217 47 249 47 299 c 0
 47 363 92 414 182 414 c 0
 222 414 249 404 262 395 c 1
 272 380 281 344 281 316 c 0
 281 311 276 309 271 309 c 0
 263 309 254 313 252 318 c 0
 234 362 209 386 171 386 c 0
 138 386 107 365 107 327 c 0
 107 296 122 276 176 245 c 0
 253 201 291 170 291 108 c 0
 291 36 231 -14 144 -14 c 0
EndSplineSet
EndChar

StartChar: t
Encoding: 116 116 85
Width: 314
GlyphClass: 2
Flags: MW
ItalicCorrection: 29
TopAccentHorizontal: 170
HStem: -14 55<199.5 219.5> 352 48<180 195 195 294>
VStem: 85 70<105 127 127 324>
LayerCount: 2
Fore
SplineSet
189 -14 m 0
 124 -14 85 26 85 105 c 2
 85 337 l 2
 85 348 79 352 53 352 c 2
 47 352 l 2
 40 352 35 362 35 372 c 0
 35 375 40 382 42 383 c 0
 81 410 113 441 131 463 c 0
 137 470 141 475 148 475 c 0
 154 475 162 473 161 464 c 2
 156 419 l 2
 154 404 163 400 180 400 c 2
 294 400 l 2
 299 400 304 390 304 378 c 0
 304 366 299 352 294 352 c 2
 195 352 l 2
 161 352 155 351 155 324 c 2
 155 127 l 2
 155 73 178 41 221 41 c 0
 260 41 278 47 295 59 c 0
 296 60 298 61 299 61 c 0
 304 61 306 54 306 47 c 0
 306 36 250 -14 189 -14 c 0
EndSplineSet
EndChar

StartChar: u
Encoding: 117 117 86
Width: 527
GlyphClass: 2
Flags: MW
ItalicCorrection: 7
TopAccentHorizontal: 273
HStem: -14 51<217.5 230> 365 32<295.5 301 295.5 311> 394 20G<149.5 154> 395 20G<432.5 437.5>
VStem: 85 70<105 128 128 308 308 322.5> 368 70<132 315 315 326>
LayerCount: 2
Fore
SplineSet
366 -19 m 0x9c
 361 -19 359 -16 359 -11 c 0
 359 2 364 34 364 51 c 2
 364 57 l 1
 312 6 261 -14 199 -14 c 0
 134 -14 85 27 85 105 c 2
 85 308 l 2
 85 337 72 353 42 365 c 0
 35 367 29 370 29 381 c 0
 29 393 36 396 44 397 c 0
 89 400 106 404 143 413 c 0
 147 414 148 414 151 414 c 0
 157 414 162 411 161 400 c 0
 157 369 155 353 155 323 c 2xac
 155 128 l 2
 155 80 196 37 239 37 c 0
 273 37 298 38 323 57 c 0
 338 68 368 91 368 132 c 2
 368 315 l 2
 368 356 321 365 301 365 c 0
 289 365 280 368 280 382 c 0
 280 394 290 397 301 397 c 0xcc
 362 398 388 403 424 413 c 0
 427 414 431 415 434 415 c 0
 441 415 447 411 447 404 c 0
 447 402 446 399 445 395 c 0
 443 388 438 342 438 326 c 2
 438 95 l 2
 438 59 446 45 456 45 c 0
 466 45 492 48 502 48 c 0
 509 48 517 47 517 35 c 0
 517 24 511 22 503 21 c 0
 451 14 415 -1 386 -13 c 0
 382 -15 372 -19 366 -19 c 0x9c
EndSplineSet
EndChar

StartChar: v
Encoding: 118 118 87
Width: 438
GlyphClass: 2
Flags: MW
ItalicCorrection: 5
TopAccentHorizontal: 224
HStem: 385 20G<21.5 44.5 153.5 176.5 286.5 298.5 413.5 428>
VStem: 5 438<391.5 400>
LayerCount: 2
Fore
SplineSet
214 -21 m 2
 209 -21 199 8 196 17 c 0
 187 39 179 65 171 87 c 0
 141 170 106 247 74 329 c 0
 64 353 43 374 23 380 c 0
 12 384 5 387 5 396 c 0
 5 404 18 405 25 405 c 0
 64 405 63 400 98 400 c 0
 133 400 134 405 173 405 c 0
 180 405 193 404 193 396 c 0
 193 386 182 382 170 378 c 0
 156 373 150 356 150 337 c 0
 150 328 151 318 154 310 c 2
 233 100 l 2
 234 99 235 99 236 100 c 2
 312 295 l 2
 317 308 320 325 320 336 c 0
 320 362 312 371 294 378 c 0
 277 384 271 387 271 396 c 0
 271 404 282 405 291 405 c 0
 306 405 329 400 364 400 c 0
 399 400 404 405 423 405 c 0
 433 405 443 404 443 396 c 0
 443 387 436 383 420 378 c 0
 400 372 372 344 358 311 c 2
 280 123 l 2
 275 112 242 24 242 24 c 1
 242 24 227 -12 220 -21 c 1
 214 -21 l 2
EndSplineSet
EndChar

StartChar: w
Encoding: 119 119 88
Width: 685
GlyphClass: 2
Flags: MW
TopAccentHorizontal: 348
HStem: 251 154 385 20G<21.5 37.5 167 183.5 268 281 420 434.5 533.5 551.5 659 674>
VStem: 326 68<313.5 354>
LayerCount: 2
Fore
SplineSet
226 -23 m 0x60
 223 -23 220 -20 219 -16 c 2
 80 329 l 2
 70 355 48 372 28 378 c 0
 17 382 5 386 5 396 c 0
 5 404 18 405 25 405 c 0
 50 405 72 400 98 400 c 0
 126 400 153 405 181 405 c 0
 186 405 201 404 201 396 c 0
 201 386 189 382 178 378 c 0
 164 374 157 357 157 338 c 0
 157 329 159 320 162 312 c 2
 240 111 l 2
 241 108 243 107 245 107 c 0
 247 107 249 108 250 111 c 2
 318 273 l 2
 325 290 326 306 326 321 c 0
 326 350 298 369 275 378 c 0
 264 382 252 386 252 396 c 0
 252 404 264 405 272 405 c 0
 290 405 310 400 347 400 c 0
 384 400 409 405 431 405 c 0
 438 405 451 404 451 396 c 0
 451 386 439 382 428 378 c 0
 413 373 394 366 394 342 c 0
 394 334 396 324 401 312 c 2
 476 119 l 2
 479 112 482 108 484 108 c 0
 487 108 489 111 492 118 c 2
 568 295 l 2
 573 306 575 325 575 334 c 0
 575 358 555 373 540 378 c 0
 529 382 517 386 517 396 c 0
 517 404 530 405 537 405 c 0
 566 405 576 400 612 400 c 0
 649 400 648 405 670 405 c 0
 678 405 690 404 690 396 c 0
 690 386 678 382 667 378 c 0
 647 372 627 342 614 312 c 2
 477 -16 l 2
 475 -20 472 -23 468 -23 c 0
 465 -23 462 -20 460 -16 c 2
 356 242 l 2
 354 247 352 250 350 251 c 0
 348 251 346 248 343 241 c 2xa0
 234 -16 l 2
 232 -20 229 -23 226 -23 c 0x60
EndSplineSet
EndChar

StartChar: x
Encoding: 120 120 89
Width: 430
GlyphClass: 2
Flags: MW
ItalicCorrection: 7
TopAccentHorizontal: 218
HStem: -4 21G<26 39 384.5 409> -2 21G<239.5 259.5> -1 21G<144.5 152.5> 0 21G<309 346> 384 20G<48.5 70.5> 385 20G<383.5 396>
VStem: 10 415<1 10.5> 183.25 23.75
LayerCount: 2
Fore
SplineSet
30 -4 m 0x86
 22 -4 10 -3 10 5 c 0
 10 16 22 20 33 23 c 0
 53 29 72 41 100 80 c 2
 177 187 l 2
 186 198 184 202 179 210 c 2
 97 335 l 2
 81 361 71 371 51 377 c 0
 40 380 28 384 28 395 c 0
 28 405 46 404 51 404 c 0
 90 404 81 400 130 400 c 0
 154 400 158 402 181 402 c 0
 186 402 204 403 204 393 c 0
 204 385 195 382 186 379 c 0
 176 376 165 373 165 362 c 0
 165 355 170 343 178 330 c 2x89
 224 261 l 2
 227 256 230 257 233 261 c 2
 284 338 l 2
 289 345 292 353 292 360 c 0
 292 367 289 373 279 376 c 0
 268 380 256 384 256 394 c 0
 256 404 274 403 279 403 c 0
 289 403 313 400 329 400 c 0
 366 400 375 405 392 405 c 0
 400 405 412 404 412 396 c 0
 412 386 400 382 389 378 c 0
 369 372 337 358 318 331 c 2
 255 236 l 2
 253 233 252 228 256 223 c 2
 353 65 l 2
 369 39 382 29 402 23 c 0
 413 20 425 16 425 5 c 0
 425 -3 413 -4 405 -4 c 0x45
 364 -4 371 0 321 0 c 0
 297 0 271 -2 248 -2 c 0
 231 -2 225 3 225 8 c 0
 225 20 234 24 250 28 c 0
 264 32 278 38 278 52 c 0
 278 57 276 63 272 70 c 2x16
 213 166 l 2
 212 167 208 167 207 166 c 2
 141 67 l 2
 139 64 136 56 136 48 c 0
 136 39 140 29 150 26 c 0
 161 22 173 18 173 8 c 0
 173 -2 155 -1 150 -1 c 0x25
 139 -1 113 1 97 1 c 0
 60 1 48 -4 30 -4 c 0x86
EndSplineSet
EndChar

StartChar: y
Encoding: 121 121 90
Width: 438
GlyphClass: 2
Flags: MW
ItalicCorrection: 3
TopAccentHorizontal: 224
HStem: -285 21G<51 78.5> -285 86<51 53.5 35.5 78.5> 385 20G<21.5 45 154 178 289.5 302 412 426.5>
VStem: 5 438<391 400>
LayerCount: 2
Fore
SplineSet
64 -285 m 0xb0
 38 -285 13 -274 13 -244 c 0
 13 -220 25 -199 46 -199 c 0
 61 -199 75 -205 86 -205 c 0
 94 -205 100 -202 105 -194 c 0x70
 127 -159 161 -93 190 -16 c 0
 192 -10 193 -2 193 7 c 0
 193 18 192 28 189 36 c 2
 73 329 l 2
 63 353 48 372 28 378 c 0
 17 382 5 386 5 396 c 0
 5 404 18 405 25 405 c 0
 65 405 63 400 98 400 c 0
 133 400 134 405 174 405 c 0
 182 405 194 402 194 394 c 0
 194 384 176 375 165 372 c 0
 151 368 145 359 145 340 c 0
 145 332 150 319 153 312 c 2
 234 112 l 2
 235 109 237 106 240 106 c 0
 242 106 244 109 245 112 c 2
 314 295 l 2
 318 304 322 322 322 332 c 0
 322 357 314 365 302 370 c 0
 291 375 273 384 273 394 c 0
 273 402 286 405 293 405 c 0
 311 405 327 400 364 400 c 0
 401 400 401 405 423 405 c 0
 430 405 443 404 443 396 c 0
 443 386 431 382 420 378 c 0
 400 372 374 343 361 311 c 2
 225 -13 l 2
 221 -22 170 -148 129 -244 c 0
 117 -271 93 -285 64 -285 c 0xb0
EndSplineSet
EndChar

StartChar: z
Encoding: 122 122 91
Width: 377
GlyphClass: 2
Flags: MW
TopAccentHorizontal: 200
HStem: -5 38 368 34 385 20G<351 353.5>
VStem: 25 349<9.5 127.5>
LayerCount: 2
Fore
SplineSet
39 -5 m 0xd0
 34 -5 25 7 25 12 c 0
 25 17 48 51 62 70 c 0
 129 166 180 242 253 358 c 0
 256 362 259 368 244 368 c 2
 145 371 l 2
 126 372 109 360 101 352 c 0
 86 337 71 312 57 294 c 0
 49 286 31 293 35 304 c 0
 41 322 54 373 54 398 c 0
 54 408 65 416 69 416 c 0
 72 416 78 412 84 407 c 0
 90 402 109 401 127 401 c 0
 142 401 156 402 165 402 c 0xd0
 234 402 290 403 351 405 c 0
 356 405 361 397 358 393 c 0
 344 376 333 363 320 343 c 2xb0
 125 48 l 2
 119 38 125 33 134 33 c 2
 252 33 l 2
 267 33 282 41 297 56 c 0
 313 72 332 100 352 129 c 0
 358 138 374 133 374 122 c 0
 374 114 349 25 344 9 c 0
 342 0 336 -5 328 -5 c 0
 299 -5 228 0 119 0 c 0
 91 0 56 -5 39 -5 c 0xd0
EndSplineSet
EndChar

StartChar: braceleft
Encoding: 123 123 92
Width: 376
GlyphClass: 2
Flags: MW
GlyphVariantsVertical: braceleft braceleft.v1 braceleft.v2 braceleft.v3 braceleft.v4 braceleft.v5 braceleft.v6
GlyphCompositionVertical: 5  uni23A9%0,0,298,607 braceleft.ex%1,596,596,596 uni23A8%0,298,298,1194 braceleft.ex%1,596,596,596 uni23A7%0,298,0,607
HStem: -186.5 27 651.5 29
VStem: 143 85<-97 -26.5 -97 -20.5 518.5 589> 156 85<91.5 145.5 83.5 151.5 346.5 400.5>
LayerCount: 2
Fore
SplineSet
335 -186.5 m 0xe0
 241 -180.5 143 -149.5 143 -55.5 c 0xe0
 143 14.5 156 60.5 156 122.5 c 0
 156 180.5 112 220.5 69 230.5 c 0
 60 232.5 50 239.5 50 247.5 c 0
 50 253.5 56 262.5 71 266.5 c 0
 124 280.5 156 311.5 156 369.5 c 0xd0
 156 431.5 143 477.5 143 547.5 c 0
 143 641.5 244 676.5 338 680.5 c 0
 347 680.5 356 674.5 356 665.5 c 0
 356 654.5 341 652.5 330 651.5 c 0
 266 643.5 228 625.5 228 552.5 c 0xe0
 228 484.5 241 437.5 241 379.5 c 0
 241 313.5 165 265.5 123 248.5 c 0
 119 246.5 122 245.5 125 244.5 c 0
 158 235.5 241 178.5 241 112.5 c 0xd0
 241 54.5 228 7.5 228 -60.5 c 0
 228 -133.5 263 -153.5 327 -159.5 c 0
 338 -160.5 353 -160.5 353 -171.5 c 0
 353 -180.5 344 -187.5 335 -186.5 c 0xe0
EndSplineSet
EndChar

StartChar: bar
Encoding: 124 124 93
Width: 260
GlyphClass: 2
Flags: MW
GlyphVariantsVertical: bar divides.v1 divides.v2 divides.v3 divides.v4 divides.v5 divides.v6
GlyphCompositionVertical: 3  divides.bt%0,0,398,796 divides.ex%1,396,396,396 divides.tp%0,398,0,796
VStem: 100 60<-199 -189 -189 676 676 687>
LayerCount: 2
Fore
SplineSet
112 -213 m 0
 106 -213 100 -206 100 -199 c 2
 100 676 l 2
 100 698 140 707 146 707 c 0
 153 707 160 701 160 694 c 2
 160 -189 l 2
 160 -210 121 -213 112 -213 c 0
EndSplineSet
EndChar

StartChar: braceright
Encoding: 125 125 94
Width: 376
GlyphClass: 2
Flags: MW
GlyphVariantsVertical: braceright braceright.v1 braceright.v2 braceright.v3 braceright.v4 braceright.v5 braceright.v6
GlyphCompositionVertical: 5  uni23AD%0,0,298,607 braceright.ex%1,596,596,596 uni23AC%0,298,298,1194 braceright.ex%1,596,596,596 uni23AB%0,298,0,607
HStem: -186.5 27 651.5 29
VStem: 135 85<91.5 145.5 346.5 400.5> 148 85<-97 -26.5 518.5 589>
LayerCount: 2
Fore
SplineSet
41 -186.5 m 0xd0
 32 -187.5 23 -180.5 23 -171.5 c 0
 23 -160.5 38 -160.5 49 -159.5 c 0
 113 -153.5 148 -133.5 148 -60.5 c 0xd0
 148 7.5 135 54.5 135 112.5 c 0
 135 178.5 218 235.5 251 244.5 c 0
 254 245.5 257 246.5 253 248.5 c 0
 211 265.5 135 313.5 135 379.5 c 0xe0
 135 437.5 148 484.5 148 552.5 c 0
 148 625.5 110 643.5 46 651.5 c 0
 35 652.5 20 654.5 20 665.5 c 0
 20 674.5 29 680.5 38 680.5 c 0
 132 676.5 233 641.5 233 547.5 c 0xd0
 233 477.5 220 431.5 220 369.5 c 0
 220 311.5 252 280.5 305 266.5 c 0
 320 262.5 326 253.5 326 247.5 c 0
 326 239.5 316 232.5 307 230.5 c 0
 264 220.5 220 180.5 220 122.5 c 0xe0
 220 60.5 233 14.5 233 -55.5 c 0
 233 -149.5 135 -180.5 41 -186.5 c 0xd0
EndSplineSet
EndChar

StartChar: asciitilde
Encoding: 126 126 95
Width: 500
GlyphClass: 2
Flags: MW
HStem: 260 59<323.5 359.5 323.5 361.5> 320 61<136 174.5>
VStem: 50 400<275.5 368.5>
LayerCount: 2
Fore
SplineSet
337 260 m 0
 302 260 272 276 243 291 c 0
 216 306 189 320 160 320 c 0
 110 320 74 265 69 265 c 0
 61 265 50 272 50 279 c 0
 50 306 101 381 171 381 c 0
 205 381 233 365 259 350 c 0
 285 334 310 319 337 319 c 0
 382 319 425 382 430 382 c 0
 435 382 450 375 450 362 c 0
 450 321 386 260 337 260 c 0
EndSplineSet
EndChar

StartChar: exclamdown
Encoding: 161 161 97
Width: 250
GlyphClass: 2
Flags: MW
HStem: 374 120<108.5 141.5>
VStem: 65 120<417.5 450.5> 79 92<-128.5 -82.5>
LayerCount: 2
Fore
SplineSet
125 494 m 0xc0
 158 494 185 467 185 434 c 0
 185 401 158 374 125 374 c 0
 92 374 65 401 65 434 c 0
 65 467 92 494 125 494 c 0xc0
123 275 m 0xa0
 133 275 139 258 141 236 c 0
 153 123 171 -51 171 -114 c 0
 171 -143 153 -169 126 -169 c 0
 99 -169 79 -143 79 -114 c 0
 79 -51 93 122 105 236 c 0
 108 265 113 275 123 275 c 0xa0
EndSplineSet
EndChar

StartChar: cent
Encoding: 162 162 98
Width: 422
GlyphClass: 2
Flags: MW
HStem: -13 21G<197.5 206.5> 76 59<228 271> 167 16 474 29
VStem: 35 67<268.5 334.5> 190 34.5 240 35
LayerCount: 2
Fore
SplineSet
202 -13 m 0
 193 -13 185 -7 186 2 c 2
 194 78 l 1
 109 93 35 179 35 278 c 0
 35 391 119 491 238 502 c 1
 242 562 l 2
 243 573 253 579 264 579 c 0
 272 579 278 570 277 562 c 2
 273 503 l 1
 312 501 353 488 380 455 c 0
 383 451 384 447 384 443 c 0
 384 430 361 409 347 409 c 0
 338 409 329 413 326 419 c 0
 312 444 296 462 269 469 c 1
 235 136 l 1
 240 135 245 135 250 135 c 0
 292 135 340 140 365 178 c 0
 367 181 370 183 374 183 c 0
 381 183 387 177 387 171 c 0
 387 170 387 168 386 167 c 0
 349 105 300 78 228 76 c 1
 221 2 l 2
 220 -7 211 -13 202 -13 c 0
200 143 m 1
 235 474 l 1
 233 474 l 2
 153 474 102 387 102 312 c 0
 102 225 142 165 200 143 c 1
EndSplineSet
EndChar

StartChar: sterling
Encoding: 163 163 99
Width: 490
GlyphClass: 2
Flags: MW
ItalicCorrection: 18
HStem: -36 68<356.5 362> 55 38<97 166> 297 36.5 313 38 600 29<297 350.5>
VStem: 128 90<303 342> 395 55<523 567.5> 434 41<75.5 89.5>
LayerCount: 2
Fore
SplineSet
435 167 m 0x9d
 461 167 475 139 475 111 c 0
 475 40 405 -36 319 -36 c 0x9d
 257 -36 219 -12 164 26 c 0
 142 42 110 55 100 55 c 0
 94 55 70 32 56 6 c 0
 45 -14 28 -25 13 -24 c 0
 0 -24 -10 -14 -10 6 c 0
 -10 47 35 81 86 91 c 0
 92 92 94 97 97 103 c 0
 114 135 123 220 128 303 c 1
 45 297 l 2
 38 297 31 303 31 309 c 0
 31 318 42 330 55 331 c 2xed
 130 336 l 1
 130 341 l 1
 137 474 199 629 350 629 c 0
 418 629 450 586 450 549 c 0
 450 518 434 491 406 491 c 0
 396 491 394 496 394 505 c 0
 394 511 395 519 395 527 c 0
 394 565 369 600 332 600 c 0
 262 600 232 512 218 342 c 1
 351 351 l 2
 358 351 364 344 364 339 c 0
 364 332 348 318 333 317 c 2
 215 309 l 1
 204 218 161 124 135 102 c 0
 132 100 132 93 139 93 c 0xde
 193 93 233 76 271 60 c 0
 305 46 338 32 375 32 c 0
 413 32 434 53 434 77 c 0
 434 102 418 134 418 148 c 0
 418 157 425 167 435 167 c 0x9d
EndSplineSet
EndChar

StartChar: currency
Encoding: 164 164 100
Width: 506
GlyphClass: 2
Flags: MW
ItalicCorrection: 50
HStem: 75 50<230.5 275.5> 415 50<230.5 275.5 230.5 292.5>
VStem: 61 50<248 292> 395 50<248 292 248 309.5>
LayerCount: 2
Fore
SplineSet
70 57 m 0
 57 57 40 74 40 87 c 0
 40 90 41 93 43 95 c 2
 100 152 l 1
 75 185 61 226 61 270 c 0
 61 314 75 355 100 387 c 1
 43 444 l 2
 41 446 40 448 40 451 c 0
 40 464 58 482 71 482 c 0
 74 482 77 481 79 479 c 2
 134 424 l 1
 167 449 208 465 253 465 c 0
 298 465 339 450 371 424 c 1
 427 480 l 2
 429 482 432 483 435 483 c 0
 447 483 465 467 465 453 c 0
 465 449 464 446 461 443 c 2
 406 388 l 1
 431 355 445 314 445 270 c 0
 445 226 431 185 406 152 c 1
 463 95 l 2
 465 93 466 91 466 88 c 0
 466 75 448 57 435 57 c 0
 432 57 429 58 427 60 c 2
 371 116 l 1
 339 90 298 75 253 75 c 0
 208 75 167 90 135 116 c 1
 78 60 l 2
 76 58 73 57 70 57 c 0
253 125 m 0
 332 125 395 191 395 270 c 0
 395 349 332 415 253 415 c 0
 174 415 111 349 111 270 c 0
 111 191 174 125 253 125 c 0
EndSplineSet
EndChar

StartChar: yen
Encoding: 165 165 101
Width: 570
GlyphClass: 2
Flags: MW
ItalicCorrection: 40
HStem: -5 237<173.5 209 400 435.5> 197 35<135.5 265 149 265 149 265 345 453> 280 35<135.5 255 149 255 149 263 350 454> 633 20G<20.5 44 572.5 592.5>
VStem: 264 81<85.5 108 85.5 108>
LayerCount: 2
Fore
SplineSet
182 -5 m 0xb8
 165 -5 153 -2 153 6 c 0
 153 15 163 20 186 24 c 0xb8
 236 33 264 60 264 108 c 2
 265 197 l 1
 139 197 l 2
 132 197 125 203 125 209 c 0
 125 218 136 232 149 232 c 2
 265 232 l 1
 265 256 l 2
 265 265 264 273 263 280 c 1
 139 280 l 2
 132 280 125 286 125 292 c 0
 125 301 136 315 149 315 c 2
 255 315 l 1
 122 522 l 2
 102 552 64 611 33 620 c 0
 11 627 0 633 0 642 c 0
 0 650 12 653 29 653 c 0
 59 653 100 650 146 650 c 0
 177 650 205 652 226 652 c 0
 243 652 255 649 255 641 c 0
 255 632 244 628 222 621 c 0
 211 617 194 608 194 588 c 0
 194 580 196 571 203 560 c 2
 296 395 l 2
 311 369 319 356 326 356 c 0
 334 356 342 370 357 395 c 2
 357 395 413 477 440 534 c 0
 445 545 447 557 447 568 c 0
 447 593 436 615 417 620 c 0
 403 624 384 631 384 640 c 0
 384 648 396 651 413 651 c 0
 443 651 459 650 488 650 c 0
 525 650 561 653 584 653 c 0
 601 653 613 650 613 642 c 0
 613 633 603 627 580 622 c 0
 545 615 501 557 480 526 c 0
 426 444 368 346 368 346 c 2
 360 334 353 323 350 315 c 1
 472 315 l 2
 479 315 485 310 485 304 c 0
 485 294 469 280 454 280 c 2
 345 280 l 1
 345 232 l 1
 471 232 l 2
 478 232 484 229 484 221 c 0
 484 211 468 197 453 197 c 2
 345 197 l 1
 345 108 l 2x78
 345 63 373 33 423 24 c 0
 446 20 456 15 456 6 c 0
 456 -2 444 -5 427 -5 c 0
 373 -5 356 0 310 0 c 0
 260 0 236 -5 182 -5 c 0xb8
EndSplineSet
EndChar

StartChar: brokenbar
Encoding: 166 166 102
Width: 260
GlyphClass: 2
Flags: MW
HStem: -290 21G<109 116.5> 685 20G<143 149.5>
VStem: 100 60<-276 -266 -266 156 156 157 299 674 674 685>
LayerCount: 2
Fore
SplineSet
112 276 m 0
 106 276 100 289 100 299 c 2
 100 674 l 2
 100 696 140 705 146 705 c 0
 153 705 160 699 160 692 c 2
 160 297 l 2
 160 287 121 276 112 276 c 0
112 -290 m 0
 106 -290 100 -283 100 -276 c 2
 100 156 l 2
 100 166 140 179 146 179 c 0
 153 179 160 167 160 157 c 2
 160 -266 l 2
 160 -287 121 -290 112 -290 c 0
EndSplineSet
EndChar

StartChar: section
Encoding: 167 167 103
Width: 400
GlyphClass: 2
Flags: MW
HStem: -148 54<105.5 197> 596 44<193.5 207>
VStem: 24 49<350.5 373.5> 307 39<110.5 158.5>
LayerCount: 2
Fore
SplineSet
123 -148 m 0
 88 -148 61 -134 61 -116 c 0
 61 -107 66 -81 89 -64 c 0
 96 -59 106 -66 111 -70 c 0
 128 -85 157 -94 180 -94 c 0
 214 -94 232 -64 232 -12 c 0
 232 38 170 95 118 149 c 0
 56 212 24 270 24 329 c 0
 24 418 52 467 90 513 c 1
 105 571 158 640 229 640 c 0
 254 640 288 631 299 621 c 0
 305 616 311 611 311 603 c 0
 311 599 294 556 273 556 c 0
 269 556 264 558 260 562 c 0
 240 580 216 596 198 596 c 0
 158 596 137 565 137 533 c 0
 137 496 182 438 241 385 c 0
 325 310 346 247 346 159 c 0
 346 42 270 -81 177 -137 c 0
 162 -146 141 -148 123 -148 c 0
286 51 m 0
 288 46 295 47 296 51 c 0
 303 78 307 97 307 124 c 0
 307 193 277 243 217 305 c 0
 175 348 110 412 94 458 c 0
 92 463 85 462 84 458 c 0
 77 431 73 412 73 385 c 0
 73 316 103 266 163 204 c 0
 205 161 270 97 286 51 c 0
EndSplineSet
EndChar

StartChar: dieresis
Encoding: 168 168 104
Width: 300
GlyphClass: 2
Flags: MW
ItalicCorrection: 11
TopAccentHorizontal: 167
HStem: 508 100<49.5 74.5 226.5 251.5>
VStem: 12 100<545.5 570.5> 189 100<545.5 570.5>
LayerCount: 2
Fore
SplineSet
62 508 m 0
 37 508 12 533 12 558 c 0
 12 583 37 608 62 608 c 0
 87 608 112 583 112 558 c 0
 112 533 87 508 62 508 c 0
239 508 m 0
 214 508 189 533 189 558 c 0
 189 583 214 608 239 608 c 0
 264 608 289 583 289 558 c 0
 289 533 264 508 239 508 c 0
EndSplineSet
EndChar

StartChar: copyright
Encoding: 169 169 105
Width: 665
GlyphClass: 2
Flags: MW
HStem: 24 34<272 418.5 272 428.5> 154 30<337 376.5> 464 30<337 382.5> 596 34<273.5 418.5>
VStem: 43 40<254 399.5 254 410.5> 188 70<294.5 367.5 294.5 377.5> 609 40<253.5 399.5>
LayerCount: 2
Fore
SplineSet
345 24 m 0
 178 24 43 160 43 327 c 0
 43 494 179 630 346 630 c 0
 513 630 649 494 649 327 c 0
 649 160 512 24 345 24 c 0
345 58 m 0
 492 58 609 180 609 327 c 0
 609 472 491 596 346 596 c 0
 201 596 83 472 83 327 c 0
 83 181 199 58 345 58 c 0
359 154 m 0
 264 154 188 239 188 328 c 0
 188 427 281 494 380 494 c 0
 404 494 437 488 460 481 c 0
 470 478 474 479 476 468 c 0
 480 452 479 422 478 409 c 0
 478 405 473 397 468 398 c 0
 462 398 459 405 456 413 c 0
 451 427 442 439 428 448 c 0
 413 458 394 464 371 464 c 0
 303 464 258 404 258 331 c 0
 258 258 298 184 376 184 c 0
 413 184 446 193 462 225 c 0
 467 235 475 240 479 240 c 0
 483 240 484 236 484 227 c 0
 484 217 476 196 469 184 c 0
 461 172 464 176 452 167 c 0
 430 157 394 154 359 154 c 0
EndSplineSet
EndChar

StartChar: ordfeminine
Encoding: 170 170 106
Width: 310
GlyphClass: 2
Flags: MW
ItalicCorrection: 22
HStem: 161 35<45.5 265 59 247> 268 40<87.5 137.5 238.5 240.5> 491 33<151 152>
VStem: 46 51<330.5 339.5> 177 50<338.5 385>
LayerCount: 2
Fore
SplineSet
101 268 m 0
 74 268 46 304 46 327 c 0
 46 352 51 368 83 380 c 2
 159 408 l 2
 176 414 177 416 177 432 c 2
 177 455 l 2
 177 475 164 491 140 491 c 0
 124 491 101 487 97 478 c 0
 94 471 95 461 95 453 c 0
 95 445 65 438 50 434 c 0
 46 433 43 437 46 444 c 0
 52 459 55 469 71 482 c 0
 91 499 134 524 168 524 c 0
 199 524 231 499 230 471 c 2
 227 347 l 2
 227 330 229 308 248 308 c 0
 257 308 260 312 264 314 c 0
 267 316 269 318 272 318 c 0
 277 318 282 309 282 303 c 0
 282 301 278 295 272 289 c 0
 262 279 248 268 233 268 c 0
 199 268 187 293 184 299 c 1
 180 299 l 1
 165 287 142 268 101 268 c 0
129 308 m 0
 146 308 159 319 169 327 c 0
 174 331 175 335 176 350 c 2
 177 379 l 2
 177 391 173 393 162 390 c 0
 112 376 97 356 97 342 c 0
 97 319 116 308 129 308 c 0
265 196 m 2
 271 196 279 191 279 185 c 0
 279 184 278 183 278 182 c 0
 271 169 262 161 247 161 c 2
 49 161 l 2
 42 161 35 167 35 173 c 0
 35 182 46 196 59 196 c 2
 265 196 l 2
EndSplineSet
EndChar

StartChar: guillemotleft
Encoding: 171 171 107
Width: 595
GlyphClass: 2
Flags: MW
HStem: 380 20G<312 320 523 531>
VStem: 60 101 60 475<206.5 393.5> 271 101
LayerCount: 2
Fore
SplineSet
313 19 m 0xa0
 300 19 288 32 283 37 c 0
 214 104 137 155 78 182 c 0
 68 187 60 202 60 211 c 0
 60 214 61 217 63 218 c 0
 165 279 220 316 289 382 c 0
 294 387 306 400 318 400 c 0
 322 400 324 396 324 391 c 0
 324 386 322 381 319 376 c 0
 263 291 211 251 167 217 c 0
 159 211 159 209 167 203 c 0xc0
 211 169 263 125 319 40 c 0
 321 37 322 34 322 31 c 0
 322 25 318 19 313 19 c 0xa0
524 19 m 0
 511 19 499 32 494 37 c 0
 425 104 348 155 289 182 c 0
 279 187 271 202 271 211 c 0
 271 214 272 217 274 218 c 0
 376 279 431 316 500 382 c 0
 505 387 517 400 529 400 c 0
 533 400 535 396 535 391 c 0
 535 386 533 381 530 376 c 0
 474 291 422 251 378 217 c 0
 370 211 370 209 378 203 c 0x90
 422 169 474 125 530 40 c 0
 532 37 533 34 533 31 c 0
 533 25 529 19 524 19 c 0
EndSplineSet
EndChar

StartChar: logicalnot
Encoding: 172 172 108
Width: 600
GlyphClass: 2
Flags: MW
HStem: 322 60<60.5 537 74 476>
VStem: 490 60<57 67 67 304 304 309>
LayerCount: 2
Fore
SplineSet
502 43 m 0
 496 43 490 50 490 57 c 2
 490 304 l 2
 490 314 486 322 476 322 c 2
 64 322 l 2
 57 322 50 328 50 334 c 0
 50 343 53 382 74 382 c 2
 537 382 l 2
 544 382 550 375 550 368 c 2
 550 67 l 2
 550 46 511 43 502 43 c 0
EndSplineSet
EndChar

StartChar: registered
Encoding: 174 174 109
Width: 665
GlyphClass: 2
Flags: MW
HStem: 24 34<272 418.5 272 428.5> 173 31<457 513> 320 27<324 332.5> 467 29 590 40<273.5 418.5>
VStem: 43 40<254 399.5 254 410.5> 244 60<309 312.5 357.5 367 367 426 426 437> 406 64<396.5 429> 609 40<253.5 399.5>
LayerCount: 2
Fore
SplineSet
345 24 m 0
 178 24 43 160 43 327 c 0
 43 494 179 630 346 630 c 0
 513 630 649 494 649 327 c 0
 649 160 512 24 345 24 c 0
345 58 m 0
 492 58 609 180 609 327 c 0
 609 472 491 590 346 590 c 0
 201 590 83 472 83 327 c 0
 83 181 199 58 345 58 c 0
483 173 m 0
 431 173 375 260 358 304 c 0
 355 312 345 320 320 320 c 0
 312 320 304 316 304 309 c 2
 305 231 l 2
 305 209 323 204 339 199 c 0
 348 196 358 191 358 183 c 0
 358 177 348 172 342 172 c 0
 310 172 305 176 277 176 c 0
 249 176 248 172 216 172 c 0
 210 172 200 177 200 183 c 0
 200 191 210 196 219 199 c 0
 235 204 244 209 244 231 c 2
 244 426 l 2
 244 467 241 462 221 468 c 0
 207 472 202 476 202 484 c 0
 202 492 209 497 222 496 c 0
 239 495 257 491 274 491 c 0
 305 491 335 495 366 496 c 0
 418 498 470 470 470 417 c 0
 470 376 438 348 408 337 c 0
 399 334 405 327 408 320 c 0
 428 268 483 204 511 204 c 0
 515 204 527 208 527 200 c 0
 527 182 502 173 483 173 c 0
331 347 m 0
 370 347 406 374 406 413 c 0
 406 445 377 467 342 467 c 0
 312 467 304 455 304 437 c 2
 304 367 l 2
 304 348 317 347 331 347 c 0
EndSplineSet
EndChar

StartChar: macron
Encoding: 175 175 110
Width: 300
GlyphClass: 2
Flags: MW
ItalicCorrection: 17
TopAccentHorizontal: 167
HStem: 500 55<40.5 257 54 239>
VStem: 30 240<509 546>
LayerCount: 2
Fore
SplineSet
44 500 m 2
 37 500 30 506 30 512 c 0
 30 521 35 555 54 555 c 2
 257 555 l 2
 263 555 270 549 270 543 c 0
 270 521 260 500 239 500 c 2
 44 500 l 2
EndSplineSet
EndChar

StartChar: degree
Encoding: 176 176 111
Width: 290
GlyphClass: 2
Flags: MW
HStem: 402 42<124 166 124 176.5> 602 43<124 166>
VStem: 25 43<502 545 502 558> 222 43<502 545>
LayerCount: 2
Fore
SplineSet
145 402 m 0
 82 402 25 462 25 526 c 0
 25 590 82 645 145 645 c 0
 208 645 265 592 265 528 c 0
 265 464 208 402 145 402 c 0
145 444 m 0
 187 444 222 481 222 523 c 0
 222 567 187 602 145 602 c 0
 103 602 68 567 68 523 c 0
 68 481 103 444 145 444 c 0
EndSplineSet
EndChar

StartChar: plusminus
Encoding: 177 177 112
Width: 600
GlyphClass: 2
Flags: MW
HStem: 0 50<60.5 270 74 270 330 519> 247 50<60.5 263 74 263 263 266 332.5 334 334 519>
VStem: 270 60<50 242 242 243 50 243.5 305 451 451 462>
LayerCount: 2
Fore
SplineSet
64 0 m 2
 57 0 50 6 50 12 c 0
 50 21 56 50 74 50 c 2
 270 50 l 1
 270 242 l 2
 270 245 269 247 266 247 c 2
 64 247 l 2
 57 247 50 253 50 259 c 0
 50 268 56 297 74 297 c 2
 263 297 l 2
 269 297 270 299 270 305 c 2
 270 451 l 2
 270 473 310 482 316 482 c 0
 323 482 330 476 330 469 c 2
 330 303 l 2
 330 298 330 297 332 297 c 2
 537 297 l 2
 544 297 550 293 550 287 c 0
 550 270 538 247 519 247 c 2
 334 247 l 2
 331 247 330 246 330 243 c 2
 330 50 l 1
 537 50 l 2
 544 50 550 46 550 40 c 0
 550 23 538 0 519 0 c 2
 64 0 l 2
EndSplineSet
EndChar

StartChar: acute
Encoding: 180 180 113
Width: 200
GlyphClass: 2
Flags: MW
ItalicCorrection: 12
TopAccentHorizontal: 205
HStem: 457 192<27.5 142.5>
VStem: 22 157<462.5 635>
LayerCount: 2
Fore
SplineSet
30 457 m 0
 25 457 22 459 22 466 c 0
 22 470 23 476 26 484 c 0
 40 521 87 604 103 631 c 0
 109 641 120 649 130 649 c 0
 155 649 179 642 179 628 c 0
 179 620 175 616 169 607 c 0
 145 572 87 504 61 478 c 0
 47 464 37 457 30 457 c 0
EndSplineSet
EndChar

StartChar: uni00B5
Encoding: 181 181 114
Width: 537
GlyphClass: 2
Flags: MW
HStem: -285 21G<137 162.5> -15 68<218 231 183 262> -15 90<425.5 462.5> 394 20G<101.5 126.5> 395 20G<357.5 381.5>
VStem: 86 31<-37.5 38.5> 345 88<360 383 356.5 405> 367 18
LayerCount: 2
Fore
SplineSet
153 -285 m 0xce
 121 -285 112 -265 100 -234 c 0
 91 -210 86 -75 86 0 c 2
 85 396 l 2
 85 410 91 414 112 414 c 0
 141 414 176 395 176 386 c 0xd6
 176 344 145 172 145 132 c 0
 145 106 161 53 205 53 c 0
 257 53 283 77 323 152 c 1
 338 204 345 320 345 400 c 0
 345 410 349 415 366 415 c 0
 397 415 433 389 433 377 c 0xce
 433 336 412 254 385 162 c 1
 385 125 403 75 448 75 c 0xad
 485 75 513 109 521 109 c 0
 526 109 532 105 532 100 c 0
 532 25 484 -15 441 -15 c 0
 410 -15 382 20 371 79 c 0
 369 91 368 104 367 118 c 1
 365 118 l 1xcd
 358 102 287 -15 237 -15 c 0
 199 -15 172 6 154 26 c 0
 137 44 127 62 124 62 c 0
 120 62 117 49 117 28 c 0
 117 -1 120 -94 121 -131 c 0
 123 -217 202 -236 202 -254 c 0
 202 -274 172 -285 153 -285 c 0xce
EndSplineSet
EndChar

StartChar: paragraph
Encoding: 182 182 115
Width: 595
GlyphClass: 2
Flags: MW
ItalicCorrection: 25
HStem: -289 35<264 310.5 264 316.5> -135 74<240.5 241.5> 608 40<295 468.5>
VStem: 158 42<-205.5 -169 -205.5 -145.5> 386 39<-112 94 94 99>
LayerCount: 2
Fore
SplineSet
282 -289 m 0
 218 -289 158 -247 158 -179 c 0
 158 -112 213 -61 268 -61 c 0
 313 -61 334 -84 334 -114 c 0
 334 -143 314 -163 291 -163 c 0
 278 -163 269 -157 262 -150 c 0
 254 -143 247 -135 236 -135 c 0
 220 -135 200 -152 200 -186 c 0
 200 -225 242 -254 286 -254 c 0
 335 -254 386 -219 386 -112 c 2
 386 94 l 2
 386 104 384 119 373 119 c 0
 194 119 45 202 45 383 c 0
 45 571 183 648 407 648 c 0
 462 648 532 644 547 642 c 0
 557 640 562 631 562 622 c 0
 562 613 556 592 548 592 c 0
 542 592 494 608 443 608 c 0
 433 608 425 599 425 590 c 2
 425 -112 l 2
 425 -239 351 -289 282 -289 c 0
EndSplineSet
EndChar

StartChar: periodcentered
Encoding: 183 183 116
Width: 200
GlyphClass: 2
Flags: MW
HStem: 150 110<85 115>
VStem: 45 110<190 220>
LayerCount: 2
Fore
SplineSet
100 150 m 0
 70 150 45 175 45 205 c 0
 45 235 70 260 100 260 c 0
 130 260 155 235 155 205 c 0
 155 175 130 150 100 150 c 0
EndSplineSet
EndChar

StartChar: cedilla
Encoding: 184 184 117
Width: 200
GlyphClass: 2
Flags: MW
HStem: -274 49<42.5 102> -123 131<62.5 149>
VStem: 128 50<-179 -160.5>
LayerCount: 2
Fore
SplineSet
53 -274 m 0
 32 -274 23 -264 23 -233 c 0
 23 -221 28 -214 36 -214 c 0
 46 -214 58 -225 89 -225 c 0
 115 -225 128 -206 128 -180 c 0
 128 -141 101 -123 69 -123 c 0
 56 -123 50 -129 43 -129 c 0
 36 -129 25 -123 25 -114 c 0
 25 -111 27 -107 30 -103 c 2
 118 8 l 1
 149 8 l 1
 111 -42 l 2
 108 -46 106 -49 106 -52 c 0
 106 -56 110 -60 117 -63 c 0
 149 -77 178 -106 178 -139 c 0
 178 -219 89 -274 53 -274 c 0
EndSplineSet
EndChar

StartChar: ordmasculine
Encoding: 186 186 118
Width: 309
GlyphClass: 2
Flags: MW
ItalicCorrection: 22
HStem: 161 35<35.5 271 49 253> 268 29<138 182 138 193> 493 31<126.5 171.5>
VStem: 25 63<374.5 425 374.5 425> 221 63<369 415>
LayerCount: 2
Fore
SplineSet
148 268 m 0
 81 268 25 316 25 388 c 0
 25 462 86 524 160 524 c 0
 225 524 284 469 284 404 c 0
 284 334 238 268 148 268 c 0
160 297 m 0
 204 297 221 341 221 389 c 0
 221 441 194 493 149 493 c 0
 104 493 88 448 88 402 c 0
 88 347 116 297 160 297 c 0
271 196 m 2
 277 196 285 191 285 185 c 0
 285 184 284 183 284 182 c 0
 277 169 268 161 253 161 c 2
 39 161 l 2
 32 161 25 167 25 173 c 0
 25 182 36 196 49 196 c 2
 271 196 l 2
EndSplineSet
EndChar

StartChar: guillemotright
Encoding: 187 187 119
Width: 595
GlyphClass: 2
Flags: MW
HStem: 380 20G<64 72 275 283>
VStem: 60 475<206.5 393.5> 223 101 434 101
LayerCount: 2
Fore
SplineSet
71 19 m 0xc0
 66 19 62 25 62 31 c 0
 62 34 63 37 65 40 c 0
 121 125 173 169 217 203 c 0
 225 209 225 211 217 217 c 0
 173 251 121 291 65 376 c 0
 62 381 60 386 60 391 c 0
 60 396 62 400 66 400 c 0
 78 400 90 387 95 382 c 0
 164 316 219 279 321 218 c 0
 323 217 324 214 324 211 c 0
 324 202 316 187 306 182 c 0xa0
 247 155 170 104 101 37 c 0
 96 32 84 19 71 19 c 0xc0
282 19 m 0
 277 19 273 25 273 31 c 0
 273 34 274 37 276 40 c 0
 332 125 384 169 428 203 c 0
 436 209 436 211 428 217 c 0
 384 251 332 291 276 376 c 0
 273 381 271 386 271 391 c 0
 271 396 273 400 277 400 c 0
 289 400 301 387 306 382 c 0
 375 316 430 279 532 218 c 0
 534 217 535 214 535 211 c 0
 535 202 527 187 517 182 c 0x90
 458 155 381 104 312 37 c 0
 307 32 295 19 282 19 c 0
EndSplineSet
EndChar

StartChar: questiondown
Encoding: 191 191 120
Width: 376
GlyphClass: 2
Flags: MW
HStem: -181 92<259 274.5 259 274.5> 374 120<209.5 242.5>
VStem: 65 51<-11 86.5> 166 120<417.5 450.5>
LayerCount: 2
Fore
SplineSet
226 494 m 0
 259 494 286 467 286 434 c 0
 286 401 259 374 226 374 c 0
 193 374 166 401 166 434 c 0
 166 467 193 494 226 494 c 0
240 299 m 0
 247 299 258 286 262 270 c 0
 268 249 278 228 278 183 c 0
 278 149 240 125 177 93 c 0
 149 79 116 51 116 22 c 0
 116 -44 149 -92 217 -93 c 0
 226 -93 233 -92 240 -91 c 0
 247 -90 254 -89 264 -89 c 0
 285 -89 306 -118 306 -145 c 0
 306 -164 283 -181 266 -181 c 0
 233 -181 191 -164 158 -131 c 0
 102 -75 65 11 65 62 c 0
 65 111 87 135 107 146 c 0
 151 170 161 176 193 197 c 0
 221 215 224 244 225 276 c 0
 225 286 230 299 240 299 c 0
EndSplineSet
EndChar

StartChar: Agrave
Encoding: 192 192 121
Width: 692
GlyphClass: 2
Flags: MW
ItalicCorrection: 12
HStem: -5 21G<18.5 43.5 654 676.5> -1 21G<229 246.5> 0 21G<415.5 436> 249 33<231 416 261 416 416 421 261 423>
VStem: -2 699<4 9.5 1 12.5>
LayerCount: 2
Fore
SplineSet
395 685 m 0x38
 392 685 386 687 377 694 c 0
 338 725 286 761 247 796 c 0
 238 804 234 808 234 815 c 0
 234 829 278 838 292 838 c 0
 303 838 312 835 319 825 c 0
 346 786 372 746 396 706 c 0
 399 701 401 695 401 691 c 0
 401 688 399 685 395 685 c 0x38
27 -5 m 0x98
 10 -5 -2 0 -2 8 c 0
 -2 17 9 24 31 31 c 0
 65 41 95 58 117 108 c 0
 192 279 236 393 304 578 c 0
 311 597 316 615 318 636 c 1
 330 640 342 643 354 651 c 0
 366 659 369 679 373 685 c 0
 374 686 377 686 378 684 c 0
 381 678 382 670 385 662 c 0
 449 459 530 223 563 128 c 0
 591 48 624 35 664 28 c 0
 687 24 697 14 697 5 c 0
 697 -3 685 -5 668 -5 c 0x98
 640 -5 574 1 529 1 c 0
 490 1 448 0 424 0 c 0
 407 0 395 4 395 12 c 0
 395 21 410 28 428 31 c 0
 472 38 489 54 489 76 c 0x38
 489 105 465 188 450 238 c 0
 447 248 441 249 423 249 c 2
 234 249 l 2
 228 249 222 245 217 231 c 0
 208 205 176 100 176 87 c 0
 176 58 202 38 234 30 c 0
 257 24 267 19 267 10 c 0
 267 2 255 -1 238 -1 c 0x58
 220 -1 184 1 147 1 c 0
 103 1 60 -5 27 -5 c 0x98
261 282 m 2x38
 416 282 l 2
 426 282 430 282 430 287 c 0
 430 289 429 293 428 297 c 2
 350 541 l 2
 346 553 344 559 341 559 c 0
 339 559 337 553 333 542 c 2
 242 297 l 2
 241 294 240 291 240 289 c 0
 240 282 248 282 261 282 c 2x38
EndSplineSet
EndChar

StartChar: Aacute
Encoding: 193 193 122
Width: 692
GlyphClass: 2
Flags: MW
ItalicCorrection: 12
HStem: -5 21G<18.5 43.5 654 676.5> -1 21G<229 246.5> 0 21G<415.5 436> 249 33<231 416 261 416 416 421 261 423>
VStem: -2 699<4 9.5 1 12.5>
LayerCount: 2
Fore
SplineSet
330 685 m 0x38
 326 685 324 688 324 691 c 0
 324 695 326 701 329 706 c 0
 353 746 379 786 406 825 c 0
 413 835 422 838 433 838 c 0
 447 838 491 829 491 815 c 0
 491 808 487 804 478 796 c 0
 439 761 387 725 348 694 c 0
 339 687 333 685 330 685 c 0x38
27 -5 m 0x98
 10 -5 -2 0 -2 8 c 0
 -2 17 9 24 31 31 c 0
 65 41 95 58 117 108 c 0
 192 279 236 393 304 578 c 0
 311 597 316 615 318 636 c 1
 330 640 342 643 354 651 c 0
 366 659 369 679 373 685 c 0
 374 686 377 686 378 684 c 0
 381 678 382 670 385 662 c 0
 449 459 530 223 563 128 c 0
 591 48 624 35 664 28 c 0
 687 24 697 14 697 5 c 0
 697 -3 685 -5 668 -5 c 0x98
 640 -5 574 1 529 1 c 0
 490 1 448 0 424 0 c 0
 407 0 395 4 395 12 c 0
 395 21 410 28 428 31 c 0
 472 38 489 54 489 76 c 0x38
 489 105 465 188 450 238 c 0
 447 248 441 249 423 249 c 2
 234 249 l 2
 228 249 222 245 217 231 c 0
 208 205 176 100 176 87 c 0
 176 58 202 38 234 30 c 0
 257 24 267 19 267 10 c 0
 267 2 255 -1 238 -1 c 0x58
 220 -1 184 1 147 1 c 0
 103 1 60 -5 27 -5 c 0x98
261 282 m 2x38
 416 282 l 2
 426 282 430 282 430 287 c 0
 430 289 429 293 428 297 c 2
 350 541 l 2
 346 553 344 559 341 559 c 0
 339 559 337 553 333 542 c 2
 242 297 l 2
 241 294 240 291 240 289 c 0
 240 282 248 282 261 282 c 2x38
EndSplineSet
EndChar

StartChar: Acircumflex
Encoding: 194 194 123
Width: 692
GlyphClass: 2
Flags: MW
ItalicCorrection: 12
HStem: -5 21G<18.5 43.5 654 676.5> -1 21G<229 246.5> 0 21G<415.5 436> 249 33<231 416 261 416 416 421 261 423> 754.75 68.25
VStem: -2 699<4 9.5 1 12.5>
LayerCount: 2
Fore
SplineSet
232 696 m 0x3c
 223 696 217 700 217 706 c 0
 217 710 219 714 224 718 c 2
 322 801 l 2
 341 817 348 823 363 823 c 0
 378 823 385 817 404 801 c 2
 502 718 l 2
 507 714 508 710 508 706 c 0
 508 700 503 695 494 695 c 0
 481 695 399 736 373 751 c 0
 364 756 362 756 353 751 c 0
 327 736 245 696 232 696 c 0x3c
27 -5 m 0x9c
 10 -5 -2 0 -2 8 c 0
 -2 17 9 24 31 31 c 0
 65 41 95 58 117 108 c 0
 192 279 236 393 304 578 c 0
 311 597 316 615 318 636 c 1
 330 640 342 643 354 651 c 0
 366 659 369 679 373 685 c 0
 374 686 377 686 378 684 c 0
 381 678 382 670 385 662 c 0
 449 459 530 223 563 128 c 0
 591 48 624 35 664 28 c 0
 687 24 697 14 697 5 c 0
 697 -3 685 -5 668 -5 c 0x9c
 640 -5 574 1 529 1 c 0
 490 1 448 0 424 0 c 0
 407 0 395 4 395 12 c 0
 395 21 410 28 428 31 c 0
 472 38 489 54 489 76 c 0x3c
 489 105 465 188 450 238 c 0
 447 248 441 249 423 249 c 2
 234 249 l 2
 228 249 222 245 217 231 c 0
 208 205 176 100 176 87 c 0
 176 58 202 38 234 30 c 0
 257 24 267 19 267 10 c 0
 267 2 255 -1 238 -1 c 0x5c
 220 -1 184 1 147 1 c 0
 103 1 60 -5 27 -5 c 0x9c
261 282 m 2x3c
 416 282 l 2
 426 282 430 282 430 287 c 0
 430 289 429 293 428 297 c 2
 350 541 l 2
 346 553 344 559 341 559 c 0
 339 559 337 553 333 542 c 2
 242 297 l 2
 241 294 240 291 240 289 c 0
 240 282 248 282 261 282 c 2x3c
EndSplineSet
EndChar

StartChar: Atilde
Encoding: 195 195 124
Width: 692
GlyphClass: 2
Flags: MW
ItalicCorrection: 12
HStem: -5 21G<18.5 43.5 654 676.5> -1 21G<229 246.5> 0 21G<415.5 436> 249 33<231 416 261 416 416 421 261 423> 727 65<304.5 321.5>
VStem: -2 699<4 9.5 1 12.5>
LayerCount: 2
Fore
SplineSet
251 692 m 0x3c
 244 692 235 701 235 708 c 0
 235 718 292 792 317 792 c 0
 339 792 366 791 385 789 c 0
 407 787 431 785 449 785 c 0
 464 785 478 794 488 804 c 0
 497 813 504 824 508 824 c 0
 518 824 527 817 527 807 c 0
 527 803 520 796 513 789 c 0
 497 773 479 749 466 733 c 0
 458 723 441 719 437 719 c 0
 421 719 337 727 306 727 c 0
 296 727 281 722 273 715 c 0
 261 705 254 692 251 692 c 0x3c
27 -5 m 0x9c
 10 -5 -2 0 -2 8 c 0
 -2 17 9 24 31 31 c 0
 65 41 95 58 117 108 c 0
 192 279 236 393 304 578 c 0
 311 597 316 615 318 636 c 1
 330 640 342 643 354 651 c 0
 366 659 369 679 373 685 c 0
 374 686 377 686 378 684 c 0
 381 678 382 670 385 662 c 0
 449 459 530 223 563 128 c 0
 591 48 624 35 664 28 c 0
 687 24 697 14 697 5 c 0
 697 -3 685 -5 668 -5 c 0x9c
 640 -5 574 1 529 1 c 0
 490 1 448 0 424 0 c 0
 407 0 395 4 395 12 c 0
 395 21 410 28 428 31 c 0
 472 38 489 54 489 76 c 0x3c
 489 105 465 188 450 238 c 0
 447 248 441 249 423 249 c 2
 234 249 l 2
 228 249 222 245 217 231 c 0
 208 205 176 100 176 87 c 0
 176 58 202 38 234 30 c 0
 257 24 267 19 267 10 c 0
 267 2 255 -1 238 -1 c 0x5c
 220 -1 184 1 147 1 c 0
 103 1 60 -5 27 -5 c 0x9c
261 282 m 2x3c
 416 282 l 2
 426 282 430 282 430 287 c 0
 430 289 429 293 428 297 c 2
 350 541 l 2
 346 553 344 559 341 559 c 0
 339 559 337 553 333 542 c 2
 242 297 l 2
 241 294 240 291 240 289 c 0
 240 282 248 282 261 282 c 2x3c
EndSplineSet
EndChar

StartChar: Adieresis
Encoding: 196 196 125
Width: 692
GlyphClass: 2
Flags: MW
ItalicCorrection: 12
HStem: -5 21G<18.5 43.5 654 676.5> -1 21G<229 246.5> 0 21G<415.5 436> 249 33<231 416 261 416 416 421 261 423> 695 100<252 280 447 475>
VStem: 216 100<731 759> 411 100<731 759>
LayerCount: 2
Fore
SplineSet
266 695 m 0x3e
 238 695 216 717 216 745 c 0
 216 773 238 795 266 795 c 0
 294 795 316 773 316 745 c 0
 316 717 294 695 266 695 c 0x3e
461 695 m 0
 433 695 411 717 411 745 c 0
 411 773 433 795 461 795 c 0
 489 795 511 773 511 745 c 0
 511 717 489 695 461 695 c 0
27 -5 m 0x9e
 10 -5 -2 0 -2 8 c 0
 -2 17 9 24 31 31 c 0
 65 41 95 58 117 108 c 0
 192 279 236 393 304 578 c 0
 311 597 316 615 318 636 c 1
 330 640 342 643 354 651 c 0
 366 659 369 679 373 685 c 0
 374 686 377 686 378 684 c 0
 381 678 382 670 385 662 c 0
 449 459 530 223 563 128 c 0
 591 48 624 35 664 28 c 0
 687 24 697 14 697 5 c 0
 697 -3 685 -5 668 -5 c 0x9e
 640 -5 574 1 529 1 c 0
 490 1 448 0 424 0 c 0
 407 0 395 4 395 12 c 0
 395 21 410 28 428 31 c 0
 472 38 489 54 489 76 c 0x3e
 489 105 465 188 450 238 c 0
 447 248 441 249 423 249 c 2
 234 249 l 2
 228 249 222 245 217 231 c 0
 208 205 176 100 176 87 c 0
 176 58 202 38 234 30 c 0
 257 24 267 19 267 10 c 0
 267 2 255 -1 238 -1 c 0x5e
 220 -1 184 1 147 1 c 0
 103 1 60 -5 27 -5 c 0x9e
261 282 m 2x3e
 416 282 l 2
 426 282 430 282 430 287 c 0
 430 289 429 293 428 297 c 2
 350 541 l 2
 346 553 344 559 341 559 c 0
 339 559 337 553 333 542 c 2
 242 297 l 2
 241 294 240 291 240 289 c 0
 240 282 248 282 261 282 c 2x3e
EndSplineSet
EndChar

StartChar: Aring
Encoding: 197 197 126
Width: 692
GlyphClass: 2
Flags: MW
ItalicCorrection: 12
HStem: -5 21G<18.5 43.5 654 676.5> -1 21G<229 246.5> 0 21G<415.5 436> 249 33<231 416 261 416 416 421 261 423> 700 22<348 374.5 348 376.5> 821 23<341 367.5>
VStem: 270 42<758 785 758 792> 402 42<759.5 785.5>
LayerCount: 2
Fore
SplineSet
361 844 m 0x3f
 403 844 444 819 444 777 c 0
 444 730 400 700 353 700 c 0
 310 700 270 726 270 769 c 0
 270 815 315 844 361 844 c 0x3f
312 772 m 0
 312 744 334 722 362 722 c 0
 387 722 402 747 402 772 c 0
 402 799 381 821 354 821 c 0
 328 821 312 798 312 772 c 0
27 -5 m 0x9f
 10 -5 -2 0 -2 8 c 0
 -2 17 9 24 31 31 c 0
 65 41 95 58 117 108 c 0
 192 279 236 393 304 578 c 0
 311 597 316 615 318 636 c 1
 330 640 342 643 354 651 c 0
 366 659 369 679 373 685 c 0
 374 686 377 686 378 684 c 0
 381 678 382 670 385 662 c 0
 449 459 530 223 563 128 c 0
 591 48 624 35 664 28 c 0
 687 24 697 14 697 5 c 0
 697 -3 685 -5 668 -5 c 0x9f
 640 -5 574 1 529 1 c 0
 490 1 448 0 424 0 c 0
 407 0 395 4 395 12 c 0
 395 21 410 28 428 31 c 0
 472 38 489 54 489 76 c 0x3f
 489 105 465 188 450 238 c 0
 447 248 441 249 423 249 c 2
 234 249 l 2
 228 249 222 245 217 231 c 0
 208 205 176 100 176 87 c 0
 176 58 202 38 234 30 c 0
 257 24 267 19 267 10 c 0
 267 2 255 -1 238 -1 c 0x5f
 220 -1 184 1 147 1 c 0
 103 1 60 -5 27 -5 c 0x9f
261 282 m 2x3f
 416 282 l 2
 426 282 430 282 430 287 c 0
 430 289 429 293 428 297 c 2
 350 541 l 2
 346 553 344 559 341 559 c 0
 339 559 337 553 333 542 c 2
 242 297 l 2
 241 294 240 291 240 289 c 0
 240 282 248 282 261 282 c 2x3f
EndSplineSet
EndChar

StartChar: AE
Encoding: 198 198 127
Width: 872
GlyphClass: 2
Flags: MW
HStem: -5 40 -1 21G<230 247.5> 285 43<283.5 438 314 432> 292 35<550 571 545 575.5> 598.13 52.87 618 35
VStem: 454 79<96 111 111 267 267 269 343.5 349 349 580 580 592>
LayerCount: 2
Fore
SplineSet
24 -5 m 0xa6
 7 -5 -5 -2 -5 6 c 0
 -5 15 6 21 28 28 c 0
 62 38 104 78 132 126 c 2
 405 594 l 2
 410 602 401 610 388 611 c 2
 300 626 l 2
 293 629 290 634 290 639 c 0
 290 645 294 651 300 651 c 0
 342 651 407 648 475 648 c 0
 584 648 733 653 784 653 c 0
 791 653 801 651 802 644 c 0
 809 606 813 576 814 541 c 0
 814 535 806 532 800 532 c 0
 793 532 791 535 789 542 c 0
 782 564 775 581 766 591 c 0
 747 612 724 618 699 618 c 2
 568 618 l 2
 557 618 533 610 533 592 c 2
 533 349 l 2
 533 338 540 327 550 327 c 0
 592 327 622 328 646 329 c 0
 665 330 678 336 690 347 c 0
 708 363 712 388 725 388 c 0
 730 388 739 381 738 372 c 0
 736 349 735 331 735 313 c 0
 735 290 736 269 738 240 c 0
 738 231 737 223 729 223 c 0
 716 223 708 239 706 246 c 0
 696 277 675 289 659 290 c 0
 617 292 595 292 556 292 c 0
 544 292 533 285 533 269 c 2
 533 111 l 2
 533 73 553 35 598 35 c 2
 702 35 l 2
 707 35 765 43 778 53 c 0
 796 67 812 99 820 116 c 0
 824 124 827 127 834 126 c 0
 841 125 847 121 847 115 c 0
 847 77 838 43 830 12 c 0
 828 4 826 -5 816 -5 c 0
 702 -5 606 1 492 1 c 0
 447 1 431 -5 377 -5 c 0
 360 -5 348 -2 348 6 c 0
 348 15 358 20 381 24 c 0x96
 430 33 454 50 454 96 c 2
 454 267 l 2
 454 277 452 285 432 285 c 2
 291 285 l 2
 276 285 268 275 261 262 c 0
 235 217 211 174 179 112 c 0
 173 101 170 91 170 82 c 0
 170 50 206 37 235 30 c 0
 258 24 268 19 268 10 c 0
 268 2 256 -1 239 -1 c 0x66
 221 -1 186 1 150 1 c 0
 105 1 57 -5 24 -5 c 0xa6
314 328 m 2
 438 328 l 2
 453 328 454 328 454 343 c 2
 454 580 l 2
 454 604 451 604 438 581 c 2xaa
 302 343 l 2
 299 338 298 335 298 333 c 0
 298 329 303 328 314 328 c 2
EndSplineSet
EndChar

StartChar: Ccedilla
Encoding: 199 199 128
Width: 710
GlyphClass: 2
Flags: MW
HStem: -275 53<344.5 357.5> -15 31<414 414> -14 30<382 382> 632 31<337 442.5>
VStem: 46 101<265.5 420> 411 53<-193 -164>
LayerCount: 2
Fore
SplineSet
621 141 m 0x5c
 630 158 655 159 655 138 c 0
 655 122 640 70 628 41 c 0
 618 22 617 21 596 14 c 0
 549 -5 477 -14 414 -15 c 1
 392 -48 l 2
 385 -58 388 -66 398 -70 c 0x5c
 426 -81 464 -112 464 -159 c 0
 464 -227 380 -275 335 -275 c 0
 306 -275 290 -263 290 -243 c 0
 290 -220 298 -209 306 -209 c 0
 314 -209 320 -222 369 -222 c 0
 398 -222 411 -205 411 -183 c 0
 411 -145 391 -129 364 -129 c 0
 352 -129 347 -132 338 -132 c 0
 321 -132 312 -121 312 -115 c 0
 312 -108 315 -104 318 -100 c 2
 382 -14 l 1xbc
 205 -3 46 128 46 323 c 0
 46 517 227 663 432 663 c 0
 509 663 542 654 610 637 c 0
 630 632 637 621 639 603 c 0
 642 572 646 540 648 488 c 0
 649 473 620 464 614 487 c 0
 601 538 587 574 552 598 c 0
 519 620 470 632 415 632 c 0
 259 632 147 494 147 347 c 0
 147 184 256 16 422 16 c 0
 518 16 577 62 621 141 c 0x5c
EndSplineSet
EndChar

StartChar: Egrave
Encoding: 200 200 129
Width: 564
GlyphClass: 2
Flags: MW
ItalicCorrection: 14
HStem: -5 40 320 32<246.5 258 258 341 341 351> 618 32<254.5 260 260 272 215 391> 618 35
VStem: 144 80<99 102 102 294 368 374 374 549 549 573>
LayerCount: 2
Fore
SplineSet
330 685 m 0xe8
 327 685 321 687 312 694 c 0
 273 725 221 761 182 796 c 0
 173 804 169 808 169 815 c 0
 169 829 213 838 227 838 c 0
 238 838 247 835 254 825 c 0
 281 786 307 746 331 706 c 0
 334 701 336 695 336 691 c 0
 336 688 334 685 330 685 c 0xe8
66 -5 m 0
 49 -5 37 -2 37 6 c 0
 37 15 47 20 70 24 c 0
 120 33 144 51 144 99 c 2
 144 549 l 2
 144 597 127 613 77 622 c 0
 54 626 44 633 44 642 c 0
 44 650 56 653 73 653 c 0xd8
 148 653 180 650 250 650 c 0
 294 650 345 651 387 651 c 2xe8
 472 653 l 2
 479 653 489 651 490 644 c 0xd8
 497 606 505 568 505 541 c 0
 505 529 497 526 491 526 c 0
 484 526 482 529 480 536 c 0
 473 558 467 581 458 591 c 0
 439 612 416 618 391 618 c 2
 260 618 l 2
 249 618 224 605 224 586 c 2
 224 374 l 2
 224 362 232 352 242 352 c 2
 341 352 l 2
 380 352 389 364 399 401 c 0
 403 416 409 423 417 423 c 0
 422 423 430 417 430 407 c 0
 430 398 427 353 427 337 c 0
 427 317 429 268 429 260 c 0
 429 251 428 243 420 243 c 0
 410 243 402 254 397 275 c 0
 389 306 377 320 351 320 c 2
 258 320 l 2
 235 320 224 317 224 294 c 2
 224 102 l 2
 224 51 245 35 290 35 c 2
 364 35 l 2
 407 35 434 39 455 52 c 0
 476 66 491 89 512 129 c 0
 516 137 521 143 528 142 c 0
 535 141 539 136 539 128 c 0
 539 110 520 39 508 12 c 0
 504 3 502 -5 494 -5 c 0
 366 -5 281 1 181 1 c 0
 136 1 120 -5 66 -5 c 0
EndSplineSet
EndChar

StartChar: Eacute
Encoding: 201 201 130
Width: 564
GlyphClass: 2
Flags: MW
ItalicCorrection: 14
HStem: -5 40 320 32<246.5 258 258 341 341 351> 618 32<254.5 260 260 272 215 391> 618 35
VStem: 144 80<99 102 102 294 368 374 374 549 549 573>
LayerCount: 2
Fore
SplineSet
265 685 m 0xe8
 261 685 259 688 259 691 c 0
 259 695 261 701 264 706 c 0
 288 746 314 786 341 825 c 0
 348 835 357 838 368 838 c 0
 382 838 426 829 426 815 c 0
 426 808 422 804 413 796 c 0
 374 761 322 725 283 694 c 0
 274 687 268 685 265 685 c 0xe8
66 -5 m 0
 49 -5 37 -2 37 6 c 0
 37 15 47 20 70 24 c 0
 120 33 144 51 144 99 c 2
 144 549 l 2
 144 597 127 613 77 622 c 0
 54 626 44 633 44 642 c 0
 44 650 56 653 73 653 c 0xd8
 148 653 180 650 250 650 c 0
 294 650 345 651 387 651 c 2xe8
 472 653 l 2
 479 653 489 651 490 644 c 0xd8
 497 606 505 568 505 541 c 0
 505 529 497 526 491 526 c 0
 484 526 482 529 480 536 c 0
 473 558 467 581 458 591 c 0
 439 612 416 618 391 618 c 2
 260 618 l 2
 249 618 224 605 224 586 c 2
 224 374 l 2
 224 362 232 352 242 352 c 2
 341 352 l 2
 380 352 389 364 399 401 c 0
 403 416 409 423 417 423 c 0
 422 423 430 417 430 407 c 0
 430 398 427 353 427 337 c 0
 427 317 429 268 429 260 c 0
 429 251 428 243 420 243 c 0
 410 243 402 254 397 275 c 0
 389 306 377 320 351 320 c 2
 258 320 l 2
 235 320 224 317 224 294 c 2
 224 102 l 2
 224 51 245 35 290 35 c 2
 364 35 l 2
 407 35 434 39 455 52 c 0
 476 66 491 89 512 129 c 0
 516 137 521 143 528 142 c 0
 535 141 539 136 539 128 c 0
 539 110 520 39 508 12 c 0
 504 3 502 -5 494 -5 c 0
 366 -5 281 1 181 1 c 0
 136 1 120 -5 66 -5 c 0
EndSplineSet
EndChar

StartChar: Ecircumflex
Encoding: 202 202 131
Width: 564
GlyphClass: 2
Flags: MW
ItalicCorrection: 14
HStem: -5 40 320 32<246.5 258 258 341 341 351> 618 32<254.5 260 260 272 215 391> 618 35 754.75 68.25
VStem: 144 80<99 102 102 294 368 374 374 549 549 573>
LayerCount: 2
Fore
SplineSet
167 696 m 0xec
 158 696 152 700 152 706 c 0
 152 710 154 714 159 718 c 2
 257 801 l 2
 276 817 283 823 298 823 c 0
 313 823 320 817 339 801 c 2
 437 718 l 2
 442 714 443 710 443 706 c 0
 443 700 438 695 429 695 c 0
 416 695 334 736 308 751 c 0
 299 756 297 756 288 751 c 0
 262 736 180 696 167 696 c 0xec
66 -5 m 0
 49 -5 37 -2 37 6 c 0
 37 15 47 20 70 24 c 0
 120 33 144 51 144 99 c 2
 144 549 l 2
 144 597 127 613 77 622 c 0
 54 626 44 633 44 642 c 0
 44 650 56 653 73 653 c 0xdc
 148 653 180 650 250 650 c 0
 294 650 345 651 387 651 c 2xec
 472 653 l 2
 479 653 489 651 490 644 c 0xdc
 497 606 505 568 505 541 c 0
 505 529 497 526 491 526 c 0
 484 526 482 529 480 536 c 0
 473 558 467 581 458 591 c 0
 439 612 416 618 391 618 c 2
 260 618 l 2
 249 618 224 605 224 586 c 2
 224 374 l 2
 224 362 232 352 242 352 c 2
 341 352 l 2
 380 352 389 364 399 401 c 0
 403 416 409 423 417 423 c 0
 422 423 430 417 430 407 c 0
 430 398 427 353 427 337 c 0
 427 317 429 268 429 260 c 0
 429 251 428 243 420 243 c 0
 410 243 402 254 397 275 c 0
 389 306 377 320 351 320 c 2
 258 320 l 2
 235 320 224 317 224 294 c 2
 224 102 l 2
 224 51 245 35 290 35 c 2
 364 35 l 2
 407 35 434 39 455 52 c 0
 476 66 491 89 512 129 c 0
 516 137 521 143 528 142 c 0
 535 141 539 136 539 128 c 0
 539 110 520 39 508 12 c 0
 504 3 502 -5 494 -5 c 0
 366 -5 281 1 181 1 c 0
 136 1 120 -5 66 -5 c 0
EndSplineSet
EndChar

StartChar: Edieresis
Encoding: 203 203 132
Width: 564
GlyphClass: 2
Flags: MW
ItalicCorrection: 14
HStem: -5 40 320 32<246.5 258 258 341 341 351> 618 32<254.5 260 260 272 215 391> 618 35 695 100<187 215 382 410>
VStem: 144 80<99 102 102 294 368 374 374 549 549 573> 151 100<731 759> 346 100<731 759>
LayerCount: 2
Fore
SplineSet
201 695 m 0xeb
 173 695 151 717 151 745 c 0
 151 773 173 795 201 795 c 0
 229 795 251 773 251 745 c 0
 251 717 229 695 201 695 c 0xeb
396 695 m 0
 368 695 346 717 346 745 c 0
 346 773 368 795 396 795 c 0
 424 795 446 773 446 745 c 0
 446 717 424 695 396 695 c 0
66 -5 m 0
 49 -5 37 -2 37 6 c 0
 37 15 47 20 70 24 c 0
 120 33 144 51 144 99 c 2
 144 549 l 2
 144 597 127 613 77 622 c 0
 54 626 44 633 44 642 c 0
 44 650 56 653 73 653 c 0xd4
 148 653 180 650 250 650 c 0
 294 650 345 651 387 651 c 2xe4
 472 653 l 2
 479 653 489 651 490 644 c 0xd4
 497 606 505 568 505 541 c 0
 505 529 497 526 491 526 c 0
 484 526 482 529 480 536 c 0
 473 558 467 581 458 591 c 0
 439 612 416 618 391 618 c 2
 260 618 l 2
 249 618 224 605 224 586 c 2
 224 374 l 2
 224 362 232 352 242 352 c 2
 341 352 l 2
 380 352 389 364 399 401 c 0
 403 416 409 423 417 423 c 0
 422 423 430 417 430 407 c 0
 430 398 427 353 427 337 c 0
 427 317 429 268 429 260 c 0
 429 251 428 243 420 243 c 0
 410 243 402 254 397 275 c 0
 389 306 377 320 351 320 c 2
 258 320 l 2
 235 320 224 317 224 294 c 2
 224 102 l 2
 224 51 245 35 290 35 c 2xe4
 364 35 l 2
 407 35 434 39 455 52 c 0
 476 66 491 89 512 129 c 0
 516 137 521 143 528 142 c 0
 535 141 539 136 539 128 c 0
 539 110 520 39 508 12 c 0
 504 3 502 -5 494 -5 c 0
 366 -5 281 1 181 1 c 0
 136 1 120 -5 66 -5 c 0
EndSplineSet
EndChar

StartChar: Igrave
Encoding: 204 204 133
Width: 340
GlyphClass: 2
Flags: MW
ItalicCorrection: 10
HStem: -5 21G<39.5 75 266 301.5> 633 20G<50.5 86 258 293.5>
VStem: 130 80<98 550>
LayerCount: 2
Fore
SplineSet
202 685 m 0
 199 685 193 687 184 694 c 0
 145 725 93 761 54 796 c 0
 45 804 41 808 41 815 c 0
 41 829 85 838 99 838 c 0
 110 838 119 835 126 825 c 0
 153 786 179 746 203 706 c 0
 206 701 208 695 208 691 c 0
 208 688 206 685 202 685 c 0
48 -5 m 0
 31 -5 19 -2 19 6 c 0
 19 15 29 20 52 24 c 0
 102 33 130 51 130 98 c 2
 130 550 l 2
 130 597 113 613 63 622 c 0
 40 626 30 633 30 642 c 0
 30 650 42 653 59 653 c 0
 113 653 130 650 176 650 c 0
 219 650 231 653 285 653 c 0
 302 653 314 650 314 642 c 0
 314 633 304 626 281 622 c 0
 231 613 210 597 210 550 c 2
 210 98 l 2
 210 51 239 33 289 24 c 0
 312 20 322 15 322 6 c 0
 322 -2 310 -5 293 -5 c 0
 239 -5 222 0 176 0 c 0
 126 0 102 -5 48 -5 c 0
EndSplineSet
EndChar

StartChar: Iacute
Encoding: 205 205 134
Width: 340
GlyphClass: 2
Flags: MW
ItalicCorrection: 16
HStem: -5 21G<39.5 75 266 301.5> 633 20G<50.5 86 258 293.5>
VStem: 130 80<98 550>
LayerCount: 2
Fore
SplineSet
137 685 m 0
 133 685 131 688 131 691 c 0
 131 695 133 701 136 706 c 0
 160 746 186 786 213 825 c 0
 220 835 229 838 240 838 c 0
 254 838 298 829 298 815 c 0
 298 808 294 804 285 796 c 0
 246 761 194 725 155 694 c 0
 146 687 140 685 137 685 c 0
48 -5 m 0
 31 -5 19 -2 19 6 c 0
 19 15 29 20 52 24 c 0
 102 33 130 51 130 98 c 2
 130 550 l 2
 130 597 113 613 63 622 c 0
 40 626 30 633 30 642 c 0
 30 650 42 653 59 653 c 0
 113 653 130 650 176 650 c 0
 219 650 231 653 285 653 c 0
 302 653 314 650 314 642 c 0
 314 633 304 626 281 622 c 0
 231 613 210 597 210 550 c 2
 210 98 l 2
 210 51 239 33 289 24 c 0
 312 20 322 15 322 6 c 0
 322 -2 310 -5 293 -5 c 0
 239 -5 222 0 176 0 c 0
 126 0 102 -5 48 -5 c 0
EndSplineSet
EndChar

StartChar: Icircumflex
Encoding: 206 206 135
Width: 340
GlyphClass: 2
Flags: MW
ItalicCorrection: 35
HStem: -5 21G<39.5 75 266 301.5> 633 20G<50.5 86 258 293.5> 754.75 68.25
VStem: 130 80<98 550>
LayerCount: 2
Fore
SplineSet
39 696 m 0
 30 696 24 700 24 706 c 0
 24 710 26 714 31 718 c 2
 129 801 l 2
 148 817 155 823 170 823 c 0
 185 823 192 817 211 801 c 2
 309 718 l 2
 314 714 315 710 315 706 c 0
 315 700 310 695 301 695 c 0
 288 695 206 736 180 751 c 0
 171 756 169 756 160 751 c 0
 134 736 52 696 39 696 c 0
48 -5 m 0
 31 -5 19 -2 19 6 c 0
 19 15 29 20 52 24 c 0
 102 33 130 51 130 98 c 2
 130 550 l 2
 130 597 113 613 63 622 c 0
 40 626 30 633 30 642 c 0
 30 650 42 653 59 653 c 0
 113 653 130 650 176 650 c 0
 219 650 231 653 285 653 c 0
 302 653 314 650 314 642 c 0
 314 633 304 626 281 622 c 0
 231 613 210 597 210 550 c 2
 210 98 l 2
 210 51 239 33 289 24 c 0
 312 20 322 15 322 6 c 0
 322 -2 310 -5 293 -5 c 0
 239 -5 222 0 176 0 c 0
 126 0 102 -5 48 -5 c 0
EndSplineSet
EndChar

StartChar: Idieresis
Encoding: 207 207 136
Width: 340
GlyphClass: 2
Flags: MW
ItalicCorrection: 11
HStem: -5 21G<39.5 75 266 301.5> 633 20G<50.5 86 258 293.5> 695 100<59 87 254 282>
VStem: 23 100<731 759> 130 80<98 550> 218 100<731 759>
LayerCount: 2
Fore
SplineSet
73 695 m 0
 45 695 23 717 23 745 c 0
 23 773 45 795 73 795 c 0
 101 795 123 773 123 745 c 0
 123 717 101 695 73 695 c 0
268 695 m 0
 240 695 218 717 218 745 c 0
 218 773 240 795 268 795 c 0
 296 795 318 773 318 745 c 0
 318 717 296 695 268 695 c 0
48 -5 m 0
 31 -5 19 -2 19 6 c 0
 19 15 29 20 52 24 c 0
 102 33 130 51 130 98 c 2
 130 550 l 2
 130 597 113 613 63 622 c 0
 40 626 30 633 30 642 c 0
 30 650 42 653 59 653 c 0
 113 653 130 650 176 650 c 0
 219 650 231 653 285 653 c 0
 302 653 314 650 314 642 c 0
 314 633 304 626 281 622 c 0
 231 613 210 597 210 550 c 2
 210 98 l 2
 210 51 239 33 289 24 c 0
 312 20 322 15 322 6 c 0
 322 -2 310 -5 293 -5 c 0
 239 -5 222 0 176 0 c 0
 126 0 102 -5 48 -5 c 0
EndSplineSet
EndChar

StartChar: Eth
Encoding: 208 208 137
Width: 754
GlyphClass: 2
Flags: MW
HStem: -7 35<361 437 321.5 466.5> 0 21G<143 202.5> 317 36<55.5 129 70 129 70 129 209 359> 628 25 628 31<326.5 413.5>
VStem: 129 80<99 121 121 317 353 549 549 567> 624 95<246 421>
LayerCount: 2
Fore
SplineSet
340 659 m 0xae
 611 659 719 517 719 342 c 0xae
 719 150 562 -7 371 -7 c 0
 351 -7 242 0 163 0 c 0x6e
 123 0 111 -5 58 -5 c 0
 41 -5 29 -2 29 8 c 0
 29 19 39 20 62 24 c 0
 112 33 129 51 129 99 c 2
 129 317 l 1
 60 317 l 2
 51 317 46 329 46 335 c 0
 46 344 58 353 70 353 c 2
 129 353 l 1
 129 549 l 2
 129 597 112 613 62 622 c 0
 39 626 29 629 29 640 c 0
 29 649 41 653 58 653 c 0xb6
 109 653 121 651 169 651 c 0
 212 651 313 659 340 659 c 0xae
359 28 m 0
 515 28 624 151 624 325 c 0
 624 517 482 628 345 628 c 0
 258 628 209 627 209 567 c 2
 209 353 l 1
 377 353 l 2
 383 353 391 348 391 342 c 0
 391 341 390 340 390 339 c 0
 383 326 374 317 359 317 c 2
 209 317 l 1
 209 121 l 2
 209 40 284 28 359 28 c 0
EndSplineSet
EndChar

StartChar: Ntilde
Encoding: 209 209 138
Width: 792
GlyphClass: 2
Flags: MW
ItalicCorrection: 13
HStem: -5 21G<53.5 89 220 255.5> 630 20G<581 638 638 662> 633 20G<153 195 722.5 761.5> 638 20G<31.5 35> 727 65<347.5 364.5>
VStem: 142 42<479 483 479 542.5> 643 41
LayerCount: 2
Fore
SplineSet
294 692 m 0x9e
 287 692 278 701 278 708 c 0
 278 718 335 792 360 792 c 0
 382 792 409 791 428 789 c 0
 450 787 474 785 492 785 c 0
 507 785 521 794 531 804 c 0
 540 813 547 824 551 824 c 0
 561 824 570 817 570 807 c 0
 570 803 563 796 556 789 c 0
 540 773 522 749 509 733 c 0
 501 723 484 719 480 719 c 0
 464 719 380 727 349 727 c 0
 339 727 324 722 316 715 c 0
 304 705 297 692 294 692 c 0x9e
668 -17 m 0
 656 -17 614 2 582 46 c 0
 564 71 237 456 214 484 c 0
 204 496 198 500 193 500 c 0
 186 500 184 487 184 479 c 0
 182 380 179 227 179 104 c 0
 179 68 193 33 243 24 c 0
 266 20 276 15 276 6 c 0
 276 -2 264 -5 247 -5 c 0
 193 -5 190 0 153 0 c 0
 117 0 116 -5 62 -5 c 0
 45 -5 33 -2 33 6 c 0
 33 15 43 19 66 25 c 0
 104 35 120 66 124 107 c 0
 132 182 142 342 142 507 c 0
 142 578 102 601 43 620 c 0
 37 622 12 632 12 644 c 0
 12 656 28 658 35 658 c 0x9e
 113 656 117 653 189 653 c 0
 201 653 206 645 213 636 c 0xae
 232 609 586 180 606 156 c 0
 611 150 623 136 631 136 c 0
 636 136 640 142 641 157 c 0
 642 195 643 381 643 564 c 0
 642 590 607 615 585 619 c 0
 562 623 540 630 540 639 c 0
 540 647 564 650 581 650 c 2
 638 650 l 2xce
 686 650 692 653 753 653 c 0
 770 653 782 650 782 642 c 0
 782 633 772 626 749 622 c 0
 699 613 688 601 686 568 c 0xae
 685 550 684 263 684 105 c 0
 684 57 689 21 689 8 c 0
 689 -13 678 -17 668 -17 c 0
EndSplineSet
EndChar

StartChar: Ograve
Encoding: 210 210 139
Width: 763
GlyphClass: 2
Flags: MW
HStem: -14 40<308.5 468.5 308.5 488> 622 42<294.5 453.5>
VStem: 45 96<272 405> 622 96<245 378.5>
LayerCount: 2
Fore
SplineSet
423 685 m 0
 420 685 414 687 405 694 c 0
 366 725 314 761 275 796 c 0
 266 804 262 808 262 815 c 0
 262 829 306 838 320 838 c 0
 331 838 340 835 347 825 c 0
 374 786 400 746 424 706 c 0
 427 701 429 695 429 691 c 0
 429 688 427 685 423 685 c 0
377 -14 m 0
 201 -14 45 118 45 315 c 0
 45 495 164 664 386 664 c 0
 562 664 718 532 718 335 c 0
 718 155 599 -14 377 -14 c 0
392 26 m 0
 545 26 622 129 622 286 c 0
 622 471 537 622 370 622 c 0
 219 622 141 521 141 365 c 0
 141 179 225 26 392 26 c 0
EndSplineSet
EndChar

StartChar: Oacute
Encoding: 211 211 140
Width: 763
GlyphClass: 2
Flags: MW
HStem: -14 40<308.5 468.5 308.5 488> 622 42<294.5 453.5>
VStem: 45 96<272 405> 622 96<245 378.5>
LayerCount: 2
Fore
SplineSet
358 685 m 0
 354 685 352 688 352 691 c 0
 352 695 354 701 357 706 c 0
 381 746 407 786 434 825 c 0
 441 835 450 838 461 838 c 0
 475 838 519 829 519 815 c 0
 519 808 515 804 506 796 c 0
 467 761 415 725 376 694 c 0
 367 687 361 685 358 685 c 0
377 -14 m 0
 201 -14 45 118 45 315 c 0
 45 495 164 664 386 664 c 0
 562 664 718 532 718 335 c 0
 718 155 599 -14 377 -14 c 0
392 26 m 0
 545 26 622 129 622 286 c 0
 622 471 537 622 370 622 c 0
 219 622 141 521 141 365 c 0
 141 179 225 26 392 26 c 0
EndSplineSet
EndChar

StartChar: Ocircumflex
Encoding: 212 212 141
Width: 763
GlyphClass: 2
Flags: MW
HStem: -14 40<308.5 468.5 308.5 488> 622 42<294.5 453.5> 754.75 68.25
VStem: 45 96<272 405> 622 96<245 378.5>
LayerCount: 2
Fore
SplineSet
260 696 m 0
 251 696 245 700 245 706 c 0
 245 710 247 714 252 718 c 2
 350 801 l 2
 369 817 376 823 391 823 c 0
 406 823 413 817 432 801 c 2
 530 718 l 2
 535 714 536 710 536 706 c 0
 536 700 531 695 522 695 c 0
 509 695 427 736 401 751 c 0
 392 756 390 756 381 751 c 0
 355 736 273 696 260 696 c 0
377 -14 m 0
 201 -14 45 118 45 315 c 0
 45 495 164 664 386 664 c 0
 562 664 718 532 718 335 c 0
 718 155 599 -14 377 -14 c 0
392 26 m 0
 545 26 622 129 622 286 c 0
 622 471 537 622 370 622 c 0
 219 622 141 521 141 365 c 0
 141 179 225 26 392 26 c 0
EndSplineSet
EndChar

StartChar: Otilde
Encoding: 213 213 142
Width: 763
GlyphClass: 2
Flags: MW
HStem: -14 40<308.5 468.5 308.5 488> 622 42<294.5 453.5> 727 65<332.5 349.5>
VStem: 45 96<272 405> 622 96<245 378.5>
LayerCount: 2
Fore
SplineSet
279 692 m 0
 272 692 263 701 263 708 c 0
 263 718 320 792 345 792 c 0
 367 792 394 791 413 789 c 0
 435 787 459 785 477 785 c 0
 492 785 506 794 516 804 c 0
 525 813 532 824 536 824 c 0
 546 824 555 817 555 807 c 0
 555 803 548 796 541 789 c 0
 525 773 507 749 494 733 c 0
 486 723 469 719 465 719 c 0
 449 719 365 727 334 727 c 0
 324 727 309 722 301 715 c 0
 289 705 282 692 279 692 c 0
377 -14 m 0
 201 -14 45 118 45 315 c 0
 45 495 164 664 386 664 c 0
 562 664 718 532 718 335 c 0
 718 155 599 -14 377 -14 c 0
392 26 m 0
 545 26 622 129 622 286 c 0
 622 471 537 622 370 622 c 0
 219 622 141 521 141 365 c 0
 141 179 225 26 392 26 c 0
EndSplineSet
EndChar

StartChar: Odieresis
Encoding: 214 214 143
Width: 763
GlyphClass: 2
Flags: MW
HStem: -14 40<308.5 468.5 308.5 488> 622 42<294.5 453.5> 695 100<280 308 475 503>
VStem: 45 96<272 405> 244 100<731 759> 439 100<731 759> 622 96<245 378.5>
LayerCount: 2
Fore
SplineSet
294 695 m 0
 266 695 244 717 244 745 c 0
 244 773 266 795 294 795 c 0
 322 795 344 773 344 745 c 0
 344 717 322 695 294 695 c 0
489 695 m 0
 461 695 439 717 439 745 c 0
 439 773 461 795 489 795 c 0
 517 795 539 773 539 745 c 0
 539 717 517 695 489 695 c 0
377 -14 m 0
 201 -14 45 118 45 315 c 0
 45 495 164 664 386 664 c 0
 562 664 718 532 718 335 c 0
 718 155 599 -14 377 -14 c 0
392 26 m 0
 545 26 622 129 622 286 c 0
 622 471 537 622 370 622 c 0
 219 622 141 521 141 365 c 0
 141 179 225 26 392 26 c 0
EndSplineSet
EndChar

StartChar: multiply
Encoding: 215 215 144
Width: 600
GlyphClass: 2
Flags: MW
HStem: 60 386<455 458.5 455 461.5>
VStem: 114 372<94.5 104>
LayerCount: 2
Fore
SplineSet
456 60 m 0
 452 60 449 61 446 64 c 2
 304 207 l 2
 302 209 299 209 297 207 c 2
 154 64 l 2
 149 59 140 59 136 63 c 0
 131 68 114 87 114 102 c 0
 114 106 116 111 119 114 c 2
 253 248 l 2
 257 252 256 254 252 258 c 2
 123 386 l 2
 119 390 118 395 118 400 c 0
 118 416 131 437 134 441 c 0
 139 446 148 446 153 441 c 2
 296 299 l 2
 301 294 301 296 303 298 c 2
 447 441 l 2
 450 444 453 446 457 446 c 0
 460 446 464 444 466 441 c 0
 473 428 483 413 483 401 c 0
 483 396 481 391 476 386 c 2
 345 255 l 2
 343 253 343 252 345 250 c 2
 481 114 l 2
 484 111 486 107 486 102 c 0
 486 84 467 60 456 60 c 0
EndSplineSet
EndChar

StartChar: Oslash
Encoding: 216 216 145
Width: 773
GlyphClass: 2
Flags: MW
HStem: -14 40<52 72 352 468.5> 622 42<294.5 411.5>
VStem: 45 96<326 405> 622 96<245 324>
LayerCount: 2
Fore
SplineSet
712 621 m 2
 641 550 l 1
 688 494 718 421 718 335 c 0
 718 155 599 -14 377 -14 c 0
 294 -14 216 15 156 66 c 1
 79 -11 l 2
 77 -13 74 -14 70 -14 c 0
 56 -14 42 -4 42 6 c 0
 42 13 46 20 52 26 c 2
 125 98 l 1
 75 154 45 228 45 315 c 0
 45 495 164 664 386 664 c 0
 471 664 552 633 612 579 c 1
 692 658 l 2
 699 665 713 663 716 654 c 0
 717 650 719 644 719 639 c 0
 719 632 717 626 712 621 c 2
141 365 m 0
 141 287 156 215 185 157 c 1
 557 525 l 1
 515 585 453 622 370 622 c 0
 219 622 141 521 141 365 c 0
622 286 m 0
 622 362 608 432 579 488 c 1
 209 119 l 1
 251 61 312 26 392 26 c 0
 545 26 622 129 622 286 c 0
EndSplineSet
EndChar

StartChar: Ugrave
Encoding: 217 217 146
Width: 738
GlyphClass: 2
Flags: MW
ItalicCorrection: 11
HStem: -14 50<332 445.5> 633 20G<44.5 68 687.5 707.5>
VStem: 103 80<240 268 268 547 547 549>
LayerCount: 2
Fore
SplineSet
422 685 m 0
 419 685 413 687 404 694 c 0
 365 725 313 761 274 796 c 0
 265 804 261 808 261 815 c 0
 261 829 305 838 319 838 c 0
 330 838 339 835 346 825 c 0
 373 786 399 746 423 706 c 0
 426 701 428 695 428 691 c 0
 428 688 426 685 422 685 c 0
372 -14 m 0
 193 -14 103 87 103 240 c 2
 103 547 l 2
 103 595 79 614 57 620 c 0
 34 626 24 633 24 642 c 0
 24 650 36 653 53 653 c 0
 83 653 112 650 149 650 c 0
 180 650 208 652 229 652 c 0
 246 652 258 649 258 641 c 0
 258 632 247 628 225 621 c 0
 209 616 183 589 183 549 c 2
 183 268 l 2
 183 108 271 36 393 36 c 0
 530 36 592 140 592 296 c 0
 592 340 590 434 588 511 c 0
 587 562 575 612 547 620 c 0
 533 624 514 631 514 640 c 0
 514 648 526 651 543 651 c 0
 573 651 589 650 618 650 c 0
 650 650 676 653 699 653 c 0
 716 653 728 650 728 642 c 0
 728 633 718 627 695 622 c 0
 660 615 647 587 645 547 c 0
 638 432 638 342 635 250 c 0
 630 95 519 -14 372 -14 c 0
EndSplineSet
EndChar

StartChar: Uacute
Encoding: 218 218 147
Width: 738
GlyphClass: 2
Flags: MW
ItalicCorrection: 11
HStem: -14 50<332 445.5> 633 20G<44.5 68 687.5 707.5>
VStem: 103 80<240 268 268 547 547 549>
LayerCount: 2
Fore
SplineSet
357 685 m 0
 353 685 351 688 351 691 c 0
 351 695 353 701 356 706 c 0
 380 746 406 786 433 825 c 0
 440 835 449 838 460 838 c 0
 474 838 518 829 518 815 c 0
 518 808 514 804 505 796 c 0
 466 761 414 725 375 694 c 0
 366 687 360 685 357 685 c 0
372 -14 m 0
 193 -14 103 87 103 240 c 2
 103 547 l 2
 103 595 79 614 57 620 c 0
 34 626 24 633 24 642 c 0
 24 650 36 653 53 653 c 0
 83 653 112 650 149 650 c 0
 180 650 208 652 229 652 c 0
 246 652 258 649 258 641 c 0
 258 632 247 628 225 621 c 0
 209 616 183 589 183 549 c 2
 183 268 l 2
 183 108 271 36 393 36 c 0
 530 36 592 140 592 296 c 0
 592 340 590 434 588 511 c 0
 587 562 575 612 547 620 c 0
 533 624 514 631 514 640 c 0
 514 648 526 651 543 651 c 0
 573 651 589 650 618 650 c 0
 650 650 676 653 699 653 c 0
 716 653 728 650 728 642 c 0
 728 633 718 627 695 622 c 0
 660 615 647 587 645 547 c 0
 638 432 638 342 635 250 c 0
 630 95 519 -14 372 -14 c 0
EndSplineSet
EndChar

StartChar: Ucircumflex
Encoding: 219 219 148
Width: 738
GlyphClass: 2
Flags: MW
ItalicCorrection: 11
HStem: -14 50<332 445.5> 633 20G<44.5 68 687.5 707.5> 754.75 68.25
VStem: 103 80<240 268 268 547 547 549>
LayerCount: 2
Fore
SplineSet
259 696 m 0
 250 696 244 700 244 706 c 0
 244 710 246 714 251 718 c 2
 349 801 l 2
 368 817 375 823 390 823 c 0
 405 823 412 817 431 801 c 2
 529 718 l 2
 534 714 535 710 535 706 c 0
 535 700 530 695 521 695 c 0
 508 695 426 736 400 751 c 0
 391 756 389 756 380 751 c 0
 354 736 272 696 259 696 c 0
372 -14 m 0
 193 -14 103 87 103 240 c 2
 103 547 l 2
 103 595 79 614 57 620 c 0
 34 626 24 633 24 642 c 0
 24 650 36 653 53 653 c 0
 83 653 112 650 149 650 c 0
 180 650 208 652 229 652 c 0
 246 652 258 649 258 641 c 0
 258 632 247 628 225 621 c 0
 209 616 183 589 183 549 c 2
 183 268 l 2
 183 108 271 36 393 36 c 0
 530 36 592 140 592 296 c 0
 592 340 590 434 588 511 c 0
 587 562 575 612 547 620 c 0
 533 624 514 631 514 640 c 0
 514 648 526 651 543 651 c 0
 573 651 589 650 618 650 c 0
 650 650 676 653 699 653 c 0
 716 653 728 650 728 642 c 0
 728 633 718 627 695 622 c 0
 660 615 647 587 645 547 c 0
 638 432 638 342 635 250 c 0
 630 95 519 -14 372 -14 c 0
EndSplineSet
EndChar

StartChar: Udieresis
Encoding: 220 220 149
Width: 738
GlyphClass: 2
Flags: MW
ItalicCorrection: 11
HStem: -14 50<332 445.5> 633 20G<44.5 68 687.5 707.5> 695 100<279 307 474 502>
VStem: 103 80<240 268 268 547 547 549> 243 100<731 759> 438 100<731 759>
LayerCount: 2
Fore
SplineSet
293 695 m 0
 265 695 243 717 243 745 c 0
 243 773 265 795 293 795 c 0
 321 795 343 773 343 745 c 0
 343 717 321 695 293 695 c 0
488 695 m 0
 460 695 438 717 438 745 c 0
 438 773 460 795 488 795 c 0
 516 795 538 773 538 745 c 0
 538 717 516 695 488 695 c 0
372 -14 m 0
 193 -14 103 87 103 240 c 2
 103 547 l 2
 103 595 79 614 57 620 c 0
 34 626 24 633 24 642 c 0
 24 650 36 653 53 653 c 0
 83 653 112 650 149 650 c 0
 180 650 208 652 229 652 c 0
 246 652 258 649 258 641 c 0
 258 632 247 628 225 621 c 0
 209 616 183 589 183 549 c 2
 183 268 l 2
 183 108 271 36 393 36 c 0
 530 36 592 140 592 296 c 0
 592 340 590 434 588 511 c 0
 587 562 575 612 547 620 c 0
 533 624 514 631 514 640 c 0
 514 648 526 651 543 651 c 0
 573 651 589 650 618 650 c 0
 650 650 676 653 699 653 c 0
 716 653 728 650 728 642 c 0
 728 633 718 627 695 622 c 0
 660 615 647 587 645 547 c 0
 638 432 638 342 635 250 c 0
 630 95 519 -14 372 -14 c 0
EndSplineSet
EndChar

StartChar: Yacute
Encoding: 221 221 150
Width: 578
GlyphClass: 2
Flags: MW
ItalicCorrection: 9
HStem: -5 21G<173.5 209 400 435.5> 633 20G<20.5 44 580.5 600.5>
VStem: 264 80<108 256 256 260>
LayerCount: 2
Fore
SplineSet
287 685 m 0
 283 685 281 688 281 691 c 0
 281 695 283 701 286 706 c 0
 310 746 336 786 363 825 c 0
 370 835 379 838 390 838 c 0
 404 838 448 829 448 815 c 0
 448 808 444 804 435 796 c 0
 396 761 344 725 305 694 c 0
 296 687 290 685 287 685 c 0
182 -5 m 0
 165 -5 153 -2 153 6 c 0
 153 15 163 20 186 24 c 0
 236 33 264 60 264 108 c 2
 264 256 l 2
 264 283 244 321 239 330 c 2
 122 522 l 2
 107 546 67 610 33 620 c 0
 11 627 0 633 0 642 c 0
 0 650 12 653 29 653 c 0
 59 653 100 650 146 650 c 0
 177 650 205 652 226 652 c 0
 243 652 255 649 255 641 c 0
 255 632 244 626 222 621 c 0
 203 616 190 611 190 596 c 0
 190 588 194 576 203 560 c 2
 295 390 l 2
 309 364 317 352 323 352 c 0
 331 352 338 362 356 390 c 0
 386 437 406 474 440 534 c 0
 453 556 458 573 458 585 c 0
 458 610 436 617 417 620 c 0
 403 622 384 631 384 640 c 0
 384 648 396 651 413 651 c 0
 443 651 459 650 488 650 c 0
 529 650 569 653 592 653 c 0
 609 653 621 650 621 642 c 0
 621 633 596 625 568 617 c 0
 533 607 516 581 480 526 c 0
 426 443 415 425 369 350 c 0
 343 307 344 299 344 260 c 2
 344 108 l 2
 344 63 373 33 423 24 c 0
 446 20 456 15 456 6 c 0
 456 -2 444 -5 427 -5 c 0
 373 -5 356 0 310 0 c 0
 260 0 236 -5 182 -5 c 0
EndSplineSet
EndChar

StartChar: Thorn
Encoding: 222 222 151
Width: 559
GlyphClass: 2
Flags: MW
ItalicCorrection: 14
HStem: -5 163<270 305.5> 129 29<252 318 252 325> 496 28<301.5 345.5> 496 157<269 304.5>
VStem: 134 80<99 123 195 216 216 420 526.5 532 532 549> 433 86<282 377.5>
LayerCount: 2
Fore
SplineSet
51 -5 m 0x9c
 34 -5 22 -2 22 6 c 0
 22 15 32 20 55 24 c 0
 105 33 134 51 134 99 c 2
 134 549 l 2
 134 588 127 613 77 622 c 0
 54 626 44 633 44 642 c 0
 44 650 56 653 73 653 c 0
 127 653 136 650 177 650 c 0
 223 650 242 653 296 653 c 0
 313 653 325 650 325 642 c 0
 325 633 315 626 292 622 c 0x9c
 242 613 214 597 214 549 c 2
 214 532 l 2
 214 521 214 512 220 512 c 0
 223 512 242 517 243 517 c 0
 262 522 288 524 315 524 c 0
 429 524 519 457 519 337 c 0
 519 190 394 129 256 129 c 0
 242 129 231 132 222 132 c 0
 218 132 214 129 214 123 c 2
 214 96 l 2x6c
 214 54 243 33 293 24 c 0
 316 20 326 15 326 6 c 0
 326 -2 314 -5 297 -5 c 0
 243 -5 226 0 180 0 c 0
 130 0 105 -5 51 -5 c 0x9c
265 158 m 0
 371 158 433 229 433 335 c 0
 433 420 392 496 299 496 c 0
 228 496 214 484 214 420 c 2
 214 216 l 2
 214 174 239 158 265 158 c 0
EndSplineSet
EndChar

StartChar: germandbls
Encoding: 223 223 152
Width: 504
GlyphClass: 2
Flags: MW
HStem: -15 56<349.5 352.5> -3 84<181.5 269> 350 52<89 89> 382 20G 665 41<269 314>
VStem: 89 70<69 350 350 350 402 475> 245 79<350 359.5> 391 63<550 585.5> 422 52<99 116>
LayerCount: 2
Fore
SplineSet
314 -15 m 0x9f
 277 -15 241 -1 241 33 c 0
 241 59 247 81 265 81 c 0x5f
 273 81 288 72 296 66 c 0
 320 46 334 41 365 41 c 0
 391 41 422 58 422 98 c 0x9e80
 422 134 398 156 334 217 c 0
 256 292 245 302 245 336 c 0
 245 383 304 410 350 458 c 0
 373 482 391 519 391 555 c 0
 391 616 356 665 272 665 c 0
 206 665 159 613 159 475 c 2
 159 69 l 2
 159 41 181 30 201 24 c 0
 212 20 224 16 224 6 c 0
 224 -4 206 -3 201 -3 c 0
 162 -3 160 2 125 2 c 0
 90 2 86 -3 47 -3 c 0
 42 -3 24 -4 24 6 c 0
 24 16 36 20 47 24 c 0
 67 30 89 41 89 69 c 2
 89 350 l 1
 76 350 58 350 37 352 c 0
 33 353 26 362 26 369 c 0
 26 372 28 375 30 376 c 0x6f
 60 384 71 392 89 402 c 1
 89 633 220 706 318 706 c 0
 397 706 454 644 454 572 c 0x9f
 454 528 437 497 375 443 c 0
 342 414 324 401 324 364 c 0
 324 336 339 327 401 266 c 0
 463 205 474 179 474 140 c 0x9e80
 474 58 391 -15 314 -15 c 0x9f
EndSplineSet
EndChar

StartChar: agrave
Encoding: 224 224 153
Width: 399
GlyphClass: 2
Flags: MW
ItalicCorrection: 26
HStem: -14 48<99 177> -14 52 365 49<171 253>
VStem: 37 78<69.5 93> 40 76<271.5 324> 239 69.5
LayerCount: 2
Fore
SplineSet
224 457 m 0xb4
 217 457 207 464 193 478 c 0
 167 504 109 572 85 607 c 0
 79 616 75 620 75 628 c 0
 75 642 99 649 124 649 c 0
 134 649 145 641 151 631 c 0
 167 604 214 521 228 484 c 0
 231 476 232 470 232 466 c 0
 232 459 229 457 224 457 c 0xb4
117 -14 m 0
 81 -14 37 35 37 72 c 0
 37 114 59 135 108 155 c 2xb4
 210 197 l 2
 236 208 237 210 238 237 c 2
 240 301 l 2
 241 336 219 365 181 365 c 0
 161 365 139 358 126 347 c 0
 118 341 116 330 116 318 c 2
 117 300 l 2
 117 290 71 265 51 265 c 0
 44 265 40 269 40 274 c 0
 40 295 55 321 80 343 c 0
 125 384 189 414 229 414 c 0
 277 414 312 376 311 325 c 2
 306 85 l 2
 305 57 320 38 342 38 c 0
 359 38 370 41 379 49 c 0
 383 53 385 54 387 54 c 0
 393 54 398 49 398 43 c 0x6c
 398 37 393 27 387 21 c 0
 366 0 339 -14 318 -14 c 0
 287 -14 263 3 245 38 c 1
 242 38 l 1
 198 2 160 -14 117 -14 c 0
164 34 m 0
 190 34 208 43 223 58 c 0
 230 65 235 74 236 99 c 2
 238 148 l 2
 239 163 237 169 229 169 c 0
 226 169 220 168 209 164 c 0
 138 138 115 110 115 87 c 0
 115 52 140 34 164 34 c 0
EndSplineSet
EndChar

StartChar: aacute
Encoding: 225 225 154
Width: 399
GlyphClass: 2
Flags: MW
ItalicCorrection: 26
HStem: -14 48<99 177> -14 52 365 49<171 253>
VStem: 37 78<69.5 93> 40 76<271.5 324> 239 69.5
LayerCount: 2
Fore
SplineSet
177 457 m 0xb4
 172 457 169 459 169 466 c 0
 169 470 170 476 173 484 c 0
 187 521 234 604 250 631 c 0
 256 641 267 649 277 649 c 0
 302 649 326 642 326 628 c 0
 326 620 322 616 316 607 c 0
 292 572 234 504 208 478 c 0
 194 464 184 457 177 457 c 0xb4
117 -14 m 0
 81 -14 37 35 37 72 c 0
 37 114 59 135 108 155 c 2xb4
 210 197 l 2
 236 208 237 210 238 237 c 2
 240 301 l 2
 241 336 219 365 181 365 c 0
 161 365 139 358 126 347 c 0
 118 341 116 330 116 318 c 2
 117 300 l 2
 117 290 71 265 51 265 c 0
 44 265 40 269 40 274 c 0
 40 295 55 321 80 343 c 0
 125 384 189 414 229 414 c 0
 277 414 312 376 311 325 c 2
 306 85 l 2
 305 57 320 38 342 38 c 0
 359 38 370 41 379 49 c 0
 383 53 385 54 387 54 c 0
 393 54 398 49 398 43 c 0x6c
 398 37 393 27 387 21 c 0
 366 0 339 -14 318 -14 c 0
 287 -14 263 3 245 38 c 1
 242 38 l 1
 198 2 160 -14 117 -14 c 0
164 34 m 0
 190 34 208 43 223 58 c 0
 230 65 235 74 236 99 c 2
 238 148 l 2
 239 163 237 169 229 169 c 0
 226 169 220 168 209 164 c 0
 138 138 115 110 115 87 c 0
 115 52 140 34 164 34 c 0
EndSplineSet
EndChar

StartChar: acircumflex
Encoding: 226 226 155
Width: 399
GlyphClass: 2
Flags: MW
ItalicCorrection: 26
HStem: -14 48<99 177> -14 52 365 49<171 253>
VStem: 37 78<69.5 93> 40 76<271.5 324> 239 69.5
LayerCount: 2
Fore
SplineSet
201 648 m 0xb4
 209 648 216 638 221 630 c 0
 241 599 309 481 309 468 c 0
 309 459 309 455 300 455 c 0
 292 455 279 468 271 477 c 0
 258 492 227 532 205 562 c 0
 202 566 201 566 198 562 c 0
 176 532 145 492 132 477 c 0
 124 468 110 455 102 455 c 0
 93 455 93 459 93 468 c 0
 93 481 161 599 181 630 c 0
 186 638 193 648 201 648 c 0xb4
117 -14 m 0
 81 -14 37 35 37 72 c 0
 37 114 59 135 108 155 c 2xb4
 210 197 l 2
 236 208 237 210 238 237 c 2
 240 301 l 2
 241 336 219 365 181 365 c 0
 161 365 139 358 126 347 c 0
 118 341 116 330 116 318 c 2
 117 300 l 2
 117 290 71 265 51 265 c 0
 44 265 40 269 40 274 c 0
 40 295 55 321 80 343 c 0
 125 384 189 414 229 414 c 0
 277 414 312 376 311 325 c 2
 306 85 l 2
 305 57 320 38 342 38 c 0
 359 38 370 41 379 49 c 0
 383 53 385 54 387 54 c 0
 393 54 398 49 398 43 c 0x6c
 398 37 393 27 387 21 c 0
 366 0 339 -14 318 -14 c 0
 287 -14 263 3 245 38 c 1
 242 38 l 1
 198 2 160 -14 117 -14 c 0
164 34 m 0
 190 34 208 43 223 58 c 0
 230 65 235 74 236 99 c 2
 238 148 l 2
 239 163 237 169 229 169 c 0
 226 169 220 168 209 164 c 0
 138 138 115 110 115 87 c 0
 115 52 140 34 164 34 c 0
EndSplineSet
EndChar

StartChar: atilde
Encoding: 227 227 156
Width: 399
GlyphClass: 2
Flags: MW
ItalicCorrection: 26
HStem: -14 48<99 177> -14 52 365 49<171 253> 500 67<151.5 166>
VStem: 37 78<69.5 93> 40 76<271.5 324> 239 69.5
LayerCount: 2
Fore
SplineSet
86 458 m 0xba
 76 458 70 463 70 473 c 0
 70 483 139 567 164 567 c 0
 186 567 196 564 215 562 c 0
 237 560 253 558 271 558 c 0
 286 558 300 567 310 577 c 0
 324 591 334 605 338 605 c 0
 348 605 357 598 357 588 c 0
 357 584 349 576 335 562 c 0
 319 547 301 522 288 506 c 0
 280 496 263 492 259 492 c 0
 243 492 184 500 148 500 c 0
 134 500 120 488 109 478 c 0
 100 470 90 458 86 458 c 0xba
117 -14 m 0
 81 -14 37 35 37 72 c 0
 37 114 59 135 108 155 c 2xba
 210 197 l 2
 236 208 237 210 238 237 c 2
 240 301 l 2
 241 336 219 365 181 365 c 0
 161 365 139 358 126 347 c 0
 118 341 116 330 116 318 c 2
 117 300 l 2
 117 290 71 265 51 265 c 0
 44 265 40 269 40 274 c 0
 40 295 55 321 80 343 c 0
 125 384 189 414 229 414 c 0
 277 414 312 376 311 325 c 2
 306 85 l 2
 305 57 320 38 342 38 c 0
 359 38 370 41 379 49 c 0
 383 53 385 54 387 54 c 0
 393 54 398 49 398 43 c 0x76
 398 37 393 27 387 21 c 0
 366 0 339 -14 318 -14 c 0
 287 -14 263 3 245 38 c 1
 242 38 l 1
 198 2 160 -14 117 -14 c 0
164 34 m 0
 190 34 208 43 223 58 c 0
 230 65 235 74 236 99 c 2
 238 148 l 2
 239 163 237 169 229 169 c 0
 226 169 220 168 209 164 c 0
 138 138 115 110 115 87 c 0
 115 52 140 34 164 34 c 0
EndSplineSet
EndChar

StartChar: adieresis
Encoding: 228 228 157
Width: 399
GlyphClass: 2
Flags: MW
ItalicCorrection: 26
HStem: -14 48<99 177> -14 52 365 49<171 253> 508 100<100.5 125.5 277.5 302.5>
VStem: 37 78<69.5 93> 40 76<271.5 324> 63 100<545.5 570.5> 239 69.5 240 100<545.5 570.5>
LayerCount: 2
Fore
SplineSet
113 508 m 0xb3
 88 508 63 533 63 558 c 0
 63 583 88 608 113 608 c 0
 138 608 163 583 163 558 c 0
 163 533 138 508 113 508 c 0xb3
290 508 m 0xb880
 265 508 240 533 240 558 c 0
 240 583 265 608 290 608 c 0
 315 608 340 583 340 558 c 0
 340 533 315 508 290 508 c 0xb880
117 -14 m 0
 81 -14 37 35 37 72 c 0
 37 114 59 135 108 155 c 2xb9
 210 197 l 2
 236 208 237 210 238 237 c 2
 240 301 l 2
 241 336 219 365 181 365 c 0
 161 365 139 358 126 347 c 0
 118 341 116 330 116 318 c 2
 117 300 l 2
 117 290 71 265 51 265 c 0
 44 265 40 269 40 274 c 0
 40 295 55 321 80 343 c 0
 125 384 189 414 229 414 c 0
 277 414 312 376 311 325 c 2
 306 85 l 2
 305 57 320 38 342 38 c 0
 359 38 370 41 379 49 c 0
 383 53 385 54 387 54 c 0
 393 54 398 49 398 43 c 0x75
 398 37 393 27 387 21 c 0
 366 0 339 -14 318 -14 c 0
 287 -14 263 3 245 38 c 1
 242 38 l 1xb3
 198 2 160 -14 117 -14 c 0
164 34 m 0
 190 34 208 43 223 58 c 0
 230 65 235 74 236 99 c 2
 238 148 l 2
 239 163 237 169 229 169 c 0xb3
 226 169 220 168 209 164 c 0
 138 138 115 110 115 87 c 0
 115 52 140 34 164 34 c 0
EndSplineSet
EndChar

StartChar: aring
Encoding: 229 229 158
Width: 399
GlyphClass: 2
Flags: MW
ItalicCorrection: 26
HStem: -14 48<99 177> -14 52 365 49<171 253> 480 26<191 220 191 220> 620 27<182 209>
VStem: 37 78<69.5 93> 40 76<271.5 324> 117 41<551.5 582 551.5 585> 239 69.5 244 41<546 576>
LayerCount: 2
Fore
SplineSet
198 480 m 0xb940
 154 480 117 519 117 563 c 0
 117 607 160 647 204 647 c 0
 248 647 285 613 285 569 c 0
 285 517 242 480 198 480 c 0xb940
205 506 m 0
 235 506 244 530 244 562 c 0
 244 590 223 620 195 620 c 0
 167 620 158 596 158 568 c 0
 158 535 177 506 205 506 c 0
117 -14 m 0xbc80
 81 -14 37 35 37 72 c 0
 37 114 59 135 108 155 c 2xbc80
 210 197 l 2
 236 208 237 210 238 237 c 2
 240 301 l 2
 241 336 219 365 181 365 c 0
 161 365 139 358 126 347 c 0
 118 341 116 330 116 318 c 2
 117 300 l 2
 117 290 71 265 51 265 c 0
 44 265 40 269 40 274 c 0
 40 295 55 321 80 343 c 0
 125 384 189 414 229 414 c 0
 277 414 312 376 311 325 c 2
 306 85 l 2
 305 57 320 38 342 38 c 0
 359 38 370 41 379 49 c 0
 383 53 385 54 387 54 c 0
 393 54 398 49 398 43 c 0x7a80
 398 37 393 27 387 21 c 0
 366 0 339 -14 318 -14 c 0
 287 -14 263 3 245 38 c 1
 242 38 l 1
 198 2 160 -14 117 -14 c 0xbc80
164 34 m 0
 190 34 208 43 223 58 c 0
 230 65 235 74 236 99 c 2
 238 148 l 2
 239 163 237 169 229 169 c 0
 226 169 220 168 209 164 c 0
 138 138 115 110 115 87 c 0
 115 52 140 34 164 34 c 0
EndSplineSet
EndChar

StartChar: ae
Encoding: 230 230 159
Width: 557
GlyphClass: 2
Flags: MW
HStem: -14 46<102.5 179> -14 60<377 406> 83 15 365 49<171 241> 378 35<396.5 408.5>
VStem: 37 80<68 86> 42 77<271.5 301.5> 243 69<249 254 254 299 299 316.5> 461 69<307 325>
LayerCount: 2
Fore
SplineSet
123 -14 m 0x6d80
 82 -14 37 26 37 65 c 0
 37 107 61 133 110 155 c 2x6d80
 214 202 l 2
 240 214 243 217 243 233 c 2
 243 299 l 2
 243 334 220 365 183 365 c 0
 159 365 130 346 122 332 c 0
 119 327 118 320 118 313 c 0
 118 308 119 304 119 299 c 0
 119 285 63 264 50 264 c 0
 44 264 42 270 42 273 c 0
 42 294 57 320 82 342 c 0
 113 370 178 414 231 414 c 0x7380
 251 414 286 395 294 381 c 0
 296 378 297 376 299 376 c 0
 300 376 303 378 306 380 c 0
 330 397 380 413 413 413 c 0
 465 413 530 383 530 318 c 0
 530 296 520 291 506 284 c 0
 493 277 356 218 322 203 c 0
 316 200 311 190 311 185 c 2
 311 129 l 2
 311 63 355 46 399 46 c 0
 439 46 478 57 510 94 c 0
 513 97 516 98 519 98 c 0
 526 98 532 93 532 87 c 0
 532 86 532 84 531 83 c 0
 487 19 444 -14 368 -14 c 0
 329 -14 290 0 259 26 c 0
 256 29 248 38 246 38 c 0
 244 38 241 37 238 34 c 0
 222 22 191 -13 123 -14 c 0x6d80
327 244 m 0
 376 264 435 284 454 292 c 0
 460 294 461 300 461 306 c 0
 461 344 430 378 387 378 c 0
 370 378 313 356 312 321 c 2
 312 254 l 2
 312 244 322 242 327 244 c 0
166 32 m 0xad80
 192 32 212 45 228 59 c 0
 235 65 242 71 242 96 c 2
 242 148 l 2
 242 164 242 172 234 172 c 0
 231 172 226 171 219 169 c 0
 186 160 119 130 117 87 c 0
 117 49 147 32 166 32 c 0xad80
EndSplineSet
EndChar

StartChar: ccedilla
Encoding: 231 231 160
Width: 407
GlyphClass: 2
Flags: MW
HStem: -274 49<151.5 211> -15 60<209 275.5> 377 37<187.5 226>
VStem: 35 69<165 245> 237 50<-179 -160.5>
LayerCount: 2
Fore
SplineSet
361 93 m 0
 367 93 372 87 372 79 c 0
 372 71 367 61 357 48 c 0
 330 14 290 -7 242 -13 c 1
 220 -42 l 2
 217 -46 215 -49 215 -52 c 0
 215 -56 219 -60 226 -63 c 0
 258 -77 287 -106 287 -139 c 0
 287 -219 198 -274 162 -274 c 0
 141 -274 132 -264 132 -233 c 0
 132 -221 137 -214 145 -214 c 0
 155 -214 167 -225 198 -225 c 0
 224 -225 237 -206 237 -180 c 0
 237 -141 210 -123 178 -123 c 0
 165 -123 159 -129 152 -129 c 0
 145 -129 134 -123 134 -114 c 0
 134 -111 136 -107 139 -103 c 2
 209 -15 l 1
 110 -13 35 71 35 180 c 0
 35 310 129 414 246 414 c 0
 289 414 328 402 360 379 c 0
 368 373 372 367 372 360 c 0
 372 343 346 319 329 319 c 0
 322 319 316 324 308 330 c 0
 279 352 238 377 214 377 c 0
 149 377 104 310 104 212 c 0
 104 118 171 45 256 45 c 0
 295 45 319 56 351 88 c 0
 354 91 358 93 361 93 c 0
EndSplineSet
EndChar

StartChar: egrave
Encoding: 232 232 161
Width: 390
GlyphClass: 2
Flags: MW
ItalicCorrection: 8
HStem: -15 61<205.5 239.5> 257 31<109.5 212 121 212 212 228 121 330> 385 29<185 231.5>
VStem: 30 64<172 234.5 172 260.5> 294 66<308 325 277.5 334>
LayerCount: 2
Fore
SplineSet
245 457 m 0
 238 457 228 464 214 478 c 0
 188 504 130 572 106 607 c 0
 100 616 96 620 96 628 c 0
 96 642 120 649 145 649 c 0
 155 649 166 641 172 631 c 0
 188 604 235 521 249 484 c 0
 252 476 253 470 253 466 c 0
 253 459 250 457 245 457 c 0
213 -15 m 0
 103 -15 30 72 30 203 c 0
 30 318 118 414 223 414 c 0
 303 414 360 362 360 288 c 0
 360 267 351 257 330 257 c 2
 119 257 l 2
 100 257 94 249 94 220 c 0
 94 124 163 46 248 46 c 0
 288 46 321 62 346 91 c 0
 351 98 353 99 357 99 c 0
 362 99 365 95 365 89 c 0
 365 76 359 62 347 47 c 0
 317 8 266 -15 213 -15 c 0
121 288 m 2
 212 288 l 2
 244 288 264 289 286 293 c 0
 292 294 294 301 294 315 c 0
 294 353 255 385 208 385 c 0
 162 385 109 338 109 298 c 0
 109 291 113 288 121 288 c 2
EndSplineSet
EndChar

StartChar: eacute
Encoding: 233 233 162
Width: 390
GlyphClass: 2
Flags: MW
ItalicCorrection: 8
HStem: -15 61<205.5 239.5> 257 31<109.5 212 121 212 212 228 121 330> 385 29<185 231.5>
VStem: 30 64<172 234.5 172 260.5> 294 66<308 325 277.5 334>
LayerCount: 2
Fore
SplineSet
198 457 m 0
 193 457 190 459 190 466 c 0
 190 470 191 476 194 484 c 0
 208 521 255 604 271 631 c 0
 277 641 288 649 298 649 c 0
 323 649 347 642 347 628 c 0
 347 620 343 616 337 607 c 0
 313 572 255 504 229 478 c 0
 215 464 205 457 198 457 c 0
213 -15 m 0
 103 -15 30 72 30 203 c 0
 30 318 118 414 223 414 c 0
 303 414 360 362 360 288 c 0
 360 267 351 257 330 257 c 2
 119 257 l 2
 100 257 94 249 94 220 c 0
 94 124 163 46 248 46 c 0
 288 46 321 62 346 91 c 0
 351 98 353 99 357 99 c 0
 362 99 365 95 365 89 c 0
 365 76 359 62 347 47 c 0
 317 8 266 -15 213 -15 c 0
121 288 m 2
 212 288 l 2
 244 288 264 289 286 293 c 0
 292 294 294 301 294 315 c 0
 294 353 255 385 208 385 c 0
 162 385 109 338 109 298 c 0
 109 291 113 288 121 288 c 2
EndSplineSet
EndChar

StartChar: ecircumflex
Encoding: 234 234 163
Width: 390
GlyphClass: 2
Flags: MW
ItalicCorrection: 8
HStem: -15 61<205.5 239.5> 257 31<109.5 212 121 212 212 228 121 330> 385 29<185 231.5>
VStem: 30 64<172 234.5 172 260.5> 294 66<308 325 277.5 334>
LayerCount: 2
Fore
SplineSet
222 648 m 0
 230 648 237 638 242 630 c 0
 262 599 330 481 330 468 c 0
 330 459 330 455 321 455 c 0
 313 455 300 468 292 477 c 0
 279 492 248 532 226 562 c 0
 223 566 222 566 219 562 c 0
 197 532 166 492 153 477 c 0
 145 468 131 455 123 455 c 0
 114 455 114 459 114 468 c 0
 114 481 182 599 202 630 c 0
 207 638 214 648 222 648 c 0
213 -15 m 0
 103 -15 30 72 30 203 c 0
 30 318 118 414 223 414 c 0
 303 414 360 362 360 288 c 0
 360 267 351 257 330 257 c 2
 119 257 l 2
 100 257 94 249 94 220 c 0
 94 124 163 46 248 46 c 0
 288 46 321 62 346 91 c 0
 351 98 353 99 357 99 c 0
 362 99 365 95 365 89 c 0
 365 76 359 62 347 47 c 0
 317 8 266 -15 213 -15 c 0
121 288 m 2
 212 288 l 2
 244 288 264 289 286 293 c 0
 292 294 294 301 294 315 c 0
 294 353 255 385 208 385 c 0
 162 385 109 338 109 298 c 0
 109 291 113 288 121 288 c 2
EndSplineSet
EndChar

StartChar: edieresis
Encoding: 235 235 164
Width: 390
GlyphClass: 2
Flags: MW
ItalicCorrection: 8
HStem: -15 61<205.5 239.5> 257 31<109.5 212 121 212 212 228 121 330> 385 29<185 231.5> 508 100<121.5 146.5 298.5 323.5>
VStem: 30 64<172 234.5 172 260.5> 84 100<545.5 570.5> 261 100<545.5 570.5> 294 66<308 325 277.5 334>
LayerCount: 2
Fore
SplineSet
134 508 m 0xf6
 109 508 84 533 84 558 c 0
 84 583 109 608 134 608 c 0
 159 608 184 583 184 558 c 0
 184 533 159 508 134 508 c 0xf6
311 508 m 0
 286 508 261 533 261 558 c 0
 261 583 286 608 311 608 c 0
 336 608 361 583 361 558 c 0
 361 533 336 508 311 508 c 0
213 -15 m 0xf9
 103 -15 30 72 30 203 c 0
 30 318 118 414 223 414 c 0
 303 414 360 362 360 288 c 0
 360 267 351 257 330 257 c 2
 119 257 l 2
 100 257 94 249 94 220 c 0
 94 124 163 46 248 46 c 0
 288 46 321 62 346 91 c 0
 351 98 353 99 357 99 c 0
 362 99 365 95 365 89 c 0
 365 76 359 62 347 47 c 0
 317 8 266 -15 213 -15 c 0xf9
121 288 m 2
 212 288 l 2
 244 288 264 289 286 293 c 0
 292 294 294 301 294 315 c 0
 294 353 255 385 208 385 c 0
 162 385 109 338 109 298 c 0
 109 291 113 288 121 288 c 2
EndSplineSet
EndChar

StartChar: igrave
Encoding: 236 236 165
Width: 245
GlyphClass: 2
Flags: MW
ItalicCorrection: 3
HStem: -3 21G<38 63.5 187 212.5>
VStem: 90 70<62 279 279 294>
LayerCount: 2
Fore
SplineSet
147 457 m 0
 140 457 130 464 116 478 c 0
 90 504 32 572 8 607 c 0
 2 616 -2 620 -2 628 c 0
 -2 642 22 649 47 649 c 0
 57 649 68 641 74 631 c 0
 90 604 137 521 151 484 c 0
 154 476 155 470 155 466 c 0
 155 459 152 457 147 457 c 0
44 -3 m 0
 32 -3 24 0 24 8 c 0
 24 18 36 21 47 24 c 0
 75 31 90 38 90 62 c 2
 90 279 l 2
 90 315 79 347 45 352 c 0
 38 353 35 357 35 365 c 0
 35 372 38 376 44 377 c 0
 97 389 132 413 149 427 c 0
 154 431 159 434 163 434 c 0
 167 434 169 432 169 429 c 0
 169 413 160 339 160 294 c 2
 160 62 l 2
 160 39 176 31 203 24 c 0
 214 21 226 18 226 8 c 0
 226 0 219 -3 206 -3 c 0
 168 -3 160 2 125 2 c 0
 90 2 83 -3 44 -3 c 0
EndSplineSet
EndChar

StartChar: iacute
Encoding: 237 237 166
Width: 245
GlyphClass: 2
Flags: MW
ItalicCorrection: 38
HStem: -3 21G<38 63.5 187 212.5>
VStem: 90 70<62 279 279 294>
LayerCount: 2
Fore
SplineSet
100 457 m 0
 95 457 92 459 92 466 c 0
 92 470 93 476 96 484 c 0
 110 521 157 604 173 631 c 0
 179 641 190 649 200 649 c 0
 225 649 249 642 249 628 c 0
 249 620 245 616 239 607 c 0
 215 572 157 504 131 478 c 0
 117 464 107 457 100 457 c 0
44 -3 m 0
 32 -3 24 0 24 8 c 0
 24 18 36 21 47 24 c 0
 75 31 90 38 90 62 c 2
 90 279 l 2
 90 315 79 347 45 352 c 0
 38 353 35 357 35 365 c 0
 35 372 38 376 44 377 c 0
 97 389 132 413 149 427 c 0
 154 431 159 434 163 434 c 0
 167 434 169 432 169 429 c 0
 169 413 160 339 160 294 c 2
 160 62 l 2
 160 39 176 31 203 24 c 0
 214 21 226 18 226 8 c 0
 226 0 219 -3 206 -3 c 0
 168 -3 160 2 125 2 c 0
 90 2 83 -3 44 -3 c 0
EndSplineSet
EndChar

StartChar: icircumflex
Encoding: 238 238 167
Width: 245
GlyphClass: 2
Flags: MW
ItalicCorrection: 43
HStem: -3 21G<38 63.5 187 212.5>
VStem: 90 70<62 279 279 294>
LayerCount: 2
Fore
SplineSet
124 648 m 0
 132 648 139 638 144 630 c 0
 164 599 232 481 232 468 c 0
 232 459 232 455 223 455 c 0
 215 455 202 468 194 477 c 0
 181 492 150 532 128 562 c 0
 125 566 124 566 121 562 c 0
 99 532 68 492 55 477 c 0
 47 468 33 455 25 455 c 0
 16 455 16 459 16 468 c 0
 16 481 84 599 104 630 c 0
 109 638 116 648 124 648 c 0
44 -3 m 0
 32 -3 24 0 24 8 c 0
 24 18 36 21 47 24 c 0
 75 31 90 38 90 62 c 2
 90 279 l 2
 90 315 79 347 45 352 c 0
 38 353 35 357 35 365 c 0
 35 372 38 376 44 377 c 0
 97 389 132 413 149 427 c 0
 154 431 159 434 163 434 c 0
 167 434 169 432 169 429 c 0
 169 413 160 339 160 294 c 2
 160 62 l 2
 160 39 176 31 203 24 c 0
 214 21 226 18 226 8 c 0
 226 0 219 -3 206 -3 c 0
 168 -3 160 2 125 2 c 0
 90 2 83 -3 44 -3 c 0
EndSplineSet
EndChar

StartChar: idieresis
Encoding: 239 239 168
Width: 245
GlyphClass: 2
Flags: MW
ItalicCorrection: 37
HStem: -3 21G<38 63.5 187 212.5> 508 100<23.5 48.5 200.5 225.5>
VStem: -14 100<545.5 570.5> 90 70<62 279 279 294> 163 100<545.5 570.5>
LayerCount: 2
Fore
SplineSet
36 508 m 0
 11 508 -14 533 -14 558 c 0
 -14 583 11 608 36 608 c 0
 61 608 86 583 86 558 c 0
 86 533 61 508 36 508 c 0
213 508 m 0
 188 508 163 533 163 558 c 0
 163 583 188 608 213 608 c 0
 238 608 263 583 263 558 c 0
 263 533 238 508 213 508 c 0
44 -3 m 0
 32 -3 24 0 24 8 c 0
 24 18 36 21 47 24 c 0
 75 31 90 38 90 62 c 2
 90 279 l 2
 90 315 79 347 45 352 c 0
 38 353 35 357 35 365 c 0
 35 372 38 376 44 377 c 0
 97 389 132 413 149 427 c 0
 154 431 159 434 163 434 c 0
 167 434 169 432 169 429 c 0
 169 413 160 339 160 294 c 2
 160 62 l 2
 160 39 176 31 203 24 c 0
 214 21 226 18 226 8 c 0
 226 0 219 -3 206 -3 c 0
 168 -3 160 2 125 2 c 0
 90 2 83 -3 44 -3 c 0
EndSplineSet
EndChar

StartChar: eth
Encoding: 240 240 169
Width: 487
GlyphClass: 2
Flags: MW
HStem: -14 30<212 287 212 306> 380 34<194.5 256.5> 685 20G<83 120.5>
VStem: 25 83<160.5 248> 378 78<191.5 242>
LayerCount: 2
Fore
SplineSet
231 -14 m 0
 119 -14 25 66 25 186 c 0
 25 310 133 414 256 414 c 0
 288 414 315 406 343 391 c 0
 352 387 353 390 351 400 c 0
 335 459 313 516 283 552 c 1
 128 472 l 2
 120 468 114 475 114 480 c 0
 114 489 114 511 122 515 c 2
 254 584 l 1
 199 636 134 667 84 678 c 0
 76 680 64 683 64 693 c 0
 64 702 76 705 90 705 c 0
 151 705 236 671 309 612 c 1
 410 665 l 2
 418 670 435 674 435 664 c 0
 435 646 433 630 417 622 c 2
 342 583 l 1
 399 522 456 427 456 250 c 0
 456 133 381 -14 231 -14 c 0
252 16 m 0
 322 16 378 111 378 219 c 0
 378 265 369 304 345 329 c 0
 317 359 277 380 236 380 c 0
 151 380 108 293 108 210 c 0
 108 111 172 16 252 16 c 0
EndSplineSet
EndChar

StartChar: ntilde
Encoding: 241 241 170
Width: 528
GlyphClass: 2
Flags: MW
ItalicCorrection: 13
HStem: -3 21G<38 64 186 212.5 319.5 343 465 489> 366 48<255 358.5> 500 67<207.5 222>
VStem: 90 70<62 277 277 295> 369 70<62 272 272 275>
LayerCount: 2
Fore
SplineSet
142 458 m 0
 132 458 126 463 126 473 c 0
 126 483 195 567 220 567 c 0
 242 567 252 564 271 562 c 0
 293 560 309 558 327 558 c 0
 342 558 356 567 366 577 c 0
 380 591 390 605 394 605 c 0
 404 605 413 598 413 588 c 0
 413 584 405 576 391 562 c 0
 375 547 357 522 344 506 c 0
 336 496 319 492 315 492 c 0
 299 492 240 500 204 500 c 0
 190 500 176 488 165 478 c 0
 156 470 146 458 142 458 c 0
44 -3 m 0
 32 -3 24 0 24 8 c 0
 24 18 32 20 47 24 c 0
 67 29 90 35 90 62 c 2
 90 277 l 2
 90 313 87 340 53 349 c 0
 47 351 43 354 43 362 c 0
 43 369 46 373 52 374 c 0
 98 386 124 404 152 425 c 0
 156 428 159 430 163 430 c 0
 166 430 168 427 168 423 c 0
 168 414 163 378 163 359 c 0
 163 353 164 348 165 347 c 0
 212 392 263 414 326 414 c 0
 391 414 439 353 439 275 c 2
 439 62 l 2
 439 35 462 30 482 24 c 0
 493 20 505 16 505 6 c 0
 505 -2 493 -3 485 -3 c 0
 445 -3 440 2 405 2 c 0
 370 2 363 -3 323 -3 c 0
 316 -3 303 -2 303 6 c 0
 303 16 315 20 326 24 c 0
 346 30 369 35 369 62 c 2
 369 272 l 2
 369 330 333 365 279 366 c 0
 231 366 196 349 168 326 c 0
 163 321 160 311 160 303 c 2
 160 62 l 2
 160 35 183 29 203 24 c 0
 219 20 226 16 226 8 c 0
 226 0 219 -3 206 -3 c 0
 166 -3 160 2 125 2 c 0
 90 2 84 -3 44 -3 c 0
EndSplineSet
EndChar

StartChar: ograve
Encoding: 242 242 171
Width: 495
GlyphClass: 2
Flags: MW
HStem: -14 30<215 277.5 215 309> 383 31<219 279.5>
VStem: 35 82<160.5 234 160.5 242.5> 378 82<169.5 236.5>
LayerCount: 2
Fore
SplineSet
277 457 m 0
 270 457 260 464 246 478 c 0
 220 504 162 572 138 607 c 0
 132 616 128 620 128 628 c 0
 128 642 152 649 177 649 c 0
 187 649 198 641 204 631 c 0
 220 604 267 521 281 484 c 0
 284 476 285 470 285 466 c 0
 285 459 282 457 277 457 c 0
234 -14 m 0
 122 -14 35 70 35 187 c 0
 35 298 131 414 254 414 c 0
 370 414 460 321 460 213 c 0
 460 96 384 -14 234 -14 c 0
255 16 m 0
 300 16 338 32 358 71 c 0
 374 102 378 150 378 189 c 0
 378 284 322 383 237 383 c 0
 201 383 173 374 149 343 c 0
 122 309 117 258 117 210 c 0
 117 111 175 16 255 16 c 0
EndSplineSet
EndChar

StartChar: oacute
Encoding: 243 243 172
Width: 495
GlyphClass: 2
Flags: MW
HStem: -14 30<215 277.5 215 309> 383 31<219 279.5>
VStem: 35 82<160.5 234 160.5 242.5> 378 82<169.5 236.5>
LayerCount: 2
Fore
SplineSet
230 457 m 0
 225 457 222 459 222 466 c 0
 222 470 223 476 226 484 c 0
 240 521 287 604 303 631 c 0
 309 641 320 649 330 649 c 0
 355 649 379 642 379 628 c 0
 379 620 375 616 369 607 c 0
 345 572 287 504 261 478 c 0
 247 464 237 457 230 457 c 0
234 -14 m 0
 122 -14 35 70 35 187 c 0
 35 298 131 414 254 414 c 0
 370 414 460 321 460 213 c 0
 460 96 384 -14 234 -14 c 0
255 16 m 0
 300 16 338 32 358 71 c 0
 374 102 378 150 378 189 c 0
 378 284 322 383 237 383 c 0
 201 383 173 374 149 343 c 0
 122 309 117 258 117 210 c 0
 117 111 175 16 255 16 c 0
EndSplineSet
EndChar

StartChar: ocircumflex
Encoding: 244 244 173
Width: 495
GlyphClass: 2
Flags: MW
HStem: -14 30<215 277.5 215 309> 383 31<219 279.5>
VStem: 35 82<160.5 234 160.5 242.5> 378 82<169.5 236.5>
LayerCount: 2
Fore
SplineSet
254 648 m 0
 262 648 269 638 274 630 c 0
 294 599 362 481 362 468 c 0
 362 459 362 455 353 455 c 0
 345 455 332 468 324 477 c 0
 311 492 280 532 258 562 c 0
 255 566 254 566 251 562 c 0
 229 532 198 492 185 477 c 0
 177 468 163 455 155 455 c 0
 146 455 146 459 146 468 c 0
 146 481 214 599 234 630 c 0
 239 638 246 648 254 648 c 0
234 -14 m 0
 122 -14 35 70 35 187 c 0
 35 298 131 414 254 414 c 0
 370 414 460 321 460 213 c 0
 460 96 384 -14 234 -14 c 0
255 16 m 0
 300 16 338 32 358 71 c 0
 374 102 378 150 378 189 c 0
 378 284 322 383 237 383 c 0
 201 383 173 374 149 343 c 0
 122 309 117 258 117 210 c 0
 117 111 175 16 255 16 c 0
EndSplineSet
EndChar

StartChar: otilde
Encoding: 245 245 174
Width: 495
GlyphClass: 2
Flags: MW
HStem: -14 30<215 277.5 215 309> 383 31<219 279.5> 500 67<190.5 205>
VStem: 35 82<160.5 234 160.5 242.5> 378 82<169.5 236.5>
LayerCount: 2
Fore
SplineSet
125 458 m 0
 115 458 109 463 109 473 c 0
 109 483 178 567 203 567 c 0
 225 567 235 564 254 562 c 0
 276 560 292 558 310 558 c 0
 325 558 339 567 349 577 c 0
 363 591 373 605 377 605 c 0
 387 605 396 598 396 588 c 0
 396 584 388 576 374 562 c 0
 358 547 340 522 327 506 c 0
 319 496 302 492 298 492 c 0
 282 492 223 500 187 500 c 0
 173 500 159 488 148 478 c 0
 139 470 129 458 125 458 c 0
234 -14 m 0
 122 -14 35 70 35 187 c 0
 35 298 131 414 254 414 c 0
 370 414 460 321 460 213 c 0
 460 96 384 -14 234 -14 c 0
255 16 m 0
 300 16 338 32 358 71 c 0
 374 102 378 150 378 189 c 0
 378 284 322 383 237 383 c 0
 201 383 173 374 149 343 c 0
 122 309 117 258 117 210 c 0
 117 111 175 16 255 16 c 0
EndSplineSet
EndChar

StartChar: odieresis
Encoding: 246 246 175
Width: 495
GlyphClass: 2
Flags: MW
HStem: -14 30<215 277.5 215 309> 383 31<219 279.5> 508 100<153.5 178.5 330.5 355.5>
VStem: 35 82<160.5 234 160.5 242.5> 116 100<545.5 570.5> 293 100<545.5 570.5> 378 82<169.5 236.5>
LayerCount: 2
Fore
SplineSet
166 508 m 0xec
 141 508 116 533 116 558 c 0
 116 583 141 608 166 608 c 0
 191 608 216 583 216 558 c 0
 216 533 191 508 166 508 c 0xec
343 508 m 0
 318 508 293 533 293 558 c 0
 293 583 318 608 343 608 c 0
 368 608 393 583 393 558 c 0
 393 533 368 508 343 508 c 0
234 -14 m 0xd2
 122 -14 35 70 35 187 c 0
 35 298 131 414 254 414 c 0
 370 414 460 321 460 213 c 0
 460 96 384 -14 234 -14 c 0xd2
255 16 m 0
 300 16 338 32 358 71 c 0
 374 102 378 150 378 189 c 0
 378 284 322 383 237 383 c 0
 201 383 173 374 149 343 c 0
 122 309 117 258 117 210 c 0
 117 111 175 16 255 16 c 0
EndSplineSet
EndChar

StartChar: divide
Encoding: 247 247 176
Width: 590
GlyphClass: 2
Flags: MW
HStem: 57 94<281.5 307> 222 50<80.5 511 93 493> 342 94<280.5 306>
VStem: 247 94<91 117>
LayerCount: 2
Fore
SplineSet
293 342 m 0
 268 342 246 363 246 389 c 0
 246 415 268 436 293 436 c 0
 319 436 340 415 340 389 c 0
 340 363 319 342 293 342 c 0
84 222 m 2
 77 222 70 227 70 232 c 0
 70 240 73 272 93 272 c 2
 511 272 l 2
 516 272 523 267 523 262 c 0
 523 243 511 222 493 222 c 2
 84 222 l 2
294 57 m 0
 269 57 247 78 247 104 c 0
 247 130 269 151 294 151 c 0
 320 151 341 130 341 104 c 0
 341 78 320 57 294 57 c 0
EndSplineSet
EndChar

StartChar: oslash
Encoding: 248 248 177
Width: 485
GlyphClass: 2
Flags: MW
HStem: -14 30<234 277.5 234 309> 383 31<219 259>
VStem: 35 82<194 234 194 242.5> 378 82<169.5 205>
LayerCount: 2
Fore
SplineSet
452 374 m 2
 415 338 l 1
 443 303 460 259 460 213 c 0
 460 96 384 -14 234 -14 c 0
 183 -14 138 3 103 33 c 1
 57 -12 l 2
 55 -14 53 -15 50 -15 c 0
 38 -15 26 -4 26 5 c 0
 26 12 30 20 36 25 c 2
 75 63 l 1
 50 96 35 139 35 187 c 0
 35 298 131 414 254 414 c 0
 306 414 353 395 389 364 c 1
 438 411 l 2
 441 414 445 415 449 415 c 0
 459 415 463 408 463 400 c 0
 463 391 459 380 452 374 c 2
117 210 m 0
 117 178 123 147 134 119 c 1
 342 318 l 1
 317 357 281 383 237 383 c 0
 201 383 173 374 149 343 c 0
 122 309 117 258 117 210 c 0
378 189 m 0
 378 221 371 254 359 284 c 1
 152 81 l 1
 177 42 213 16 255 16 c 0
 300 16 338 32 358 71 c 0
 374 102 378 150 378 189 c 0
EndSplineSet
EndChar

StartChar: ugrave
Encoding: 249 249 178
Width: 527
GlyphClass: 2
Flags: MW
ItalicCorrection: 7
HStem: -14 51<217.5 230> 365 32<295.5 301 295.5 311> 394 20G<149.5 154> 395 20G<432.5 437.5>
VStem: 85 70<105 128 128 308 308 322.5> 368 70<132 315 315 326>
LayerCount: 2
Fore
SplineSet
275 457 m 0x9c
 268 457 258 464 244 478 c 0
 218 504 160 572 136 607 c 0
 130 616 126 620 126 628 c 0
 126 642 150 649 175 649 c 0
 185 649 196 641 202 631 c 0
 218 604 265 521 279 484 c 0
 282 476 283 470 283 466 c 0
 283 459 280 457 275 457 c 0x9c
366 -19 m 0
 361 -19 359 -16 359 -11 c 0
 359 2 364 34 364 51 c 2
 364 57 l 1
 312 6 261 -14 199 -14 c 0
 134 -14 85 27 85 105 c 2
 85 308 l 2
 85 337 72 353 42 365 c 0
 35 367 29 370 29 381 c 0
 29 393 36 396 44 397 c 0
 89 400 106 404 143 413 c 0
 147 414 148 414 151 414 c 0
 157 414 162 411 161 400 c 0
 157 369 155 353 155 323 c 2xac
 155 128 l 2
 155 80 196 37 239 37 c 0
 273 37 298 38 323 57 c 0
 338 68 368 91 368 132 c 2
 368 315 l 2
 368 356 321 365 301 365 c 0
 289 365 280 368 280 382 c 0
 280 394 290 397 301 397 c 0xcc
 362 398 388 403 424 413 c 0
 427 414 431 415 434 415 c 0
 441 415 447 411 447 404 c 0
 447 402 446 399 445 395 c 0
 443 388 438 342 438 326 c 2
 438 95 l 2
 438 59 446 45 456 45 c 0
 466 45 492 48 502 48 c 0
 509 48 517 47 517 35 c 0
 517 24 511 22 503 21 c 0
 451 14 415 -1 386 -13 c 0
 382 -15 372 -19 366 -19 c 0
EndSplineSet
EndChar

StartChar: uacute
Encoding: 250 250 179
Width: 527
GlyphClass: 2
Flags: MW
ItalicCorrection: 7
HStem: -14 51<217.5 230> 365 32<295.5 301 295.5 311> 394 20G<149.5 154> 395 20G<432.5 437.5>
VStem: 85 70<105 128 128 308 308 322.5> 368 70<132 315 315 326>
LayerCount: 2
Fore
SplineSet
228 457 m 0x9c
 223 457 220 459 220 466 c 0
 220 470 221 476 224 484 c 0
 238 521 285 604 301 631 c 0
 307 641 318 649 328 649 c 0
 353 649 377 642 377 628 c 0
 377 620 373 616 367 607 c 0
 343 572 285 504 259 478 c 0
 245 464 235 457 228 457 c 0x9c
366 -19 m 0
 361 -19 359 -16 359 -11 c 0
 359 2 364 34 364 51 c 2
 364 57 l 1
 312 6 261 -14 199 -14 c 0
 134 -14 85 27 85 105 c 2
 85 308 l 2
 85 337 72 353 42 365 c 0
 35 367 29 370 29 381 c 0
 29 393 36 396 44 397 c 0
 89 400 106 404 143 413 c 0
 147 414 148 414 151 414 c 0
 157 414 162 411 161 400 c 0
 157 369 155 353 155 323 c 2xac
 155 128 l 2
 155 80 196 37 239 37 c 0
 273 37 298 38 323 57 c 0
 338 68 368 91 368 132 c 2
 368 315 l 2
 368 356 321 365 301 365 c 0
 289 365 280 368 280 382 c 0
 280 394 290 397 301 397 c 0xcc
 362 398 388 403 424 413 c 0
 427 414 431 415 434 415 c 0
 441 415 447 411 447 404 c 0
 447 402 446 399 445 395 c 0
 443 388 438 342 438 326 c 2
 438 95 l 2
 438 59 446 45 456 45 c 0
 466 45 492 48 502 48 c 0
 509 48 517 47 517 35 c 0
 517 24 511 22 503 21 c 0
 451 14 415 -1 386 -13 c 0
 382 -15 372 -19 366 -19 c 0
EndSplineSet
EndChar

StartChar: ucircumflex
Encoding: 251 251 180
Width: 527
GlyphClass: 2
Flags: MW
ItalicCorrection: 7
HStem: -14 51<217.5 230> 365 32<295.5 301 295.5 311> 394 20G<149.5 154> 395 20G<432.5 437.5>
VStem: 85 70<105 128 128 308 308 322.5> 368 70<132 315 315 326>
LayerCount: 2
Fore
SplineSet
252 648 m 0x9c
 260 648 267 638 272 630 c 0
 292 599 360 481 360 468 c 0
 360 459 360 455 351 455 c 0
 343 455 330 468 322 477 c 0
 309 492 278 532 256 562 c 0
 253 566 252 566 249 562 c 0
 227 532 196 492 183 477 c 0
 175 468 161 455 153 455 c 0
 144 455 144 459 144 468 c 0
 144 481 212 599 232 630 c 0
 237 638 244 648 252 648 c 0x9c
366 -19 m 0
 361 -19 359 -16 359 -11 c 0
 359 2 364 34 364 51 c 2
 364 57 l 1
 312 6 261 -14 199 -14 c 0
 134 -14 85 27 85 105 c 2
 85 308 l 2
 85 337 72 353 42 365 c 0
 35 367 29 370 29 381 c 0
 29 393 36 396 44 397 c 0
 89 400 106 404 143 413 c 0
 147 414 148 414 151 414 c 0
 157 414 162 411 161 400 c 0
 157 369 155 353 155 323 c 2xac
 155 128 l 2
 155 80 196 37 239 37 c 0
 273 37 298 38 323 57 c 0
 338 68 368 91 368 132 c 2
 368 315 l 2
 368 356 321 365 301 365 c 0
 289 365 280 368 280 382 c 0
 280 394 290 397 301 397 c 0xcc
 362 398 388 403 424 413 c 0
 427 414 431 415 434 415 c 0
 441 415 447 411 447 404 c 0
 447 402 446 399 445 395 c 0
 443 388 438 342 438 326 c 2
 438 95 l 2
 438 59 446 45 456 45 c 0
 466 45 492 48 502 48 c 0
 509 48 517 47 517 35 c 0
 517 24 511 22 503 21 c 0
 451 14 415 -1 386 -13 c 0
 382 -15 372 -19 366 -19 c 0
EndSplineSet
EndChar

StartChar: udieresis
Encoding: 252 252 181
Width: 527
GlyphClass: 2
Flags: MW
ItalicCorrection: 7
HStem: -14 51<217.5 230> 365 32<295.5 301 295.5 311> 394 20G<149.5 154> 395 20G<432.5 437.5> 508 100<151.5 176.5 328.5 353.5>
VStem: 85 70<105 128 128 308 308 322.5> 114 100<545.5 570.5> 291 100<545.5 570.5> 368 70<132 315 315 326>
LayerCount: 2
Fore
SplineSet
164 508 m 0x9b
 139 508 114 533 114 558 c 0
 114 583 139 608 164 608 c 0
 189 608 214 583 214 558 c 0
 214 533 189 508 164 508 c 0x9b
341 508 m 0
 316 508 291 533 291 558 c 0
 291 583 316 608 341 608 c 0
 366 608 391 583 391 558 c 0
 391 533 366 508 341 508 c 0
366 -19 m 0x9c80
 361 -19 359 -16 359 -11 c 0
 359 2 364 34 364 51 c 2
 364 57 l 1
 312 6 261 -14 199 -14 c 0
 134 -14 85 27 85 105 c 2
 85 308 l 2
 85 337 72 353 42 365 c 0
 35 367 29 370 29 381 c 0
 29 393 36 396 44 397 c 0
 89 400 106 404 143 413 c 0
 147 414 148 414 151 414 c 0
 157 414 162 411 161 400 c 0
 157 369 155 353 155 323 c 2xac80
 155 128 l 2
 155 80 196 37 239 37 c 0
 273 37 298 38 323 57 c 0
 338 68 368 91 368 132 c 2
 368 315 l 2
 368 356 321 365 301 365 c 0
 289 365 280 368 280 382 c 0
 280 394 290 397 301 397 c 0xcc80
 362 398 388 403 424 413 c 0
 427 414 431 415 434 415 c 0
 441 415 447 411 447 404 c 0
 447 402 446 399 445 395 c 0
 443 388 438 342 438 326 c 2
 438 95 l 2
 438 59 446 45 456 45 c 0
 466 45 492 48 502 48 c 0
 509 48 517 47 517 35 c 0
 517 24 511 22 503 21 c 0
 451 14 415 -1 386 -13 c 0
 382 -15 372 -19 366 -19 c 0x9c80
EndSplineSet
EndChar

StartChar: yacute
Encoding: 253 253 182
Width: 438
GlyphClass: 2
Flags: MW
ItalicCorrection: 3
HStem: -285 21G<51 78.5> -285 86<51 53.5 35.5 78.5> 385 20G<21.5 45 154 178 289.5 302 412 426.5>
VStem: 5 438<391 400>
LayerCount: 2
Fore
SplineSet
218 457 m 0xb0
 213 457 210 459 210 466 c 0
 210 470 211 476 214 484 c 0
 228 521 275 604 291 631 c 0
 297 641 308 649 318 649 c 0
 343 649 367 642 367 628 c 0
 367 620 363 616 357 607 c 0
 333 572 275 504 249 478 c 0
 235 464 225 457 218 457 c 0xb0
64 -285 m 0
 38 -285 13 -274 13 -244 c 0
 13 -220 25 -199 46 -199 c 0
 61 -199 75 -205 86 -205 c 0
 94 -205 100 -202 105 -194 c 0x70
 127 -159 161 -93 190 -16 c 0
 192 -10 193 -2 193 7 c 0
 193 18 192 28 189 36 c 2
 73 329 l 2
 63 353 48 372 28 378 c 0
 17 382 5 386 5 396 c 0
 5 404 18 405 25 405 c 0
 65 405 63 400 98 400 c 0
 133 400 134 405 174 405 c 0
 182 405 194 402 194 394 c 0
 194 384 176 375 165 372 c 0
 151 368 145 359 145 340 c 0
 145 332 150 319 153 312 c 2
 234 112 l 2
 235 109 237 106 240 106 c 0
 242 106 244 109 245 112 c 2
 314 295 l 2
 318 304 322 322 322 332 c 0
 322 357 314 365 302 370 c 0
 291 375 273 384 273 394 c 0
 273 402 286 405 293 405 c 0
 311 405 327 400 364 400 c 0
 401 400 401 405 423 405 c 0
 430 405 443 404 443 396 c 0
 443 386 431 382 420 378 c 0
 400 372 374 343 361 311 c 2
 225 -13 l 2
 221 -22 170 -148 129 -244 c 0
 117 -271 93 -285 64 -285 c 0
EndSplineSet
EndChar

StartChar: thorn
Encoding: 254 254 183
Width: 505
GlyphClass: 2
Flags: MW
HStem: -285 21G<34.5 58.5 175.5 199.5> -14 31<249 290.5 249 319> 369 45<285.5 286.5> 685 20G<155.5 157.5>
VStem: 85 70<-219 -33 105.5 115 115 269 374.5 386 386 562> 401 80<165.5 270>
LayerCount: 2
Fore
SplineSet
39 -285 m 0
 30 -285 16 -285 16 -276 c 0
 16 -266 28 -262 39 -258 c 0
 59 -252 85 -247 85 -219 c 2
 85 566 l 2
 85 599 72 632 39 639 c 0
 34 640 31 646 31 652 c 0
 31 658 34 663 38 664 c 0
 89 676 122 692 154 704 c 0
 155 704 155 705 156 705 c 0
 159 705 162 701 162 698 c 0
 162 686 156 652 155 562 c 2
 155 386 l 2
 155 363 156 349 157 348 c 1
 176 367 254 414 317 414 c 0
 420 414 481 319 481 225 c 0
 481 106 382 -14 256 -14 c 0
 228 -14 178 0 158 18 c 0
 155 18 155 -27 155 -33 c 2
 155 -219 l 2
 155 -247 175 -252 195 -258 c 0
 206 -262 218 -266 218 -276 c 0
 218 -285 204 -285 195 -285 c 0
 156 -285 152 -280 117 -280 c 0
 82 -280 78 -285 39 -285 c 0
271 17 m 0
 310 17 401 59 401 193 c 0
 401 347 308 369 265 369 c 0
 231 369 204 359 179 340 c 0
 164 329 155 310 155 269 c 2
 155 115 l 2
 155 96 159 60 178 42 c 0
 193 28 227 17 271 17 c 0
EndSplineSet
EndChar

StartChar: ydieresis
Encoding: 255 255 184
Width: 438
GlyphClass: 2
Flags: MW
ItalicCorrection: 3
HStem: -285 21G<51 78.5> -285 86<51 53.5 35.5 78.5> 385 20G<21.5 45 154 178 289.5 302 412 426.5> 508 100<141.5 166.5 318.5 343.5>
VStem: 104 100<545.5 570.5> 281 100<545.5 570.5>
LayerCount: 2
Fore
SplineSet
154 508 m 0xbc
 129 508 104 533 104 558 c 0
 104 583 129 608 154 608 c 0
 179 608 204 583 204 558 c 0
 204 533 179 508 154 508 c 0xbc
331 508 m 0
 306 508 281 533 281 558 c 0
 281 583 306 608 331 608 c 0
 356 608 381 583 381 558 c 0
 381 533 356 508 331 508 c 0
64 -285 m 0
 38 -285 13 -274 13 -244 c 0
 13 -220 25 -199 46 -199 c 0
 61 -199 75 -205 86 -205 c 0
 94 -205 100 -202 105 -194 c 0x7c
 127 -159 161 -93 190 -16 c 0
 192 -10 193 -2 193 7 c 0
 193 18 192 28 189 36 c 2
 73 329 l 2
 63 353 48 372 28 378 c 0
 17 382 5 386 5 396 c 0
 5 404 18 405 25 405 c 0
 65 405 63 400 98 400 c 0
 133 400 134 405 174 405 c 0
 182 405 194 402 194 394 c 0
 194 384 176 375 165 372 c 0
 151 368 145 359 145 340 c 0
 145 332 150 319 153 312 c 2
 234 112 l 2
 235 109 237 106 240 106 c 0
 242 106 244 109 245 112 c 2
 314 295 l 2
 318 304 322 322 322 332 c 0
 322 357 314 365 302 370 c 0
 291 375 273 384 273 394 c 0
 273 402 286 405 293 405 c 0
 311 405 327 400 364 400 c 0
 401 400 401 405 423 405 c 0
 430 405 443 404 443 396 c 0
 443 386 431 382 420 378 c 0
 400 372 374 343 361 311 c 2
 225 -13 l 2
 221 -22 170 -148 129 -244 c 0
 117 -271 93 -285 64 -285 c 0
EndSplineSet
EndChar

StartChar: Amacron
Encoding: 256 256 185
Width: 692
GlyphClass: 2
Flags: MW
ItalicCorrection: 12
HStem: -5 21G<18.5 43.5 654 676.5> -1 21G<229 246.5> 0 21G<415.5 436> 249 33<231 416 261 416 416 421 261 423> 723 54<227.5 504 241 486>
VStem: -2 699<4 9.5 1 12.5>
LayerCount: 2
Fore
SplineSet
231 723 m 2x3c
 224 723 217 729 217 735 c 0
 217 744 222 777 241 777 c 2
 504 777 l 2
 510 777 517 771 517 765 c 0
 517 745 502 723 486 723 c 2
 231 723 l 2x3c
27 -5 m 0x9c
 10 -5 -2 0 -2 8 c 0
 -2 17 9 24 31 31 c 0
 65 41 95 58 117 108 c 0
 192 279 236 393 304 578 c 0
 311 597 316 615 318 636 c 1
 330 640 342 643 354 651 c 0
 366 659 369 679 373 685 c 0
 374 686 377 686 378 684 c 0
 381 678 382 670 385 662 c 0
 449 459 530 223 563 128 c 0
 591 48 624 35 664 28 c 0
 687 24 697 14 697 5 c 0
 697 -3 685 -5 668 -5 c 0x9c
 640 -5 574 1 529 1 c 0
 490 1 448 0 424 0 c 0
 407 0 395 4 395 12 c 0
 395 21 410 28 428 31 c 0
 472 38 489 54 489 76 c 0x3c
 489 105 465 188 450 238 c 0
 447 248 441 249 423 249 c 2
 234 249 l 2
 228 249 222 245 217 231 c 0
 208 205 176 100 176 87 c 0
 176 58 202 38 234 30 c 0
 257 24 267 19 267 10 c 0
 267 2 255 -1 238 -1 c 0x5c
 220 -1 184 1 147 1 c 0
 103 1 60 -5 27 -5 c 0x9c
261 282 m 2x3c
 416 282 l 2
 426 282 430 282 430 287 c 0
 430 289 429 293 428 297 c 2
 350 541 l 2
 346 553 344 559 341 559 c 0
 339 559 337 553 333 542 c 2
 242 297 l 2
 241 294 240 291 240 289 c 0
 240 282 248 282 261 282 c 2x3c
EndSplineSet
EndChar

StartChar: amacron
Encoding: 257 257 186
Width: 399
GlyphClass: 2
Flags: MW
ItalicCorrection: 26
HStem: -14 48<99 177> -14 52 365 49<171 253> 500 55<91.5 308 105 290>
VStem: 37 78<69.5 93> 40 76<271.5 324> 239 69.5
LayerCount: 2
Fore
SplineSet
95 500 m 2xba
 88 500 81 506 81 512 c 0
 81 521 86 555 105 555 c 2
 308 555 l 2
 314 555 321 549 321 543 c 0
 321 521 311 500 290 500 c 2
 95 500 l 2xba
117 -14 m 0
 81 -14 37 35 37 72 c 0
 37 114 59 135 108 155 c 2xba
 210 197 l 2
 236 208 237 210 238 237 c 2
 240 301 l 2
 241 336 219 365 181 365 c 0
 161 365 139 358 126 347 c 0
 118 341 116 330 116 318 c 2
 117 300 l 2
 117 290 71 265 51 265 c 0
 44 265 40 269 40 274 c 0
 40 295 55 321 80 343 c 0
 125 384 189 414 229 414 c 0
 277 414 312 376 311 325 c 2
 306 85 l 2
 305 57 320 38 342 38 c 0
 359 38 370 41 379 49 c 0
 383 53 385 54 387 54 c 0
 393 54 398 49 398 43 c 0x76
 398 37 393 27 387 21 c 0
 366 0 339 -14 318 -14 c 0
 287 -14 263 3 245 38 c 1
 242 38 l 1
 198 2 160 -14 117 -14 c 0
164 34 m 0
 190 34 208 43 223 58 c 0
 230 65 235 74 236 99 c 2
 238 148 l 2
 239 163 237 169 229 169 c 0
 226 169 220 168 209 164 c 0
 138 138 115 110 115 87 c 0
 115 52 140 34 164 34 c 0
EndSplineSet
EndChar

StartChar: Abreve
Encoding: 258 258 187
Width: 692
GlyphClass: 2
Flags: MW
ItalicCorrection: 12
HStem: -5 21G<18.5 43.5 654 676.5> -1 21G<229 246.5> 0 21G<415.5 436> 249 33<231 416 261 416 416 421 261 423> 692 60<341.5 384.5 341.5 405.5>
VStem: -2 699<4 9.5 1 12.5>
LayerCount: 2
Fore
SplineSet
363 692 m 0x3c
 278 692 226 756 226 796 c 0
 226 809 230 820 236 820 c 0
 246 820 254 807 260 799 c 0
 287 767 320 752 363 752 c 0
 406 752 439 767 466 799 c 0
 472 807 480 820 490 820 c 0
 500 820 500 809 500 796 c 0
 500 756 448 692 363 692 c 0x3c
27 -5 m 0x9c
 10 -5 -2 0 -2 8 c 0
 -2 17 9 24 31 31 c 0
 65 41 95 58 117 108 c 0
 192 279 236 393 304 578 c 0
 311 597 316 615 318 636 c 1
 330 640 342 643 354 651 c 0
 366 659 369 679 373 685 c 0
 374 686 377 686 378 684 c 0
 381 678 382 670 385 662 c 0
 449 459 530 223 563 128 c 0
 591 48 624 35 664 28 c 0
 687 24 697 14 697 5 c 0
 697 -3 685 -5 668 -5 c 0x9c
 640 -5 574 1 529 1 c 0
 490 1 448 0 424 0 c 0
 407 0 395 4 395 12 c 0
 395 21 410 28 428 31 c 0
 472 38 489 54 489 76 c 0x3c
 489 105 465 188 450 238 c 0
 447 248 441 249 423 249 c 2
 234 249 l 2
 228 249 222 245 217 231 c 0
 208 205 176 100 176 87 c 0
 176 58 202 38 234 30 c 0
 257 24 267 19 267 10 c 0
 267 2 255 -1 238 -1 c 0x5c
 220 -1 184 1 147 1 c 0
 103 1 60 -5 27 -5 c 0x9c
261 282 m 2x3c
 416 282 l 2
 426 282 430 282 430 287 c 0
 430 289 429 293 428 297 c 2
 350 541 l 2
 346 553 344 559 341 559 c 0
 339 559 337 553 333 542 c 2
 242 297 l 2
 241 294 240 291 240 289 c 0
 240 282 248 282 261 282 c 2x3c
EndSplineSet
EndChar

StartChar: abreve
Encoding: 259 259 188
Width: 399
GlyphClass: 2
Flags: MW
ItalicCorrection: 26
HStem: -14 48<99 177> -14 52 365 49<171 253> 478 60<176 226 176 236>
VStem: 37 78<69.5 93> 40 76<271.5 324> 239 69.5
LayerCount: 2
Fore
SplineSet
201 478 m 0xba
 131 478 94 534 94 584 c 0
 94 597 99 608 109 608 c 0
 119 608 122 597 124 587 c 0
 129 562 151 538 201 538 c 0
 251 538 273 562 278 587 c 0
 280 597 283 608 293 608 c 0
 303 608 308 597 308 584 c 0
 308 534 271 478 201 478 c 0xba
117 -14 m 0
 81 -14 37 35 37 72 c 0
 37 114 59 135 108 155 c 2xba
 210 197 l 2
 236 208 237 210 238 237 c 2
 240 301 l 2
 241 336 219 365 181 365 c 0
 161 365 139 358 126 347 c 0
 118 341 116 330 116 318 c 2
 117 300 l 2
 117 290 71 265 51 265 c 0
 44 265 40 269 40 274 c 0
 40 295 55 321 80 343 c 0
 125 384 189 414 229 414 c 0
 277 414 312 376 311 325 c 2
 306 85 l 2
 305 57 320 38 342 38 c 0
 359 38 370 41 379 49 c 0
 383 53 385 54 387 54 c 0
 393 54 398 49 398 43 c 0x76
 398 37 393 27 387 21 c 0
 366 0 339 -14 318 -14 c 0
 287 -14 263 3 245 38 c 1
 242 38 l 1
 198 2 160 -14 117 -14 c 0
164 34 m 0
 190 34 208 43 223 58 c 0
 230 65 235 74 236 99 c 2
 238 148 l 2
 239 163 237 169 229 169 c 0
 226 169 220 168 209 164 c 0
 138 138 115 110 115 87 c 0
 115 52 140 34 164 34 c 0
EndSplineSet
EndChar

StartChar: Aogonek
Encoding: 260 260 189
Width: 692
GlyphClass: 2
Flags: MW
ItalicCorrection: 12
HStem: -287 71<529.5 537> -5 21G<18.5 43.5 658 676.5> -1 21G<229 246.5> 0 21G<415.5 436> 249 33<231 416 261 416 416 421 261 423>
VStem: 396 85<-172.5 -136.5>
LayerCount: 2
Fore
SplineSet
664 28 m 0x9c
 687 24 697 14 697 5 c 0
 697 -3 685 -5 668 -5 c 0xcc
 648 -5 607 -2 569 0 c 1
 536 -28 481 -85 481 -155 c 0
 481 -190 512 -216 547 -216 c 0
 582 -216 620 -181 629 -176 c 0
 634 -173 641 -174 641 -182 c 0
 641 -225 564 -287 510 -287 c 0
 447 -287 396 -237 396 -174 c 0
 396 -99 490 -30 538 1 c 1
 529 1 l 2
 490 1 448 0 424 0 c 0
 407 0 395 4 395 12 c 0
 395 21 410 28 428 31 c 0
 472 38 489 54 489 76 c 0x9c
 489 105 465 188 450 238 c 0
 447 248 441 249 423 249 c 2
 234 249 l 2
 228 249 222 245 217 231 c 0
 208 205 176 100 176 87 c 0
 176 58 202 38 234 30 c 0
 257 24 267 19 267 10 c 0
 267 2 255 -1 238 -1 c 0xac
 220 -1 184 1 147 1 c 0
 103 1 60 -5 27 -5 c 0
 10 -5 -2 0 -2 8 c 0
 -2 17 9 24 31 31 c 0xcc
 65 41 95 58 117 108 c 0
 192 279 236 393 304 578 c 0
 311 597 316 615 318 636 c 1
 330 640 342 643 354 651 c 0
 366 659 369 679 373 685 c 0
 374 686 377 686 378 684 c 0
 381 678 382 670 385 662 c 0
 449 459 530 223 563 128 c 0
 591 48 624 35 664 28 c 0x9c
416 282 m 2
 426 282 430 282 430 287 c 0
 430 289 429 293 428 297 c 2
 350 541 l 2
 346 553 344 559 341 559 c 0
 339 559 337 553 333 542 c 2
 242 297 l 2
 241 294 240 291 240 289 c 0
 240 282 248 282 261 282 c 2
 416 282 l 2
EndSplineSet
EndChar

StartChar: aogonek
Encoding: 261 261 190
Width: 399
GlyphClass: 2
Flags: MW
ItalicCorrection: 26
HStem: -287 66<322 334> -14 48<99 177> -14 52 365 49<171 253>
VStem: 37 78<69.5 93> 40 76<271.5 324> 205 74<-174 -144.5> 239 69.5
LayerCount: 2
Fore
SplineSet
398 -200 m 0xd1
 402 -200 406 -201 406 -207 c 0
 406 -226 362 -287 306 -287 c 0
 248 -287 205 -253 205 -179 c 0
 205 -110 266 -49 309 -14 c 1
 282 -11 261 6 245 38 c 1
 242 38 l 1
 198 2 160 -14 117 -14 c 0
 81 -14 37 35 37 72 c 0
 37 114 59 135 108 155 c 2xda
 210 197 l 2
 236 208 237 210 238 237 c 2
 240 301 l 2
 241 336 219 365 181 365 c 0
 161 365 139 358 126 347 c 0
 118 341 116 330 116 318 c 2
 117 300 l 2
 117 290 71 265 51 265 c 0
 44 265 40 269 40 274 c 0
 40 295 55 321 80 343 c 0
 125 384 189 414 229 414 c 0
 277 414 312 376 311 325 c 2
 306 85 l 2
 305 57 320 38 342 38 c 0
 359 38 370 41 379 49 c 0
 383 53 385 54 387 54 c 0
 393 54 398 49 398 43 c 0
 398 37 393 27 387 21 c 0xb5
 381 15 374 9 366 4 c 0
 325 -36 279 -81 279 -152 c 0
 279 -196 305 -221 339 -221 c 0xb2
 374 -221 393 -200 398 -200 c 0xd1
238 148 m 2
 239 163 237 169 229 169 c 0
 226 169 220 168 209 164 c 0
 138 138 115 110 115 87 c 0
 115 52 140 34 164 34 c 0xd9
 190 34 208 43 223 58 c 0
 230 65 235 74 236 99 c 2
 238 148 l 2
EndSplineSet
EndChar

StartChar: Cacute
Encoding: 262 262 191
Width: 710
GlyphClass: 2
Flags: MW
HStem: -15 31<339 439.5> 632 31<337 442.5>
VStem: 46 101<265.5 420>
LayerCount: 2
Fore
SplineSet
368 685 m 0
 364 685 362 688 362 691 c 0
 362 695 364 701 367 706 c 0
 391 746 417 786 444 825 c 0
 451 835 460 838 471 838 c 0
 485 838 529 829 529 815 c 0
 529 808 525 804 516 796 c 0
 477 761 425 725 386 694 c 0
 377 687 371 685 368 685 c 0
407 -15 m 0
 220 -15 46 119 46 323 c 0
 46 517 227 663 432 663 c 0
 509 663 542 654 610 637 c 0
 630 632 637 621 639 603 c 0
 642 572 646 540 648 488 c 0
 649 473 620 464 614 487 c 0
 601 538 587 574 552 598 c 0
 519 620 470 632 415 632 c 0
 259 632 147 494 147 347 c 0
 147 184 256 16 422 16 c 0
 518 16 577 62 621 141 c 0
 630 158 655 159 655 138 c 0
 655 122 640 70 628 41 c 0
 618 22 617 21 596 14 c 0
 547 -6 472 -15 407 -15 c 0
EndSplineSet
EndChar

StartChar: cacute
Encoding: 263 263 192
Width: 407
GlyphClass: 2
Flags: MW
HStem: -15 60<213.5 243.5> 377 37<187.5 226>
VStem: 35 69<165 245>
LayerCount: 2
Fore
SplineSet
213 457 m 0
 208 457 205 459 205 466 c 0
 205 470 206 476 209 484 c 0
 223 521 270 604 286 631 c 0
 292 641 303 649 313 649 c 0
 338 649 362 642 362 628 c 0
 362 620 358 616 352 607 c 0
 328 572 270 504 244 478 c 0
 230 464 220 457 213 457 c 0
213 -15 m 0
 112 -15 35 69 35 180 c 0
 35 310 129 414 246 414 c 0
 289 414 328 402 360 379 c 0
 368 373 372 367 372 360 c 0
 372 343 346 319 329 319 c 0
 322 319 316 324 308 330 c 0
 279 352 238 377 214 377 c 0
 149 377 104 310 104 212 c 0
 104 118 171 45 256 45 c 0
 295 45 319 56 351 88 c 0
 354 91 358 93 361 93 c 0
 367 93 372 87 372 79 c 0
 372 71 367 61 357 48 c 0
 325 7 274 -15 213 -15 c 0
EndSplineSet
EndChar

StartChar: Ccircumflex
Encoding: 264 264 193
Width: 710
GlyphClass: 2
Flags: MW
HStem: -15 31<339 439.5> 632 31<337 442.5> 754.75 68.25
VStem: 46 101<265.5 420>
LayerCount: 2
Fore
SplineSet
270 696 m 0
 261 696 255 700 255 706 c 0
 255 710 257 714 262 718 c 2
 360 801 l 2
 379 817 386 823 401 823 c 0
 416 823 423 817 442 801 c 2
 540 718 l 2
 545 714 546 710 546 706 c 0
 546 700 541 695 532 695 c 0
 519 695 437 736 411 751 c 0
 402 756 400 756 391 751 c 0
 365 736 283 696 270 696 c 0
407 -15 m 0
 220 -15 46 119 46 323 c 0
 46 517 227 663 432 663 c 0
 509 663 542 654 610 637 c 0
 630 632 637 621 639 603 c 0
 642 572 646 540 648 488 c 0
 649 473 620 464 614 487 c 0
 601 538 587 574 552 598 c 0
 519 620 470 632 415 632 c 0
 259 632 147 494 147 347 c 0
 147 184 256 16 422 16 c 0
 518 16 577 62 621 141 c 0
 630 158 655 159 655 138 c 0
 655 122 640 70 628 41 c 0
 618 22 617 21 596 14 c 0
 547 -6 472 -15 407 -15 c 0
EndSplineSet
EndChar

StartChar: ccircumflex
Encoding: 265 265 194
Width: 407
GlyphClass: 2
Flags: MW
HStem: -15 60<213.5 243.5> 377 37<187.5 226>
VStem: 35 69<165 245>
LayerCount: 2
Fore
SplineSet
237 648 m 0
 245 648 252 638 257 630 c 0
 277 599 345 481 345 468 c 0
 345 459 345 455 336 455 c 0
 328 455 315 468 307 477 c 0
 294 492 263 532 241 562 c 0
 238 566 237 566 234 562 c 0
 212 532 181 492 168 477 c 0
 160 468 146 455 138 455 c 0
 129 455 129 459 129 468 c 0
 129 481 197 599 217 630 c 0
 222 638 229 648 237 648 c 0
213 -15 m 0
 112 -15 35 69 35 180 c 0
 35 310 129 414 246 414 c 0
 289 414 328 402 360 379 c 0
 368 373 372 367 372 360 c 0
 372 343 346 319 329 319 c 0
 322 319 316 324 308 330 c 0
 279 352 238 377 214 377 c 0
 149 377 104 310 104 212 c 0
 104 118 171 45 256 45 c 0
 295 45 319 56 351 88 c 0
 354 91 358 93 361 93 c 0
 367 93 372 87 372 79 c 0
 372 71 367 61 357 48 c 0
 325 7 274 -15 213 -15 c 0
EndSplineSet
EndChar

StartChar: Cdotaccent
Encoding: 266 266 195
Width: 710
GlyphClass: 2
Flags: MW
HStem: -15 31<339 439.5> 632 31<337 442.5> 695 110<386 416>
VStem: 46 101<265.5 420> 346 110<735 765>
LayerCount: 2
Fore
SplineSet
401 695 m 0
 371 695 346 720 346 750 c 0
 346 780 371 805 401 805 c 0
 431 805 456 780 456 750 c 0
 456 720 431 695 401 695 c 0
407 -15 m 0
 220 -15 46 119 46 323 c 0
 46 517 227 663 432 663 c 0
 509 663 542 654 610 637 c 0
 630 632 637 621 639 603 c 0
 642 572 646 540 648 488 c 0
 649 473 620 464 614 487 c 0
 601 538 587 574 552 598 c 0
 519 620 470 632 415 632 c 0
 259 632 147 494 147 347 c 0
 147 184 256 16 422 16 c 0
 518 16 577 62 621 141 c 0
 630 158 655 159 655 138 c 0
 655 122 640 70 628 41 c 0
 618 22 617 21 596 14 c 0
 547 -6 472 -15 407 -15 c 0
EndSplineSet
EndChar

StartChar: cdotaccent
Encoding: 267 267 196
Width: 407
GlyphClass: 2
Flags: MW
HStem: -15 60<213.5 243.5> 377 37<187.5 226> 516 101<223 251.5>
VStem: 35 69<165 245> 187 101<552 580.5>
LayerCount: 2
Fore
SplineSet
237 516 m 0
 209 516 187 538 187 566 c 0
 187 595 209 617 237 617 c 0
 266 617 288 595 288 566 c 0
 288 538 266 516 237 516 c 0
213 -15 m 0
 112 -15 35 69 35 180 c 0
 35 310 129 414 246 414 c 0
 289 414 328 402 360 379 c 0
 368 373 372 367 372 360 c 0
 372 343 346 319 329 319 c 0
 322 319 316 324 308 330 c 0
 279 352 238 377 214 377 c 0
 149 377 104 310 104 212 c 0
 104 118 171 45 256 45 c 0
 295 45 319 56 351 88 c 0
 354 91 358 93 361 93 c 0
 367 93 372 87 372 79 c 0
 372 71 367 61 357 48 c 0
 325 7 274 -15 213 -15 c 0
EndSplineSet
EndChar

StartChar: Ccaron
Encoding: 268 268 197
Width: 710
GlyphClass: 2
Flags: MW
HStem: -15 31<339 439.5> 632 31<337 442.5> 700 63.25
VStem: 46 101<265.5 420>
LayerCount: 2
Fore
SplineSet
271 822 m 0
 284 822 366 782 392 767 c 0
 401 762 403 762 412 767 c 0
 438 782 520 823 533 823 c 0
 542 823 547 818 547 812 c 0
 547 808 546 804 541 800 c 2
 443 722 l 2
 423 706 417 700 402 700 c 0
 387 700 381 706 361 722 c 2
 263 800 l 2
 258 804 256 808 256 812 c 0
 256 818 262 822 271 822 c 0
407 -15 m 0
 220 -15 46 119 46 323 c 0
 46 517 227 663 432 663 c 0
 509 663 542 654 610 637 c 0
 630 632 637 621 639 603 c 0
 642 572 646 540 648 488 c 0
 649 473 620 464 614 487 c 0
 601 538 587 574 552 598 c 0
 519 620 470 632 415 632 c 0
 259 632 147 494 147 347 c 0
 147 184 256 16 422 16 c 0
 518 16 577 62 621 141 c 0
 630 158 655 159 655 138 c 0
 655 122 640 70 628 41 c 0
 618 22 617 21 596 14 c 0
 547 -6 472 -15 407 -15 c 0
EndSplineSet
EndChar

StartChar: ccaron
Encoding: 269 269 198
Width: 407
GlyphClass: 2
Flags: MW
HStem: -15 60<213.5 243.5> 377 37<187.5 226>
VStem: 35 69<165 245>
LayerCount: 2
Fore
SplineSet
237 455 m 0
 229 455 222 465 217 473 c 0
 197 504 129 622 129 635 c 0
 129 644 129 648 138 648 c 0
 146 648 160 635 168 626 c 0
 181 611 212 571 234 541 c 0
 237 537 238 537 241 541 c 0
 263 571 294 611 307 626 c 0
 315 635 328 648 336 648 c 0
 345 648 345 644 345 635 c 0
 345 622 277 504 257 473 c 0
 252 465 245 455 237 455 c 0
213 -15 m 0
 112 -15 35 69 35 180 c 0
 35 310 129 414 246 414 c 0
 289 414 328 402 360 379 c 0
 368 373 372 367 372 360 c 0
 372 343 346 319 329 319 c 0
 322 319 316 324 308 330 c 0
 279 352 238 377 214 377 c 0
 149 377 104 310 104 212 c 0
 104 118 171 45 256 45 c 0
 295 45 319 56 351 88 c 0
 354 91 358 93 361 93 c 0
 367 93 372 87 372 79 c 0
 372 71 367 61 357 48 c 0
 325 7 274 -15 213 -15 c 0
EndSplineSet
EndChar

StartChar: Dcaron
Encoding: 270 270 199
Width: 754
GlyphClass: 2
Flags: MW
HStem: -7 35<361 437 321.5 466.5> 0 21G<143 202.5> 628 25 628 31<326.5 413.5> 700 63.25
VStem: 129 80<99 121 121 549 549 567> 624 95<246 421>
LayerCount: 2
Fore
SplineSet
234 822 m 0x9e
 247 822 329 782 355 767 c 0
 364 762 366 762 375 767 c 0
 401 782 483 823 496 823 c 0
 505 823 510 818 510 812 c 0
 510 808 509 804 504 800 c 2
 406 722 l 2
 386 706 380 700 365 700 c 0
 350 700 344 706 324 722 c 2
 226 800 l 2
 221 804 219 808 219 812 c 0
 219 818 225 822 234 822 c 0x9e
371 -7 m 0
 351 -7 242 0 163 0 c 0x5e
 123 0 111 -5 58 -5 c 0
 41 -5 29 -2 29 8 c 0
 29 19 39 20 62 24 c 0
 112 33 129 51 129 99 c 2
 129 549 l 2
 129 597 112 613 62 622 c 0
 39 626 29 629 29 640 c 0
 29 649 41 653 58 653 c 0xae
 109 653 121 651 169 651 c 0
 212 651 313 659 340 659 c 0
 611 659 719 517 719 342 c 0
 719 150 562 -7 371 -7 c 0
359 28 m 0
 515 28 624 151 624 325 c 0
 624 517 482 628 345 628 c 0
 258 628 209 627 209 567 c 2
 209 121 l 2
 209 40 284 28 359 28 c 0
EndSplineSet
EndChar

